<svg version="1.1" xmlns="http://www.w3.org/2000/svg" xmlns:xlink="http://www.w3.org/1999/xlink" viewBox="0 0 171 171"><g fill="none" fill-rule="nonzero" stroke="none" stroke-width="1" stroke-linecap="butt" stroke-linejoin="miter" stroke-miterlimit="10" stroke-dasharray="" stroke-dashoffset="0" font-family="none" font-weight="none" font-size="none" text-anchor="none" style="mix-blend-mode: normal"><path d="M0,171.98863v-171.98863h171.98863v171.98863z" fill="none"></path><g fill="#cccccc"><path d="M3.42,0c-0.87467,0 -1.74944,0.33334 -2.41805,1.00195c-1.33722,1.33722 -1.33722,3.49887 0,4.83609l164.16,164.16c0.6669,0.6669 1.54253,1.00195 2.41805,1.00195c0.87552,0 1.75115,-0.33505 2.41805,-1.00195c1.33722,-1.33722 1.33722,-3.49887 0,-4.83609l-33.15129,-33.15129c16.3818,-5.85504 27.31324,-15.46048 27.31324,-29.41066v-23.94c0,-18.81 -20.52,-34.2 -46.17,-34.2c-14.022,0 -26.67867,4.788 -35.22867,11.97c-0.85842,1.07046 -6.0184,5.4836 -12.8584,8.63684l-64.06488,-64.06488c-0.66861,-0.66861 -1.54338,-1.00195 -2.41805,-1.00195zM117.99,51.3c21.45708,0 39.16958,12.21047 39.31664,27.17297c-0.15048,18.0063 -25.34177,24.81787 -40.34531,27.54703c-0.67716,0.0855 -2.66039,0.33623 -5.43059,0.66797l-6.13863,-6.13195c2.96514,-0.3249 6.10347,-0.68785 9.59871,-1.12219c0.342,-0.04104 0.65455,-0.06942 0.94184,-0.1002c8.0883,-1.38168 32.57475,-6.64196 34.37367,-19.22414c-2.77704,0.43434 -5.42075,1.41128 -8.26277,2.47148c-4.32288,1.6074 -8.94934,3.32649 -14.5684,3.32649c-4.91796,0 -10.60916,-1.34214 -17.51414,-5.21016c-5.26338,4.61358 -8.56785,9.43375 -6.66633,17.75461l-7.20738,-7.20738c1.14228,-9.405 8.26443,-15.00434 14.74875,-20.0591c4.91112,-3.8304 9.59027,-7.55296 12.23051,-12.7582c-1.65186,-0.16758 -3.32894,-0.28723 -5.07656,-0.28723c-9.77094,0 -19.41839,3.11995 -25.95059,8.36965c-2.37006,2.35296 -6.61412,5.71423 -11.97668,8.71699l-4.98305,-4.98305c5.81058,-2.97198 10.34374,-6.55635 12.47098,-8.68359c7.524,-6.498 18.46934,-10.26 30.43934,-10.26zM130.07355,59.70305c-2.9925,7.24014 -8.82873,12.0197 -14.32125,16.3118c10.50624,5.10264 16.76922,2.81439 23.89992,0.15363c2.93436,-1.09098 6.06355,-2.26153 9.55195,-2.81215c-2.70522,-5.7456 -9.60934,-11.10196 -19.13062,-13.65328zM35.91,64.98c-17.784,0 -32.49,10.602 -32.49,23.94v23.94c0,13.338 13.68,20.862 32.49,23.94c0.342,0 25.65,3.42 41.04,3.42c15.39,0 40.698,-3.42 41.04,-3.42c1.22778,-0.20862 2.42339,-0.44209 3.62039,-0.67465l-27.60047,-27.60047c-6.01578,0.51984 -12.16932,0.91512 -17.05992,0.91512c-15.048,0 -39.66933,-3.42 -40.01133,-3.42c-7.92072,-1.36458 -19.9721,-4.48768 -24.68144,-11.08828c-1.2312,-1.74078 -1.99723,-3.86738 -1.99723,-6.01172c0,-9.234 11.628,-17.1 25.65,-17.1c1.71,0 3.41733,0.34467 5.81133,1.02867c3.762,1.026 8.55267,2.39133 14.70867,2.39133c1.35432,0 2.69421,-0.10971 4.02117,-0.27387l-6.67301,-6.67969c-7.9002,-0.5472 -12.62188,-3.30645 -17.86816,-3.30645zM35.91,78.66c-11.48094,0 -18.81,6.07392 -18.81,10.26c0,3.24216 5.08324,6.48651 13.20574,8.74371c15.98508,-7.80102 29.75256,-11.56489 41.52762,-11.32207l-5.53746,-5.53746c-3.17718,0.7866 -6.49036,1.27582 -9.8659,1.27582c-7.20594,0 -12.54007,-1.4481 -16.43203,-2.50488c-1.65528,-0.45144 -3.36635,-0.91512 -4.08797,-0.91512zM71.64633,93.26848c-8.48823,-0.14733 -18.32121,2.04302 -29.45074,6.57281c18.95706,2.26746 29.33713,2.75871 34.75441,2.75871c2.44872,0 5.9158,-0.10276 10.7209,-0.42082l-7.98223,-7.98223c-2.52824,-0.56857 -5.21294,-0.87937 -8.04234,-0.92848z"></path></g></g></svg>