<svg version="1.1" xmlns="http://www.w3.org/2000/svg" xmlns:xlink="http://www.w3.org/1999/xlink" viewBox="0 0 171 171"><g fill="none" fill-rule="nonzero" stroke="none" stroke-width="1" stroke-linecap="butt" stroke-linejoin="miter" stroke-miterlimit="10" stroke-dasharray="" stroke-dashoffset="0" font-family="none" font-weight="none" font-size="none" text-anchor="none" style="mix-blend-mode: normal"><path d="M0,171.98863v-171.98863h171.98863v171.98863z" fill="none"></path><g fill="#cccccc"><path d="M99.15328,29.23031c-17.83477,0 -32.86406,10.64742 -40.1182,25.73016c-3.87422,-2.67187 -8.30953,-4.60899 -13.35937,-4.60899c-12.70477,0 -22.92469,10.05961 -23.68617,22.57735c-12.73149,4.60898 -21.98953,16.51219 -21.98953,30.79336c0,18.23555 14.84227,33.07781 33.07781,33.07781h107.47617c16.77937,0 30.44602,-13.66664 30.44602,-30.44602c0,-15.56367 -11.92992,-27.97453 -27.03938,-29.75133c0.05344,-0.80156 0.16031,-1.57641 0.16031,-2.40469c0,-24.795 -20.17265,-44.96766 -44.96765,-44.96766zM99.15328,36.07031c21.10781,0 38.12765,17.0332 38.12765,38.12766c0,1.56305 -0.12023,3.12609 -0.32063,4.72922l-0.48094,3.83414h3.87422c0.41414,0 0.46758,0 0.20039,0c13.07883,0 23.60602,10.52719 23.60602,23.59265c0,13.07883 -10.52719,23.60602 -23.60602,23.60602h-107.47617c-14.535,0 -26.23781,-11.70281 -26.23781,-26.23781c0,-12.09023 8.16258,-22.18992 19.2375,-25.24922l2.60508,-0.72141l-0.09352,-2.68523c-0.01336,-0.48094 -0.04008,-0.72141 -0.04008,-0.74813c0,-9.49852 7.6282,-17.12672 17.12672,-17.12672c4.75594,0 9.01758,1.92375 12.11695,5.02313l3.76734,3.7807l1.87031,-5.00977c5.37047,-14.52164 19.27758,-24.91523 35.72297,-24.91523zM64.98,75.24c-3.7807,0 -6.84,3.0593 -6.84,6.84c0,3.7807 3.0593,6.84 6.84,6.84c3.7807,0 6.84,-3.0593 6.84,-6.84c0,-3.7807 -3.0593,-6.84 -6.84,-6.84zM106.02,75.24c-3.7807,0 -6.84,3.0593 -6.84,6.84c0,3.7807 3.0593,6.84 6.84,6.84c3.7807,0 6.84,-3.0593 6.84,-6.84c0,-3.7807 -3.0593,-6.84 -6.84,-6.84zM85.5,99.18c-20.5868,0 -33.35836,14.85563 -33.35836,14.85563c-0.84164,0.9218 -1.12219,2.23102 -0.72141,3.40664c0.38742,1.17562 1.40274,2.05734 2.61844,2.27109c1.22906,0.22711 2.48485,-0.22711 3.25969,-1.18898c0,0 10.91461,-12.50437 28.20164,-12.50437c17.28703,0 28.20164,12.50437 28.20164,12.50437c0.77484,0.96188 2.03063,1.4161 3.25969,1.18898c1.2157,-0.21375 2.23102,-1.09547 2.61844,-2.27109c0.40078,-1.17563 0.12023,-2.48485 -0.72141,-3.40664c0,0 -12.77156,-14.85563 -33.35836,-14.85563z"></path></g></g></svg>