<svg width="171" height="171" viewBox="0 0 171 171" fill="none" xmlns="http://www.w3.org/2000/svg">
<g clip-path="url(#clip0_3_45)">
<path d="M85.5 6.84003C60.9856 6.84003 41.04 26.7856 41.04 51.3C41.04 83.8702 81.0781 136.653 82.7747 138.884L85.5 142.424L88.2253 138.884C89.922 136.653 129.96 83.8702 129.96 51.3C129.96 26.7856 110.014 6.84003 85.5 6.84003V6.84003ZM85.5 37.62C93.0614 37.62 99.18 43.7386 99.18 51.3C99.18 58.8614 93.0614 64.98 85.5 64.98C77.9386 64.98 71.82 58.8614 71.82 51.3C71.82 43.7386 77.9386 37.62 85.5 37.62V37.62ZM24.9553 109.44L5.39722 164.16H165.603L146.045 109.44H119.874C118.538 111.791 117.202 114.076 115.866 116.28H141.235L155.877 157.32H15.1229L29.7647 116.28H55.1342C53.7982 114.076 52.4623 111.791 51.1264 109.44H24.9553Z" fill="#59BDCB"/>
</g>
<defs>
<clipPath id="clip0_3_45">
<rect width="171" height="171" fill="white"/>
</clipPath>
</defs>
</svg>
