<svg width="155" height="92" viewBox="0 0 155 92" fill="none" xmlns="http://www.w3.org/2000/svg">
<path fill-rule="evenodd" clip-rule="evenodd" d="M79.5415 0.0152882C35.9414 -0.784761 8.37476 30.0153 0.0415039 45.5153C9.70825 60.0153 32.0415 91.0155 79.5415 91.0155C119.973 91.0155 146.375 61.3488 154.542 45.5153C147.708 30.682 123.142 0.815337 79.5415 0.0152882ZM113.042 45.5155C113.042 65.3976 96.9238 81.5155 77.0415 81.5155C57.1592 81.5155 41.0415 65.3976 41.0415 45.5155C41.0415 25.6332 57.1592 9.51553 77.0415 9.51553C96.9238 9.51553 113.042 25.6332 113.042 45.5155ZM101.042 45.5155C101.042 58.7704 90.2964 69.5155 77.0415 69.5155C63.7866 69.5155 53.0415 58.7704 53.0415 45.5155C53.0415 43.0558 53.4116 40.6825 54.0991 38.4481C55.9805 42.6154 60.1724 45.5155 65.0415 45.5155C71.6689 45.5155 77.0415 40.143 77.0415 33.5155C77.0415 28.6464 74.1416 24.4545 69.9741 22.5729C72.2085 21.8856 74.5815 21.5155 77.0415 21.5155C90.2964 21.5155 101.042 32.2606 101.042 45.5155Z" fill="#423F3D"/>
</svg>
