<svg version="1.1" xmlns="http://www.w3.org/2000/svg" width="20px" height="20px" xmlns:xlink="http://www.w3.org/1999/xlink" viewBox="0 0 171 171"><g fill="none" fill-rule="nonzero" stroke="none" stroke-width="1" stroke-linecap="butt" stroke-linejoin="miter" stroke-miterlimit="10" stroke-dasharray="" stroke-dashoffset="0" font-family="none" font-weight="none" font-size="none" text-anchor="none" style="mix-blend-mode: normal"><path d="M0,171.98863v-171.98863h171.98863v171.98863z" fill="none"></path><g fill="#333333"><path d="M85.5,10.26c-11.28867,0 -20.52,9.23133 -20.52,20.52c0,11.28867 9.23133,20.52 20.52,20.52c11.28867,0 20.52,-9.23133 20.52,-20.52c0,-11.28867 -9.23133,-20.52 -20.52,-20.52zM85.5,64.98c-11.28867,0 -20.52,9.23133 -20.52,20.52c0,11.28867 9.23133,20.52 20.52,20.52c11.28867,0 20.52,-9.23133 20.52,-20.52c0,-11.28867 -9.23133,-20.52 -20.52,-20.52zM85.5,119.7c-11.28867,0 -20.52,9.23133 -20.52,20.52c0,11.28867 9.23133,20.52 20.52,20.52c11.28867,0 20.52,-9.23133 20.52,-20.52c0,-11.28867 -9.23133,-20.52 -20.52,-20.52z"></path></g></g></svg>
