<svg width="165" height="74" viewBox="0 0 165 74" fill="none" xmlns="http://www.w3.org/2000/svg">
<path fill-rule="evenodd" clip-rule="evenodd" d="M16.0415 0.015625C23.0415 12.8489 46.1416 38.5156 82.5415 38.5156C118.941 38.5156 141.708 12.8489 148.542 0.015625L159.542 5.51562C157.436 9.86475 153.937 15.3862 149.073 21.0825L164.181 36.1909L155.717 44.6553L140.725 29.6633C135.485 34.3945 129.289 38.8953 122.154 42.5713L129.752 63.4475L118.504 67.5417L111.124 47.2661C104.4 49.5552 97.0264 51.0662 89.0117 51.4517V73.9265H77.0415V51.2029C68.6807 50.481 61.0073 48.6802 54.0332 46.1536L46.29 67.4277L35.0417 63.3337L43.0513 41.3271C36.1267 37.7219 30.0837 33.4551 24.9382 29.0203L8.46436 45.4941L0 37.0298L16.3721 20.6577C11.3198 15.064 7.69922 9.69043 5.5415 5.51562L16.0415 0.015625Z" fill="#423F3D"/>
</svg>
