<svg version="1.1" xmlns="http://www.w3.org/2000/svg" xmlns:xlink="http://www.w3.org/1999/xlink" viewBox="0 0 171 171"><g fill="none" fill-rule="nonzero" stroke="none" stroke-width="1" stroke-linecap="butt" stroke-linejoin="miter" stroke-miterlimit="10" stroke-dasharray="" stroke-dashoffset="0" font-family="none" font-weight="none" font-size="none" text-anchor="none" style="mix-blend-mode: normal"><path d="M0,171.98863v-171.98863h171.98863v171.98863z" fill="none"></path><g fill="#333333"><path d="M18.70313,17.36719c-9.61875,0 -17.36719,7.74844 -17.36719,17.36719v104.20313c0,9.61875 7.74844,17.36719 17.36719,17.36719h133.59375c9.61875,0 17.36719,-7.74844 17.36719,-17.36719v-21.9099c0,-2.27109 -1.73672,-4.00781 -4.00781,-4.00781c-2.27109,0 -4.00781,1.73672 -4.00781,4.00781v21.9099c0,5.21016 -4.14141,9.35156 -9.35156,9.35156h-101.53125c15.22969,-47.29219 54.64037,-65.99531 114.08958,-54.10547c0.26719,0 0.53385,0.13307 0.80104,0.13307c2.27109,0 4.00781,-1.73672 4.00781,-4.00781v-55.57448c0,-9.61875 -7.74844,-17.36719 -17.36719,-17.36719zM18.70313,25.38281h133.59375c5.21016,0 9.35156,4.14141 9.35156,9.35156v50.63255c-61.58672,-10.82109 -103.66771,11.35495 -119.16458,62.92213h-23.78073c-5.21016,0 -9.35156,-4.14141 -9.35156,-9.35156v-104.20312c0,-5.21016 4.14141,-9.35156 9.35156,-9.35156zM48.09375,41.41406c-6.01172,0 -11.75625,2.40469 -16.03125,6.67969c-8.81719,8.81719 -8.81719,23.24479 0,32.19557c4.275,4.275 10.01953,6.67969 16.03125,6.67969c6.01172,0 11.75625,-2.40469 16.03125,-6.67969c8.81719,-8.81719 8.81719,-23.24479 0,-32.19557c-4.275,-4.275 -10.01953,-6.67969 -16.03125,-6.67969zM48.09375,49.42969c4.00781,0 7.61589,1.46849 10.42136,4.27396c5.74453,5.74453 5.74453,15.09818 0,20.84271c-2.80547,2.80547 -6.54714,4.27396 -10.42136,4.27396c-3.87422,0 -7.61589,-1.46849 -10.42136,-4.27396c-5.74453,-5.74453 -5.74453,-15.09818 0,-20.84271c2.80547,-2.80547 6.41354,-4.27396 10.42136,-4.27396z"></path></g></g></svg>