<svg version="1.1" xmlns="http://www.w3.org/2000/svg" xmlns:xlink="http://www.w3.org/1999/xlink" viewBox="0 0 171 171"><g fill="none" fill-rule="nonzero" stroke="none" stroke-width="1" stroke-linecap="butt" stroke-linejoin="miter" stroke-miterlimit="10" stroke-dasharray="" stroke-dashoffset="0" font-family="none" font-weight="none" font-size="none" text-anchor="none" style="mix-blend-mode: normal"><path d="M0,171.98863v-171.98863h171.98863v171.98863z" fill="none"></path><g fill="#333333"><path d="M85.5,6.86672c-43.40221,0 -78.66,35.25779 -78.66,78.66c0,41.39722 32.08408,75.36101 72.7084,78.41285c0.08009,0.00651 0.16022,0.01378 0.24047,0.02004c1.88896,0.13611 3.78783,0.22711 5.71113,0.22711c1.9233,0 3.82217,-0.091 5.71113,-0.22711c0.08025,-0.00626 0.16037,-0.01353 0.24047,-0.02004c40.62432,-3.05184 72.7084,-37.01563 72.7084,-78.41285c0,-43.40221 -35.25779,-78.66 -78.66,-78.66zM85.5,13.70672c39.7056,0 71.82,32.1144 71.82,71.82c0,19.60242 -7.84954,37.33361 -20.5534,50.28469c-5.43493,-3.95769 -12.1514,-6.31862 -18.16875,-8.42977c-7.12728,-2.4966 -13.87002,-4.86324 -15.73734,-8.9775c-0.29412,-3.51234 -0.26783,-6.25518 -0.24047,-9.405l0.00668,-1.33594c3.03696,-2.8899 6.85614,-8.9891 8.16258,-14.62184c2.2572,-1.20384 5.01709,-4.08963 5.84473,-11.00145c0.41382,-3.43026 -0.56243,-6.08685 -1.93043,-7.86867c1.8468,-6.3441 5.52132,-22.40453 -0.91512,-32.77055c-2.72232,-4.38102 -6.83032,-7.14507 -12.23051,-8.23606c-3.03354,-3.75516 -8.75803,-5.80465 -16.41199,-5.80465c-11.63142,0.21546 -20.15833,3.77808 -25.32937,10.5873c-6.09786,8.037 -7.25008,20.18003 -3.43336,36.11039c-1.41246,1.78182 -2.43124,4.47689 -2.01058,7.97555c0.83106,6.91182 3.58085,9.79761 5.83805,11.00145c1.30644,5.63958 5.1222,11.73862 8.16258,14.62852l0.00668,1.30254c0.02736,3.1635 0.05365,5.91238 -0.24047,9.4384c-1.87416,4.12452 -8.64934,6.51692 -15.81082,9.0443c-5.98122,2.11207 -12.65793,4.47665 -18.08191,8.38301c-12.71369,-12.95254 -20.56676,-30.69373 -20.56676,-50.30473c0,-39.70559 32.1144,-71.82 71.82,-71.82z"></path></g></g></svg>