<svg width="171" height="171" viewBox="0 0 171 171" fill="none" xmlns="http://www.w3.org/2000/svg">
<g clip-path="url(#clip0_16_2)">
<path fill-rule="evenodd" clip-rule="evenodd" d="M85.4998 6.8667C42.0976 6.8667 6.83984 42.1245 6.83984 85.5267C6.83984 126.924 38.9239 160.888 79.5482 163.94L79.6498 163.948C79.6797 163.951 79.7096 163.953 79.7395 163.956C79.7559 163.957 79.7723 163.958 79.7887 163.96C81.6777 164.096 83.5765 164.187 85.4998 164.187C87.4231 164.187 89.322 164.096 91.211 163.96C91.2573 163.956 91.3036 163.952 91.3498 163.948C91.3837 163.945 91.4176 163.942 91.4514 163.94C132.076 160.888 164.16 126.924 164.16 85.5267C164.16 42.1245 128.902 6.8667 85.4998 6.8667ZM135.997 137.522C149.568 124.347 158 105.908 158 85.5C158 45.4594 125.541 13 85.5 13C45.4594 13 13 45.4594 13 85.5C13 105.908 21.4323 124.347 35.0029 137.522C35.2553 116.503 52.135 99.4851 73.0996 99.0102C60.2105 94.346 51 81.9986 51 67.5C51 48.9985 65.9985 34 84.5 34C103.002 34 118 48.9985 118 67.5C118 81.9881 108.803 94.328 95.9285 99H97C118.38 99 135.741 116.203 135.997 137.522ZM35.4998 138C38.7467 141.093 42.2803 143.888 46.0565 146.342C42.2803 143.888 38.7469 141.093 35.5 138H35.4998Z" fill="#333333"/>
</g>
<defs>
<clipPath id="clip0_16_2">
<rect width="171" height="171" fill="white"/>
</clipPath>
</defs>
</svg>
