<svg version="1.1" xmlns="http://www.w3.org/2000/svg" xmlns:xlink="http://www.w3.org/1999/xlink" viewBox="0 0 171 171"><g fill="none" fill-rule="nonzero" stroke="none" stroke-width="1" stroke-linecap="butt" stroke-linejoin="miter" stroke-miterlimit="10" stroke-dasharray="" stroke-dashoffset="0" font-family="none" font-weight="none" font-size="none" text-anchor="none" style="mix-blend-mode: normal"><path d="M0,171.98863v-171.98863h171.98863v171.98863z" fill="none"></path><g fill="#59bdcb"><path d="M91.27125,0l-54.72,17.1c-1.36265,0.68133 -2.35125,2.05735 -2.35125,3.42v133.38c0,1.71 1.06875,3.07266 2.77875,3.42l54.72,13.68h0.64125c0.68133,0 1.3493,-0.2939 2.03063,-0.64125c0.68133,-0.68133 1.38937,-1.75008 1.38937,-2.77875v-164.16c0,-1.02867 -0.70805,-2.09742 -1.38937,-2.77875c-1.02867,-0.68133 -2.0707,-0.64125 -3.09938,-0.64125zM102.6,13.68v6.84h27.36v129.96h-27.36v6.84h30.78c1.88367,0 3.42,-1.53633 3.42,-3.42v-136.8c0,-1.88367 -1.53633,-3.42 -3.42,-3.42zM82.08,82.08c2.05735,0 3.42,2.39133 3.42,5.13c0,2.73867 -1.36265,5.13 -3.42,5.13c-2.05734,0 -3.42,-2.39133 -3.42,-5.13c0,-2.73867 1.36266,-5.13 3.42,-5.13z"></path></g></g></svg>