<svg width="312" height="227" viewBox="0 0 312 227" fill="none" xmlns="http://www.w3.org/2000/svg">
<g clip-path="url(#clip0_14_6)">
<rect x="44.6509" y="72.1128" width="205.794" height="120.874" rx="6" transform="rotate(-10 44.6509 72.1128)" fill="#00934E"/>
<path fill-rule="evenodd" clip-rule="evenodd" d="M59.6354 79.2283C57.4598 79.6119 56.0071 81.6865 56.3907 83.8621L72.6538 176.095C73.0374 178.27 75.1121 179.723 77.2876 179.339L253.324 148.299C255.499 147.916 256.952 145.841 256.568 143.665L240.305 51.433C239.922 49.2574 237.847 47.8048 235.671 48.1884L59.6354 79.2283ZM64.7189 82.513C62.5433 82.8966 61.0906 84.9712 61.4742 87.1468L76.3072 171.269C76.6909 173.445 78.7655 174.897 80.9411 174.514L248.239 145.014C250.415 144.631 251.867 142.556 251.484 140.381L236.651 56.2585C236.267 54.0829 234.193 52.6302 232.017 53.0138L64.7189 82.513Z" fill="#63BA1E"/>
<path fill-rule="evenodd" clip-rule="evenodd" d="M150.9 153.994C173.484 156.567 193.879 140.345 196.452 117.76C199.025 95.176 182.803 74.7816 160.218 72.2085C137.634 69.6353 117.239 85.8577 114.666 108.442C112.093 131.027 128.315 151.421 150.9 153.994ZM151.323 150.277C171.855 152.616 190.395 137.868 192.734 117.337C195.074 96.8056 180.326 78.2653 159.795 75.926C139.263 73.5868 120.723 88.3344 118.384 108.866C116.044 129.397 130.792 147.937 151.323 150.277Z" fill="#7BD63B"/>
<path fill-rule="evenodd" clip-rule="evenodd" d="M156.63 132.833L157.399 138.566C157.495 138.828 158.075 139.245 159.63 138.82C161.573 138.288 161.987 137.959 161.785 136.43L161.197 131.985C162.046 131.706 162.839 131.367 163.535 130.98C166.349 129.418 168.164 126.955 169.342 122.981C170.559 118.878 168.393 113.53 165.738 111.649C163.456 110.033 160.767 109.462 158.161 109.038L156.515 96.5962C157.01 96.6419 157.511 96.7215 158.011 96.8354C159.142 97.0931 160.186 97.4854 161.057 97.813C162.328 98.2904 163.232 98.6301 163.503 98.2143C163.868 97.6533 164.639 95.9586 164.585 95.3248L162.854 93.9979C161.317 93.3184 158.742 92.6829 155.993 92.6538L155.513 89.0192C155.541 88.7714 155.209 88.382 153.654 88.8074C153.149 88.9455 152.725 89.042 152.373 89.1222C151.369 89.351 150.945 89.4475 150.882 89.9979L151.323 93.2865C148.856 94.0584 146.657 95.619 145.404 98.4116C142.391 105.131 146.503 111.924 153.924 112.669L156.008 128.196C155.721 128.193 155.449 128.176 155.197 128.147C152.595 127.851 149.461 125.611 148.802 124.783C148.43 124.74 147.521 124.787 146.858 125.314C146.03 125.973 145.075 127.747 145.776 128.204C145.929 128.303 146.092 128.476 146.306 128.703C147.071 129.514 148.49 131.019 152.458 132.354C153.676 132.764 155.13 132.906 156.63 132.833ZM160.56 127.169C162.024 126.437 163.326 125.265 164.011 123.503C166.059 118.234 163.114 114.381 158.705 113.152L160.56 127.169ZM153.318 108.15L151.863 97.3046C151.042 97.6955 150.355 98.2358 149.866 98.9199C147.626 102.054 148.317 105.899 151.164 107.353C151.825 107.69 152.549 107.945 153.318 108.15Z" fill="#7BD63B"/>
<path fill-rule="evenodd" clip-rule="evenodd" d="M219.072 108.6C222.768 109.021 226.105 106.367 226.526 102.671C226.947 98.9756 224.292 95.6383 220.597 95.2172C216.901 94.7962 213.564 97.4507 213.143 101.146C212.722 104.842 215.376 108.179 219.072 108.6ZM219.495 104.883C221.138 105.07 222.621 103.89 222.808 102.247C222.996 100.605 221.816 99.1218 220.173 98.9346C218.531 98.7475 217.047 99.9273 216.86 101.57C216.673 103.212 217.853 104.696 219.495 104.883Z" fill="#7BD63B"/>
<path fill-rule="evenodd" clip-rule="evenodd" d="M90.9729 131.948C94.6685 132.369 98.0058 129.714 98.4269 126.018C98.8479 122.323 96.1934 118.985 92.4977 118.564C88.8021 118.143 85.4648 120.798 85.0437 124.494C84.6227 128.189 87.2773 131.526 90.9729 131.948ZM91.3961 128.23C93.0386 128.417 94.5218 127.237 94.7089 125.595C94.8961 123.952 93.7163 122.469 92.0738 122.282C90.4313 122.095 88.948 123.275 88.7609 124.917C88.5738 126.56 89.7536 128.043 91.3961 128.23Z" fill="#7BD63B"/>
<rect x="53.583" y="53.3264" width="205.794" height="120.874" rx="6" fill="#13B265"/>
<path fill-rule="evenodd" clip-rule="evenodd" d="M67.1037 62.9359C64.8946 62.9359 63.1037 64.7267 63.1037 66.9359L63.1037 160.591C63.1037 162.8 64.8946 164.591 67.1037 164.591L245.855 164.591C248.065 164.591 249.855 162.8 249.855 160.591L249.855 66.9359C249.855 64.7267 248.065 62.9359 245.855 62.9359L67.1037 62.9359ZM71.5404 67.0538C69.3312 67.0538 67.5404 68.8446 67.5404 71.0538L67.5404 156.474C67.5404 158.683 69.3312 160.474 71.5404 160.474L241.419 160.474C243.628 160.474 245.419 158.683 245.419 156.474L245.419 71.0538C245.419 68.8446 243.628 67.0538 241.419 67.0538L71.5404 67.0538Z" fill="#7BD63B"/>
<path fill-rule="evenodd" clip-rule="evenodd" d="M143.999 152.414C165.794 158.87 188.695 146.436 195.151 124.641C201.607 102.846 189.173 79.945 167.378 73.4891C145.584 67.0333 122.682 79.4678 116.226 101.262C109.77 123.057 122.205 145.958 143.999 152.414ZM145.062 148.827C164.876 154.696 185.695 143.392 191.564 123.578C197.433 103.765 186.129 82.9456 166.316 77.0766C146.503 71.2077 125.683 82.5118 119.814 102.325C113.945 122.138 125.249 142.958 145.062 148.827Z" fill="#7BD63B"/>
<path fill-rule="evenodd" clip-rule="evenodd" d="M153.316 132.57L153.078 138.349C153.127 138.623 153.626 139.135 155.231 138.986C157.237 138.8 157.702 138.548 157.768 137.007L157.961 132.527C158.846 132.4 159.686 132.204 160.439 131.944C163.481 130.894 165.696 128.783 167.547 125.074C169.457 121.245 168.253 115.602 165.965 113.289C163.998 111.301 161.449 110.272 158.956 109.402L159.496 96.8632C159.976 96.9942 160.455 97.1596 160.928 97.3586C161.996 97.8087 162.956 98.3764 163.758 98.8503C164.926 99.5411 165.758 100.033 166.096 99.6701C166.553 99.1811 167.607 97.6459 167.664 97.0125L166.189 95.4051C164.794 94.4691 162.369 93.3961 159.667 92.8901L159.824 89.2273C159.895 88.9881 159.636 88.547 158.031 88.6959C157.51 88.7443 157.075 88.7657 156.715 88.7836C155.686 88.8345 155.252 88.8559 155.094 89.3871L154.958 92.7023C152.394 93.0341 149.957 94.1889 148.239 96.7217C144.105 102.816 146.974 110.22 154.153 112.242L153.509 127.895C153.227 127.842 152.962 127.778 152.719 127.706C150.208 126.962 147.51 124.212 147.005 123.282C146.646 123.176 145.743 123.064 144.999 123.468C144.069 123.973 142.82 125.554 143.431 126.126C143.565 126.251 143.695 126.449 143.866 126.709C144.479 127.641 145.615 129.37 149.291 131.374C150.419 131.989 151.826 132.381 153.316 132.57ZM158.17 127.673C159.739 127.207 161.225 126.279 162.205 124.663C165.137 119.83 162.906 115.524 158.778 113.548L158.17 127.673ZM154.341 107.686L154.791 96.753C153.915 96.9955 153.144 97.4082 152.544 97.997C149.794 100.694 149.807 104.601 152.358 106.527C152.951 106.974 153.619 107.351 154.341 107.686Z" fill="#7BD63B"/>
<path fill-rule="evenodd" clip-rule="evenodd" d="M219.019 119.548C222.585 120.604 226.333 118.57 227.389 115.003C228.445 111.437 226.411 107.689 222.844 106.633C219.278 105.577 215.53 107.611 214.474 111.178C213.418 114.744 215.452 118.492 219.019 119.548ZM220.081 115.96C221.666 116.43 223.332 115.526 223.801 113.941C224.271 112.356 223.366 110.69 221.781 110.22C220.196 109.751 218.531 110.655 218.061 112.24C217.592 113.825 218.496 115.491 220.081 115.96Z" fill="#7BD63B"/>
<path fill-rule="evenodd" clip-rule="evenodd" d="M88.8111 120.296C92.3775 121.353 96.125 119.318 97.1814 115.752C98.2378 112.185 96.2031 108.438 92.6367 107.381C89.0703 106.325 85.3228 108.36 84.2664 111.926C83.21 115.492 85.2447 119.24 88.8111 120.296ZM89.8739 116.709C91.459 117.179 93.1245 116.274 93.594 114.689C94.0636 113.104 93.1592 111.439 91.5742 110.969C89.9891 110.499 88.3235 111.404 87.854 112.989C87.3845 114.574 88.2888 116.239 89.8739 116.709Z" fill="#7BD63B"/>
</g>
<defs>
<clipPath id="clip0_14_6">
<rect width="312" height="227" fill="white"/>
</clipPath>
</defs>
</svg>
