<svg width="171" height="171" viewBox="0 0 171 171" fill="none" xmlns="http://www.w3.org/2000/svg">
<path fill-rule="evenodd" clip-rule="evenodd" d="M91.7692 27.2853C91.7692 37.3839 83.5826 45.5705 73.484 45.5705C63.3853 45.5705 55.1987 37.3839 55.1987 27.2853C55.1987 17.1866 63.3853 9 73.484 9C77.9044 9 81.9585 10.5686 85.12 13.1795H97.8152C99.3307 13.1795 100.296 14.7995 99.5738 16.1321L94.9488 24.6705C94.5992 25.3159 93.9242 25.7179 93.1902 25.7179H91.703C91.7469 26.2346 91.7692 26.7573 91.7692 27.2853ZM81.6346 49.75L81.6712 49.7501C82.621 49.6185 83.6135 49.6828 84.5926 49.9736L115.028 59.0119C115.329 58.7862 115.652 58.5809 115.995 58.3991C119.564 56.5077 123.991 57.8678 125.882 61.4371L142.615 93.0126L159.383 122.057C164.071 126.442 167 132.683 167 139.609C167 152.882 156.241 163.641 142.968 163.641C129.695 163.641 118.936 152.882 118.936 139.609C118.936 137.155 119.304 134.786 119.988 132.556H112.667V141.176C112.667 146.081 108.69 150.058 103.785 150.058C98.8802 150.058 94.9038 146.081 94.9038 141.176V132.295H67.6488C68.3848 134.601 68.7821 137.059 68.7821 139.609C68.7821 152.882 58.0225 163.641 44.75 163.641C31.4775 163.641 20.7179 152.882 20.7179 139.609C20.7179 137.815 20.9146 136.067 21.2874 134.385H8C5.79086 134.385 4 132.594 4 130.385V53.75C4 51.5409 5.79086 49.75 8 49.75H49.109C51.3181 49.75 53.109 51.5409 53.109 53.75V101.994H61.4679V56.75C61.4679 52.884 64.6019 49.75 68.4679 49.75H81.6346ZM112.652 101.994H122.463L126.82 94.4474L115.833 73.7143L88.6346 65.6372V93.6346H103.785H105.353V93.7725C109.343 94.483 112.412 97.8588 112.652 101.994ZM152.372 139.609C152.372 144.803 148.162 149.013 142.968 149.013C137.774 149.013 133.564 144.803 133.564 139.609C133.564 134.415 137.774 130.205 142.968 130.205C148.162 130.205 152.372 134.415 152.372 139.609ZM54.1539 139.609C54.1539 144.803 49.9437 149.013 44.7501 149.013C39.5565 149.013 35.3462 144.803 35.3462 139.609C35.3462 134.415 39.5565 130.205 44.7501 130.205C49.9437 130.205 54.1539 134.415 54.1539 139.609Z" fill="#59BDCB"/>
</svg>
