<svg width="312" height="227" viewBox="0 0 312 227" fill="none" xmlns="http://www.w3.org/2000/svg">
<rect x="51.7451" y="47.5" width="207.51" height="132" rx="16.5" fill="#4486E4" stroke="#4486E4"/>
<rect x="82.6855" y="117.933" width="43.6513" height="43.6513" rx="21.8256" fill="#F8D35E"/>
<circle cx="188.062" cy="140.1" r="19.6205" fill="#FF8E01" stroke="#FF8E01"/>
<circle cx="210.57" cy="139.418" r="19.6205" fill="#FFD54F" stroke="#FFD54F"/>
<rect x="51.7451" y="72.3838" width="207.51" height="13.5871" fill="#44525F" stroke="#44525F"/>
<path fill-rule="evenodd" clip-rule="evenodd" d="M96.8994 119.297C99.2694 118.415 101.834 117.933 104.511 117.933C116.565 117.933 126.337 127.705 126.337 139.759C126.337 151.813 116.565 161.585 104.511 161.585C102.627 161.585 100.799 161.346 99.0549 160.897V160.903H96.3266V159.998C88.328 156.76 82.6855 148.919 82.6855 139.759C82.6855 130.599 88.328 122.758 96.3266 119.52V119.297H96.8994ZM96.3266 121.747C89.487 124.86 84.7319 131.754 84.7319 139.759C84.7319 147.764 89.487 154.658 96.3266 157.771V121.747ZM99.0549 143.851V134.985H123.711C124.09 136.514 124.291 138.113 124.291 139.759C124.291 141.162 124.145 142.531 123.867 143.851H99.0549ZM99.0549 147.262V158.776C100.788 159.273 102.619 159.538 104.511 159.538C112.78 159.538 119.863 154.465 122.818 147.262H99.0549ZM122.818 132.256H99.0549V120.742C100.788 120.245 102.619 119.979 104.511 119.979C112.78 119.979 119.863 125.053 122.818 132.256Z" fill="#454A49"/>
</svg>
