<svg version="1.1" xmlns="http://www.w3.org/2000/svg" xmlns:xlink="http://www.w3.org/1999/xlink" viewBox="0 0 171 171"><g fill="none" fill-rule="nonzero" stroke="none" stroke-width="1" stroke-linecap="butt" stroke-linejoin="miter" stroke-miterlimit="10" stroke-dasharray="" stroke-dashoffset="0" font-family="none" font-weight="none" font-size="none" text-anchor="none" style="mix-blend-mode: normal"><path d="M0,171.98863v-171.98863h171.98863v171.98863z" fill="none"></path><g fill="#59bdcb"><path d="M79.99594,7.05375c-40.185,2.81124 -73.15594,36.01089 -73.15594,75.02625c0,1.22048 0.64577,2.31199 1.6432,2.91902l49.6568,31.04051v48.12047h54.72v-48.12047l49.67684,-31.04719c0.98736,-0.60919 1.62316,-1.6991 1.62316,-2.91234c0,-39.01536 -32.97094,-72.21501 -73.15594,-75.02625c15.04116,14.24088 25.27594,44.12655 25.27594,75.02625h-3.42h-3.42c0,-29.77794 -9.747,-58.25051 -23.94,-70.77797c-14.193,12.52746 -23.94,41.00003 -23.94,70.77797h-3.42h-3.42c0,-30.8997 10.23478,-60.78537 25.27594,-75.02625zM34.2,71.82c9.39474,0 17.75317,4.67632 20.80723,11.63602c0.05909,0.13446 0.1527,0.24363 0.22711,0.36738l-0.02672,0.02004l17.40727,29.01656h-6.65297l-51.13969,-31.9623c3.78735,-5.52179 11.1881,-9.0777 19.37777,-9.0777zM85.5,71.82c10.19004,0 19.2533,4.09026 23.35219,10.2934l-18.4493,30.7466h-9.80578l-18.44262,-30.7466c4.09985,-6.20146 13.15712,-10.2934 23.34551,-10.2934zM136.8,71.82c8.18968,0 15.59043,3.55591 19.37777,9.0777l-51.13969,31.9623h-6.65297l17.40727,-29.01656l-0.02672,-0.02004c0.07464,-0.12376 0.16764,-0.23292 0.22711,-0.36738c3.05406,-6.9597 11.41249,-11.63602 20.80723,-11.63602zM78.66,126.54h13.68c1.89126,0 3.42,1.52874 3.42,3.42c0,1.89126 -1.52874,3.42 -3.42,3.42h-13.68c-1.89126,0 -3.42,-1.52874 -3.42,-3.42c0,-1.89126 1.52874,-3.42 3.42,-3.42z"></path></g></g></svg>