<svg version="1.1" xmlns="http://www.w3.org/2000/svg" xmlns:xlink="http://www.w3.org/1999/xlink" viewBox="0 0 171 171"><g fill="none" fill-rule="nonzero" stroke="none" stroke-width="1" stroke-linecap="butt" stroke-linejoin="miter" stroke-miterlimit="10" stroke-dasharray="" stroke-dashoffset="0" font-family="none" font-weight="none" font-size="none" text-anchor="none" style="mix-blend-mode: normal"><path d="M0,171.98863v-171.98863h171.98863v171.98863z" fill="none"></path><g fill="#666666"><path d="M85.5,6.84c-24.51445,0 -44.46,19.94555 -44.46,44.46c0,32.57016 40.03805,85.35305 41.73469,87.58406l2.72531,3.54023l2.72531,-3.54023c1.69664,-2.23102 41.73469,-55.0139 41.73469,-87.58406c0,-24.51445 -19.94555,-44.46 -44.46,-44.46zM85.5,37.62c7.56141,0 13.68,6.1186 13.68,13.68c0,7.56141 -6.11859,13.68 -13.68,13.68c-7.5614,0 -13.68,-6.11859 -13.68,-13.68c0,-7.5614 6.1186,-13.68 13.68,-13.68zM24.95531,109.44l-19.55812,54.72h160.20563l-19.55812,-54.72h-26.17102c-1.33594,2.35125 -2.67187,4.6357 -4.00781,6.84h25.36945l14.64188,41.04h-140.75437l14.64188,-41.04h25.36945c-1.33594,-2.2043 -2.67187,-4.48875 -4.00781,-6.84z"></path></g></g></svg>