<svg version="1.1" xmlns="http://www.w3.org/2000/svg" xmlns:xlink="http://www.w3.org/1999/xlink" viewBox="0 0 171 171"><g fill="none" fill-rule="nonzero" stroke="none" stroke-width="1" stroke-linecap="butt" stroke-linejoin="miter" stroke-miterlimit="10" stroke-dasharray="" stroke-dashoffset="0" font-family="none" font-weight="none" font-size="none" text-anchor="none" style="mix-blend-mode: normal"><path d="M0,171.98863v-171.98863h171.98863v171.98863z" fill="none"></path><g fill="#333333"><path d="M9.73332,109.44h0.52668h150.48h0.52668c5.37282,0 9.73332,-4.3605 9.73332,-9.73332v-7.89678c0,-5.36598 -4.3605,-9.7299 -9.73332,-9.7299h-151.53336c-5.36598,0 -9.73332,4.36392 -9.73332,9.73332v7.89678c0,5.3694 4.36734,9.7299 9.73332,9.7299zM133.38,20.52h-34.2c-3.77568,0 -6.84,-3.06774 -6.84,-6.84v-6.84c0,-3.77226 3.06432,-6.84 6.84,-6.84h34.2c3.77568,0 6.84,3.06774 6.84,6.84v6.84c0,3.77226 -3.06432,6.84 -6.84,6.84zM67.00806,51.5223c-5.1471,-2.87622 -10.9611,-4.4289 -17.02134,-4.4289c-17.07264,0 -30.51666,11.62458 -34.04952,28.1466h25.98858zM150.48,75.24v-0.60876c0,-7.93098 -6.55956,-33.32106 -14.25798,-47.57562c-0.91656,0.19494 -1.86732,0.30438 -2.84202,0.30438h-34.2c-1.06362,0 -2.07594,-0.14706 -3.06432,-0.3762c-3.17376,5.94054 -5.92344,13.50558 -7.91046,19.66842l50.38344,28.58778zM124.73082,75.24l-43.32798,-24.58296c-1.30644,-0.74556 -2.94462,-0.54378 -4.03902,0.48906l-25.48242,24.0939zM10.26,116.28v6.84c0,0.6669 0,1.07388 11.72718,39.15216c0.07182,0.22914 0.31122,0.71478 0.4275,0.92682c2.04516,3.65598 4.3605,7.80102 9.15534,7.80102h107.86338c5.9508,0 8.06436,-5.0616 9.58626,-8.72784c11.72034,-38.07828 11.72034,-38.48526 11.72034,-39.15216v-6.84zM105.0282,146.0682l-17.1,17.1c-0.684,0.6498 -1.539,0.9918 -2.4282,0.9918c-0.8892,0 -1.7442,-0.342 -2.4282,-0.9918l-17.1,-17.1c-1.3338,-1.3338 -1.3338,-3.5226 0,-4.8564c1.3338,-1.3338 3.5226,-1.3338 4.8564,0l11.2518,11.286v-25.9578c0,-1.881 1.539,-3.42 3.42,-3.42c1.881,0 3.42,1.539 3.42,3.42v25.9578l11.2518,-11.286c1.3338,-1.3338 3.5226,-1.3338 4.8564,0c1.3338,1.3338 1.3338,3.5226 0,4.8564z"></path></g></g></svg>