<svg version="1.1" xmlns="http://www.w3.org/2000/svg" xmlns:xlink="http://www.w3.org/1999/xlink" viewBox="0 0 171 171"><g fill="none" fill-rule="nonzero" stroke="none" stroke-width="1" stroke-linecap="butt" stroke-linejoin="miter" stroke-miterlimit="10" stroke-dasharray="" stroke-dashoffset="0" font-family="none" font-weight="none" font-size="none" text-anchor="none" style="mix-blend-mode: normal"><path d="M0,171.98863v-171.98863h171.98863v171.98863z" fill="none"></path><g fill="#59bdcb"><path d="M44.46,6.84c-1.89126,0 -3.42,1.53216 -3.42,3.42v150.48c0,1.22436 0.65306,2.35702 1.71668,2.96578c1.06362,0.60876 2.3699,0.60224 3.42668,-0.01336l39.31664,-22.93137l39.31664,22.93137c0.5301,0.31122 1.12828,0.46758 1.72336,0.46758c0.58824,0 1.17664,-0.14984 1.70332,-0.45422c1.06362,-0.60876 1.71668,-1.74142 1.71668,-2.96578v-45.20813c2.22546,0.45949 4.52375,0.70805 6.88008,0.70805c18.81,0 34.2,-15.39 34.2,-34.2c0,-18.81 -15.39,-34.2 -34.2,-34.2c-2.35633,0 -4.65462,0.24188 -6.88008,0.70137v-38.28129c0,-1.88784 -1.52874,-3.42 -3.42,-3.42zM136.84008,54.67992c15.048,0 27.36,12.312 27.36,27.36c0,15.048 -12.312,27.36 -27.36,27.36c-15.048,0 -27.36,-12.312 -27.36,-27.36c0,-15.048 12.312,-27.36 27.36,-27.36zM136.84008,61.86059c-2.052,0 -3.42,1.368 -3.42,3.42v13.33933h-13.33934c-2.052,0 -3.42,1.368 -3.42,3.42c0,2.052 1.368,3.42 3.42,3.42h13.33934v13.33934c0,2.052 1.368,3.42 3.42,3.42c2.052,0 3.42,-1.368 3.42,-3.42v-13.33934h13.33933c2.052,0 3.42,-1.368 3.42,-3.42c0,-2.052 -1.368,-3.42 -3.42,-3.42h-13.33933v-13.33933c0,-2.052 -1.368,-3.42 -3.42,-3.42z"></path></g></g></svg>