<svg version="1.1" xmlns="http://www.w3.org/2000/svg" xmlns:xlink="http://www.w3.org/1999/xlink" viewBox="0 0 171 171"><g fill="none" fill-rule="nonzero" stroke="none" stroke-width="1" stroke-linecap="butt" stroke-linejoin="miter" stroke-miterlimit="10" stroke-dasharray="" stroke-dashoffset="0" font-family="none" font-weight="none" font-size="none" text-anchor="none" style="mix-blend-mode: normal"><path d="M0,171.98863v-171.98863h171.98863v171.98863z" fill="none"></path><g fill="#666666"><path d="M20.52,6.84v157.32h129.96v-157.32zM58.14,119.7h-13.68v-10.26h13.68zM58.14,102.6h-13.68v-13.68h13.68zM58.14,82.08h-13.68v-10.26h13.68zM102.6,88.92v13.68h-37.62v-13.68zM64.98,82.08v-10.26h37.62v10.26zM102.6,109.44v10.26h-37.62v-10.26zM126.54,143.64h-41.04v-6.84h41.04zM126.54,119.7h-17.1v-10.26h17.1zM126.54,102.6h-17.1v-13.68h17.1zM126.54,82.08h-17.1v-10.26h17.1zM126.54,44.46h-82.08v-6.84h82.08z"></path></g></g></svg>