<svg width="101" height="17" viewBox="0 0 101 17" fill="none" xmlns="http://www.w3.org/2000/svg">
<g clip-path="url(#clip0_4_133)">
<path d="M8.89944 0.268878L11.2961 5.64488L17.1489 6.26306C17.5256 6.30288 17.677 6.76969 17.3957 7.023L13.0238 10.9627L14.2448 16.7206C14.3236 17.0912 13.9263 17.3795 13.5982 17.1905L8.5 14.2492L3.40182 17.1901C3.07369 17.3791 2.67688 17.0908 2.75519 16.7202L3.97626 10.9623L-0.395682 7.02257C-0.676995 6.76925 -0.525182 6.30244 -0.148932 6.26263L5.70394 5.64444L8.10057 0.268441C8.25457 -0.0771834 8.74544 -0.0771833 8.89944 0.268878H8.89944Z" fill="url(#paint0_linear_4_133)"/>
</g>
<g clip-path="url(#clip1_4_133)">
<path d="M50.8994 0.268878L53.2961 5.64488L59.1489 6.26306C59.5256 6.30288 59.677 6.76969 59.3957 7.023L55.0238 10.9627L56.2448 16.7206C56.3236 17.0912 55.9263 17.3795 55.5982 17.1905L50.5 14.2492L45.4018 17.1901C45.0737 17.3791 44.6769 17.0908 44.7552 16.7202L45.9763 10.9623L41.6043 7.02257C41.323 6.76925 41.4748 6.30244 41.8511 6.26263L47.7039 5.64444L50.1006 0.268441C50.2546 -0.0771834 50.7454 -0.0771833 50.8994 0.268878H50.8994Z" fill="url(#paint1_linear_4_133)"/>
</g>
<g clip-path="url(#clip2_4_133)">
<path d="M29.8994 0.268878L32.2961 5.64488L38.1489 6.26306C38.5256 6.30288 38.677 6.76969 38.3957 7.023L34.0238 10.9627L35.2448 16.7206C35.3236 17.0912 34.9263 17.3795 34.5982 17.1905L29.5 14.2492L24.4018 17.1901C24.0737 17.3791 23.6769 17.0908 23.7552 16.7202L24.9763 10.9623L20.6043 7.02257C20.323 6.76925 20.4748 6.30244 20.8511 6.26263L26.7039 5.64444L29.1006 0.268441C29.2546 -0.0771834 29.7454 -0.0771833 29.8994 0.268878H29.8994Z" fill="url(#paint2_linear_4_133)"/>
</g>
<g clip-path="url(#clip3_4_133)">
<path d="M71.8994 0.268878L74.2961 5.64488L80.1489 6.26306C80.5256 6.30288 80.677 6.76969 80.3957 7.023L76.0238 10.9627L77.2448 16.7206C77.3236 17.0912 76.9263 17.3795 76.5982 17.1905L71.5 14.2492L66.4018 17.1901C66.0737 17.3791 65.6769 17.0908 65.7552 16.7202L66.9763 10.9623L62.6043 7.02257C62.323 6.76925 62.4748 6.30244 62.8511 6.26263L68.7039 5.64444L71.1006 0.268441C71.2546 -0.0771834 71.7454 -0.0771833 71.8994 0.268878H71.8994Z" fill="url(#paint3_linear_4_133)"/>
</g>
<g clip-path="url(#clip4_4_133)">
<path d="M92.8994 0.268878L95.2961 5.64488L101.149 6.26306C101.526 6.30288 101.677 6.76969 101.396 7.023L97.0238 10.9627L98.2448 16.7206C98.3236 17.0912 97.9263 17.3795 97.5982 17.1905L92.5 14.2492L87.4018 17.1901C87.0737 17.3791 86.6769 17.0908 86.7552 16.7202L87.9763 10.9623L83.6043 7.02257C83.323 6.76925 83.4748 6.30244 83.8511 6.26263L89.7039 5.64444L92.1006 0.268441C92.2546 -0.0771834 92.7454 -0.0771833 92.8994 0.268878H92.8994Z" fill="url(#paint4_linear_4_133)"/>
</g>
<defs>
<linearGradient id="paint0_linear_4_133" x1="1.94144" y1="0.782504" x2="14.6653" y2="17.8039" gradientUnits="userSpaceOnUse">
<stop stop-color="#FFDA1C"/>
<stop offset="1" stop-color="#FEB705"/>
</linearGradient>
<linearGradient id="paint1_linear_4_133" x1="43.9414" y1="0.782504" x2="56.6652" y2="17.8039" gradientUnits="userSpaceOnUse">
<stop stop-color="#FFDA1C"/>
<stop offset="1" stop-color="#FEB705"/>
</linearGradient>
<linearGradient id="paint2_linear_4_133" x1="22.9414" y1="0.782504" x2="35.6652" y2="17.8039" gradientUnits="userSpaceOnUse">
<stop stop-color="#FFDA1C"/>
<stop offset="1" stop-color="#FEB705"/>
</linearGradient>
<linearGradient id="paint3_linear_4_133" x1="64.9414" y1="0.782504" x2="77.6652" y2="17.8039" gradientUnits="userSpaceOnUse">
<stop stop-color="#FFDA1C"/>
<stop offset="1" stop-color="#FEB705"/>
</linearGradient>
<linearGradient id="paint4_linear_4_133" x1="85.9414" y1="0.782504" x2="98.6652" y2="17.8039" gradientUnits="userSpaceOnUse">
<stop stop-color="#FFDA1C"/>
<stop offset="1" stop-color="#FEB705"/>
</linearGradient>
<clipPath id="clip0_4_133">
<rect width="20.2" height="17" fill="white"/>
</clipPath>
<clipPath id="clip1_4_133">
<rect width="20.2" height="17" fill="white" transform="translate(40.4)"/>
</clipPath>
<clipPath id="clip2_4_133">
<rect width="20.2" height="17" fill="white" transform="translate(20.2)"/>
</clipPath>
<clipPath id="clip3_4_133">
<rect width="20.2" height="17" fill="white" transform="translate(60.6)"/>
</clipPath>
<clipPath id="clip4_4_133">
<rect width="20.2" height="17" fill="white" transform="translate(80.8)"/>
</clipPath>
</defs>
</svg>
