<svg version="1.1" xmlns="http://www.w3.org/2000/svg" xmlns:xlink="http://www.w3.org/1999/xlink" viewBox="0 0 171 171"><g fill="none" fill-rule="nonzero" stroke="none" stroke-width="1" stroke-linecap="butt" stroke-linejoin="miter" stroke-miterlimit="10" stroke-dasharray="" stroke-dashoffset="0" font-family="none" font-weight="none" font-size="none" text-anchor="none" style="mix-blend-mode: normal"><path d="M0,171.98863v-171.98863h171.98863v171.98863z" fill="none"></path><g fill="#666666"><path d="M23.29875,0c-1.62984,0.30727 -2.80547,1.75008 -2.77875,3.42v164.16c0,1.88367 1.53633,3.42 3.42,3.42h123.12c1.88367,0 3.42,-1.53633 3.42,-3.42v-164.16c0,-1.88367 -1.53633,-3.42 -3.42,-3.42h-123.12c-0.10687,0 -0.21375,0 -0.32062,0c-0.10687,0 -0.21375,0 -0.32062,0zM27.36,6.84h116.28v157.32h-6.84v-147.06c0,-1.88367 -1.53633,-3.42 -3.42,-3.42h-95.76c-0.10687,0 -0.21375,0 -0.32062,0c-1.76344,0.16031 -3.11273,1.6432 -3.09937,3.42v147.06h-6.84zM41.04,20.52h88.92v143.64h-88.92zM109.44,82.08c-3.7807,0 -6.84,3.0593 -6.84,6.84c0,3.7807 3.0593,6.84 6.84,6.84c3.7807,0 6.84,-3.0593 6.84,-6.84c0,-3.7807 -3.0593,-6.84 -6.84,-6.84z"></path></g></g></svg>