<svg version="1.1" xmlns="http://www.w3.org/2000/svg" xmlns:xlink="http://www.w3.org/1999/xlink" viewBox="0 0 171 171"><g fill="none" fill-rule="nonzero" stroke="none" stroke-width="1" stroke-linecap="butt" stroke-linejoin="miter" stroke-miterlimit="10" stroke-dasharray="" stroke-dashoffset="0" font-family="none" font-weight="none" font-size="none" text-anchor="none" style="mix-blend-mode: normal"><path d="M0,171.98863v-171.98863h171.98863v171.98863z" fill="none"></path><g fill="#666666"><path d="M112.86,0.32063c-2.52492,0 -5.03648,0.97523 -6.84,2.77875l-18.3825,18.16875l4.7025,4.7025c1.33594,1.33594 1.33594,3.47344 0,4.80938c-0.66797,0.66797 -1.46953,1.06875 -2.35125,1.06875c-0.88172,0 -1.79015,-0.40078 -2.45812,-1.06875l-4.7025,-4.7025l-80.15625,79.62188c-1.80352,1.80352 -2.77875,4.2082 -2.77875,6.84c0,2.6318 0.97523,5.02313 2.77875,6.84l10.6875,10.58063c1.22906,1.22906 3.1261,1.4161 4.48875,0.32062c3.24633,-2.61844 7.05375,-4.06125 10.58063,-4.06125c8.87062,0 16.03125,7.16062 16.03125,16.03125c0,3.88758 -1.42945,7.57477 -3.95437,10.36688c-1.2157,1.3493 -1.06875,3.42 0.21375,4.7025l10.58062,10.58062c1.80352,1.79016 4.22156,2.88563 6.84,2.88563c2.61844,0 5.03648,-1.09547 6.84,-2.88563l30.99375,-30.99375c1.79016,19.09055 17.86148,34.09313 37.40625,34.09313c20.73375,0 37.62,-16.88625 37.62,-37.62c0,-19.54477 -15.00258,-35.61609 -34.09313,-37.40625l7.90875,-7.90875l-4.59562,-4.59562c-1.33594,-1.33594 -1.33594,-3.47344 0,-4.80938c1.33594,-1.33594 3.47344,-1.33594 4.80937,0l4.59563,4.59562l18.16875,-18.06187c1.88367,-1.50961 3.03258,-3.74062 3.20625,-6.19875c0.20039,-2.72531 -0.74813,-5.45062 -2.67187,-7.37437l-10.6875,-10.58062c-1.22906,-1.24242 -3.13945,-1.40273 -4.48875,-0.32062c-3.0593,2.45813 -6.46594,3.74063 -10.15312,3.74063c-8.87062,0 -16.13813,-7.16063 -16.13813,-16.03125c0,-3.68719 1.2825,-7.2007 3.74062,-10.26c1.08211,-1.36265 0.90844,-3.25969 -0.32063,-4.48875l-10.58062,-10.58062c-1.80352,-1.80352 -4.31508,-2.77875 -6.84,-2.77875zM99.50063,34.52063c0.86836,0 1.79016,0.40078 2.45812,1.06875l4.80938,4.80938c1.33594,1.33594 1.33594,3.47344 0,4.80938c-0.66797,0.66797 -1.5764,0.96187 -2.45812,0.96187c-0.88172,0 -1.68328,-0.2939 -2.35125,-0.96187l-4.80938,-4.80938c-1.33594,-1.33594 -1.33594,-3.47344 0,-4.80938c0.66797,-0.66797 1.48289,-1.06875 2.35125,-1.06875zM113.92875,48.94875c0.86836,0 1.79016,0.29391 2.45813,0.96187l4.80937,4.80938c1.33594,1.33594 1.33594,3.58031 0,4.91625c-0.66797,0.66797 -1.5764,0.96187 -2.45812,0.96187c-0.88172,0 -1.79015,-0.2939 -2.45812,-0.96187l-4.80938,-4.80937c-1.33594,-1.33594 -1.33594,-3.58031 0,-4.91625c0.66797,-0.66797 1.58977,-0.96187 2.45812,-0.96187zM128.35688,63.37688c0.86836,0 1.68328,0.29391 2.35125,0.96188l4.80937,4.80937c1.33594,1.33594 1.33594,3.47344 0,4.80938c-0.66797,0.66797 -1.46953,1.06875 -2.35125,1.06875c-0.88172,0 -1.79015,-0.40078 -2.45812,-1.06875l-4.80938,-4.80938c-1.33594,-1.33594 -1.33594,-3.47344 0,-4.80937c0.66797,-0.66797 1.58977,-0.96188 2.45813,-0.96188zM133.38,102.6c17.0332,0 30.78,13.7468 30.78,30.78c0,17.0332 -13.7468,30.78 -30.78,30.78c-17.0332,0 -30.78,-13.7468 -30.78,-30.78c0,-17.0332 13.7468,-30.78 30.78,-30.78zM133.05937,112.75313c-0.14695,0.02672 -0.2939,0.0668 -0.4275,0.10688c-1.58977,0.3607 -2.71195,1.79016 -2.67187,3.42v13.68h-13.68c-0.10688,0 -0.21375,0 -0.32063,0c-1.88367,0.09352 -3.3532,1.69664 -3.25969,3.58031c0.09352,1.88367 1.69664,3.3532 3.58031,3.25969h13.68v13.68c-0.01336,1.22906 0.62789,2.37797 1.69664,3.00586c1.06875,0.61453 2.37797,0.61453 3.44672,0c1.06875,-0.62789 1.71,-1.7768 1.69664,-3.00586v-13.68h13.68c1.22906,0.01336 2.37797,-0.62789 3.00586,-1.69664c0.61453,-1.06875 0.61453,-2.37797 0,-3.44672c-0.62789,-1.06875 -1.7768,-1.71 -3.00586,-1.69664h-13.68v-13.68c0.04008,-0.98859 -0.3607,-1.93711 -1.06875,-2.60508c-0.7214,-0.68133 -1.69664,-1.01531 -2.67187,-0.9218z"></path></g></g></svg>