<svg version="1.1" xmlns="http://www.w3.org/2000/svg" xmlns:xlink="http://www.w3.org/1999/xlink" viewBox="0 0 171 171"><g fill="none" fill-rule="nonzero" stroke="none" stroke-width="1" stroke-linecap="butt" stroke-linejoin="miter" stroke-miterlimit="10" stroke-dasharray="" stroke-dashoffset="0" font-family="none" font-weight="none" font-size="none" text-anchor="none" style="mix-blend-mode: normal"><path d="M0,171.98863v-171.98863h171.98863v171.98863z" fill="none"></path><g fill="#2ecc71"><path d="M143.42625,29.4975c-2.27109,0.08016 -4.35515,1.2825 -5.5575,3.20625l-64.33875,98.43188l-41.68125,-36.01688c-1.79015,-1.85695 -4.47539,-2.55164 -6.94687,-1.7768c-2.45813,0.76148 -4.28836,2.84555 -4.71586,5.38383c-0.4275,2.55164 0.60117,5.11664 2.68523,6.65297l47.66625,41.25375c1.49625,1.26914 3.47344,1.83023 5.41055,1.54969c1.95047,-0.2939 3.67383,-1.40273 4.74258,-3.04594l68.72063,-104.95125c1.46953,-2.15086 1.58977,-4.92961 0.32063,-7.2007c-1.26914,-2.25773 -3.7139,-3.60703 -6.30562,-3.4868z"></path></g></g></svg>