<svg version="1.1" xmlns="http://www.w3.org/2000/svg" xmlns:xlink="http://www.w3.org/1999/xlink" viewBox="0 0 171 171"><g fill="none" fill-rule="nonzero" stroke="none" stroke-width="1" stroke-linecap="butt" stroke-linejoin="miter" stroke-miterlimit="10" stroke-dasharray="" stroke-dashoffset="0" font-family="none" font-weight="none" font-size="none" text-anchor="none" style="mix-blend-mode: normal"><path d="M0,171.98863v-171.98863h171.98863v171.98863z" fill="none"></path><g fill="#666666"><path d="M85.5,6.84c-43.40224,0 -78.66,35.2578 -78.66,78.66c0,43.4022 35.25776,78.66 78.66,78.66c43.40224,0 78.66,-35.2578 78.66,-78.66c0,-43.4022 -35.25776,-78.66 -78.66,-78.66zM85.5,13.68c39.70563,0 71.82,32.1144 71.82,71.82c0,39.7056 -32.11437,71.82 -71.82,71.82c-39.70563,0 -71.82,-32.1144 -71.82,-71.82c0,-39.7056 32.11437,-71.82 71.82,-71.82zM68.4,54.72c-14.14867,0 -23.94,11.77591 -23.94,25.30934c0,11.571 9.22138,22.02088 18.06188,30.24562c4.42025,4.11237 8.85986,7.63211 12.2973,10.23328c1.71872,1.30058 3.18567,2.37231 4.26164,3.15949c1.07597,0.78718 2.10139,1.68058 1.6098,1.18898l0.10688,0.10687l4.36184,3.63375l4.18816,-3.49348l0.0334,-0.02004l0.02004,-0.02004c-0.14713,0.12196 0.72397,-0.50239 1.80352,-1.25578c1.11234,-0.77627 2.6125,-1.83686 4.36851,-3.13277c3.51204,-2.59183 8.03661,-6.1193 12.54445,-10.25332c9.01543,-8.26777 18.42258,-18.78086 18.42258,-30.39258c0,-13.53343 -9.79133,-25.30934 -23.94,-25.30934c-9.15552,0 -14.30221,5.21305 -17.1,8.60344c-2.79779,-3.39038 -7.94448,-8.60344 -17.1,-8.60344zM68.4,61.56c7.98,0 14.25445,8.73703 14.25445,8.73703l2.84555,4.26832l2.84555,-4.26832c0,0 6.27446,-8.73703 14.25445,-8.73703c10.47533,0 17.1,8.06276 17.1,18.46934c0,7.54029 -7.69311,17.54346 -16.20492,25.34941c-4.25591,3.90298 -8.60196,7.297 -11.98336,9.79242c-1.69069,1.24771 -3.14296,2.27519 -4.22824,3.03258c-1.03921,0.72524 -1.5093,1.01741 -2.11746,1.49625l0.12691,0.10687l0.23379,0.21375c-0.14795,-0.14795 -0.26136,-0.18629 -0.38742,-0.30059c-0.01915,0.01505 -0.0473,0.03113 -0.0668,0.04676l0.06012,-0.05344c-0.65309,-0.59079 -1.10421,-0.89994 -2.01058,-1.56305c-1.08424,-0.79323 -2.51094,-1.83362 -4.17481,-3.0927c-3.32774,-2.51815 -7.59043,-5.90386 -11.76293,-9.78574c-8.345,-7.76376 -15.8843,-17.66154 -15.8843,-25.24254c0,-10.40657 6.62467,-18.46934 17.1,-18.46934z"></path></g></g></svg>