<svg width="101" height="17" viewBox="0 0 101 17" fill="none" xmlns="http://www.w3.org/2000/svg">
<g clip-path="url(#clip0_5_376)">
<path d="M8.84311 0.257145L11.2273 5.60536L17.05 6.22035C17.4247 6.25996 17.5753 6.72436 17.2954 6.97636L12.9461 10.8957L14.1609 16.6239C14.2392 16.9925 13.844 17.2793 13.5176 17.0913L8.44573 14.1652L3.37389 17.0909C3.04747 17.2789 2.6527 16.9921 2.73061 16.6234L3.94536 10.8953L-0.403978 6.97593C-0.683837 6.72392 -0.532809 6.25952 -0.158503 6.21992L5.66412 5.60493L8.04836 0.25671C8.20157 -0.0871278 8.6899 -0.0871277 8.84311 0.257145H8.84311Z" fill="url(#paint0_linear_5_376)"/>
</g>
<g clip-path="url(#clip1_5_376)">
<path d="M92.5543 3.6581L93.8165 6.22601L94.2082 7.05296L95.1222 7.18354L97.9512 7.57525L95.9056 9.57735L95.2527 10.2302L95.4268 11.1442L95.9056 13.9733L93.3812 12.624L92.5543 12.1888L91.7273 12.624L89.2029 13.9733L89.6817 11.1442L89.8558 10.2302L89.2029 9.57735L87.1573 7.57525L89.9864 7.18354L90.9004 7.05296L91.2921 6.22601L92.5543 3.6581M92.5543 -0.259048L89.7252 5.4861L83.4142 6.40011L87.9843 10.8395L86.8962 17.1505L92.5543 14.1909L98.2124 17.1505L97.1243 10.8395L101.694 6.40011L95.3833 5.4861L92.5543 -0.259048V-0.259048Z" fill="#FFCA28"/>
</g>
<g clip-path="url(#clip2_5_376)">
<path d="M72.2054 3.6581L73.4676 6.22601L73.8593 7.05296L74.7733 7.18354L77.6024 7.57525L75.5568 9.57735L74.9039 10.2302L75.078 11.1442L75.5568 13.9733L73.0324 12.624L72.2054 12.1888L71.3785 12.624L68.8541 13.9733L69.3328 11.1442L69.5069 10.2302L68.8541 9.57735L66.8085 7.57525L69.6375 7.18354L70.5515 7.05296L70.9432 6.22601L72.2054 3.6581M72.2054 -0.259048L69.3764 5.4861L63.0654 6.40011L67.6354 10.8395L66.5473 17.1505L72.2054 14.1909L77.8635 17.1505L76.7754 10.8395L81.3454 6.40011L75.0345 5.4861L72.2054 -0.259048V-0.259048Z" fill="#FFCA28"/>
</g>
<g clip-path="url(#clip3_5_376)">
<path d="M51.8566 3.6581L53.1188 6.22601L53.5105 7.05296L54.4245 7.18354L57.2535 7.57525L55.2079 9.57735L54.5551 10.2302L54.7291 11.1442L55.2079 13.9733L52.6835 12.624L51.8566 12.1888L51.0296 12.624L48.5052 13.9733L48.984 11.1442L49.1581 10.2302L48.5052 9.57735L46.4596 7.57525L49.2887 7.18354L50.2027 7.05296L50.5944 6.22601L51.8566 3.6581M51.8566 -0.259048L49.0275 5.4861L42.7166 6.40011L47.2866 10.8395L46.1985 17.1505L51.8566 14.1909L57.5147 17.1505L56.4266 10.8395L60.9966 6.40011L54.6856 5.4861L51.8566 -0.259048V-0.259048Z" fill="#FFCA28"/>
</g>
<g clip-path="url(#clip4_5_376)">
<path d="M31.5077 3.6581L32.7699 6.22601L33.1616 7.05296L34.0756 7.18354L36.9047 7.57525L34.8591 9.57735L34.2062 10.2302L34.3803 11.1442L34.8591 13.9733L32.3347 12.624L31.5077 12.1888L30.6808 12.624L28.1564 13.9733L28.6352 11.1442L28.8093 10.2302L28.1564 9.57735L26.1108 7.57525L28.9398 7.18354L29.8538 7.05296L30.2455 6.22601L31.5077 3.6581M31.5077 -0.259048L28.6787 5.4861L22.3677 6.40011L26.9377 10.8395L25.8496 17.1505L31.5077 14.1909L37.1658 17.1505L36.0777 10.8395L40.6478 6.40011L34.3368 5.4861L31.5077 -0.259048V-0.259048Z" fill="#FFCA28"/>
</g>
<defs>
<linearGradient id="paint0_linear_5_376" x1="1.92107" y1="0.768117" x2="14.5791" y2="17.7015" gradientUnits="userSpaceOnUse">
<stop stop-color="#FFDA1C"/>
<stop offset="1" stop-color="#FEB705"/>
</linearGradient>
<clipPath id="clip0_5_376">
<rect width="20.0956" height="17" fill="white"/>
</clipPath>
<clipPath id="clip1_5_376">
<rect width="20.0956" height="17" fill="white" transform="translate(80.9044)"/>
</clipPath>
<clipPath id="clip2_5_376">
<rect width="20.0956" height="17" fill="white" transform="translate(61.3307)"/>
</clipPath>
<clipPath id="clip3_5_376">
<rect width="20.0956" height="17" fill="white" transform="translate(41.7571)"/>
</clipPath>
<clipPath id="clip4_5_376">
<rect width="20.0956" height="17" fill="white" transform="translate(22.1834)"/>
</clipPath>
</defs>
</svg>
