<svg version="1.1" xmlns="http://www.w3.org/2000/svg" xmlns:xlink="http://www.w3.org/1999/xlink" viewBox="0 0 171 171"><g fill="none" fill-rule="nonzero" stroke="none" stroke-width="1" stroke-linecap="butt" stroke-linejoin="miter" stroke-miterlimit="10" stroke-dasharray="" stroke-dashoffset="0" font-family="none" font-weight="none" font-size="none" text-anchor="none" style="mix-blend-mode: normal"><path d="M0,171.98863v-171.98863h171.98863v171.98863z" fill="none"></path><g fill="#59bdcb"><path d="M85.5,6.84c-43.37586,0 -78.66,35.28756 -78.66,78.66c0,43.37244 35.28414,78.66 78.66,78.66c43.37586,0 78.66,-35.28756 78.66,-78.66c0,-43.37244 -35.28414,-78.66 -78.66,-78.66zM87.21,122.436l-2.052,1.71l-2.052,-1.71c-1.71,-1.71 -35.226,-23.256 -35.226,-42.408c0,-11.97 8.208,-21.888 20.52,-21.888c10.26,0 17.1,10.26 17.1,10.26c0,0 6.84,-10.26 17.1,-10.26c12.312,0 20.52,9.918 20.52,21.888c0,19.152 -34.2,41.04 -35.91,42.408z"></path></g></g></svg>