<svg width="101" height="17" viewBox="0 0 101 17" fill="none" xmlns="http://www.w3.org/2000/svg">
<g clip-path="url(#clip0_5_350)">
<path d="M8.84311 0.257161L11.2273 5.60538L17.05 6.22037C17.4247 6.25998 17.5753 6.72438 17.2954 6.97638L12.9461 10.8957L14.1609 16.6239C14.2392 16.9925 13.844 17.2794 13.5176 17.0913L8.44573 14.1652L3.37389 17.0909C3.04747 17.2789 2.6527 16.9921 2.73061 16.6235L3.94536 10.8953L-0.403978 6.97594C-0.683837 6.72394 -0.532809 6.25954 -0.158503 6.21993L5.66412 5.60494L8.04836 0.256726C8.20157 -0.0871126 8.68991 -0.0871124 8.84311 0.257161H8.84311Z" fill="url(#paint0_linear_5_350)"/>
</g>
<g clip-path="url(#clip1_5_350)">
<path d="M50.6261 0.257161L53.0103 5.60538L58.8329 6.22037C59.2077 6.25998 59.3583 6.72438 59.0784 6.97638L54.7291 10.8957L55.9438 16.6239C56.0221 16.9925 55.627 17.2794 55.3005 17.0913L50.2287 14.1652L45.1568 17.0909C44.8304 17.2789 44.4357 16.9921 44.5136 16.6235L45.7283 10.8953L41.379 6.97594C41.0991 6.72394 41.2501 6.25954 41.6244 6.21993L47.4471 5.60494L49.8313 0.256726C49.9845 -0.0871126 50.4729 -0.0871124 50.6261 0.257161H50.6261Z" fill="url(#paint1_linear_5_350)"/>
</g>
<g clip-path="url(#clip2_5_350)">
<path d="M29.7346 0.257161L32.1188 5.60538L37.9414 6.22037C38.3162 6.25998 38.4668 6.72438 38.1869 6.97638L33.8376 10.8957L35.0523 16.6239C35.1307 16.9925 34.7355 17.2794 34.409 17.0913L29.3372 14.1652L24.2654 17.0909C23.9389 17.2789 23.5442 16.9921 23.6221 16.6235L24.8368 10.8953L20.4875 6.97594C20.2076 6.72394 20.3587 6.25954 20.733 6.21993L26.5556 5.60494L28.9398 0.256726C29.093 -0.0871126 29.5814 -0.0871124 29.7346 0.257161H29.7346Z" fill="url(#paint2_linear_5_350)"/>
</g>
<g clip-path="url(#clip3_5_350)">
<path d="M71.5175 0.257161L73.9018 5.60538L79.7244 6.22037C80.0991 6.25998 80.2497 6.72438 79.9699 6.97638L75.6205 10.8957L76.8353 16.6239C76.9136 16.9925 76.5184 17.2794 76.192 17.0913L71.1202 14.1652L66.0483 17.0909C65.7219 17.2789 65.3271 16.9921 65.405 16.6235L66.6198 10.8953L62.2704 6.97594C61.9906 6.72394 62.1416 6.25954 62.5159 6.21993L68.3385 5.60494L70.7228 0.256726C70.876 -0.0871126 71.3643 -0.0871124 71.5175 0.257161H71.5175Z" fill="url(#paint3_linear_5_350)"/>
</g>
<g clip-path="url(#clip4_5_350)">
<path d="M92.5543 3.65812L93.8165 6.22603L94.2082 7.05298L95.1222 7.18355L97.9512 7.57527L95.9056 9.57737L95.2527 10.2302L95.4268 11.1442L95.9056 13.9733L93.3812 12.624L92.5543 12.1888L91.7273 12.624L89.2029 13.9733L89.6817 11.1442L89.8558 10.2302L89.2029 9.57737L87.1573 7.57527L89.9864 7.18355L90.9004 7.05298L91.2921 6.22603L92.5543 3.65812M92.5543 -0.259033L89.7252 5.48612L83.4142 6.40012L87.9843 10.8396L86.8962 17.1505L92.5543 14.1909L98.2124 17.1505L97.1243 10.8396L101.694 6.40012L95.3833 5.48612L92.5543 -0.259033V-0.259033Z" fill="#FFCA28"/>
</g>
<defs>
<linearGradient id="paint0_linear_5_350" x1="1.92107" y1="0.768132" x2="14.5791" y2="17.7015" gradientUnits="userSpaceOnUse">
<stop stop-color="#FFDA1C"/>
<stop offset="1" stop-color="#FEB705"/>
</linearGradient>
<linearGradient id="paint1_linear_5_350" x1="43.704" y1="0.768132" x2="56.3621" y2="17.7015" gradientUnits="userSpaceOnUse">
<stop stop-color="#FFDA1C"/>
<stop offset="1" stop-color="#FEB705"/>
</linearGradient>
<linearGradient id="paint2_linear_5_350" x1="22.8125" y1="0.768132" x2="35.4706" y2="17.7015" gradientUnits="userSpaceOnUse">
<stop stop-color="#FFDA1C"/>
<stop offset="1" stop-color="#FEB705"/>
</linearGradient>
<linearGradient id="paint3_linear_5_350" x1="64.5955" y1="0.768132" x2="77.2535" y2="17.7015" gradientUnits="userSpaceOnUse">
<stop stop-color="#FFDA1C"/>
<stop offset="1" stop-color="#FEB705"/>
</linearGradient>
<clipPath id="clip0_5_350">
<rect width="20.0956" height="17" fill="white"/>
</clipPath>
<clipPath id="clip1_5_350">
<rect width="20.0956" height="17" fill="white" transform="translate(40.1912)"/>
</clipPath>
<clipPath id="clip2_5_350">
<rect width="20.0956" height="17" fill="white" transform="translate(20.0956)"/>
</clipPath>
<clipPath id="clip3_5_350">
<rect width="20.0956" height="17" fill="white" transform="translate(60.2868)"/>
</clipPath>
<clipPath id="clip4_5_350">
<rect width="20.0956" height="17" fill="white" transform="translate(80.9044)"/>
</clipPath>
</defs>
</svg>
