<svg width="101" height="18" viewBox="0 0 101 18" fill="none" xmlns="http://www.w3.org/2000/svg">
<g clip-path="url(#clip0_4_278)">
<path d="M8.84311 0.257145L11.2273 5.60536L17.05 6.22035C17.4247 6.25996 17.5753 6.72436 17.2954 6.97636L12.9461 10.8957L14.1609 16.6239C14.2392 16.9925 13.844 17.2793 13.5176 17.0913L8.44574 14.1652L3.3739 17.0909C3.04747 17.2789 2.6527 16.9921 2.73061 16.6234L3.94537 10.8953L-0.403978 6.97593C-0.683837 6.72393 -0.532809 6.25953 -0.158503 6.21992L5.66412 5.60493L8.04836 0.25671C8.20157 -0.0871278 8.68991 -0.0871277 8.84311 0.257145H8.84311Z" fill="url(#paint0_linear_4_278)"/>
</g>
<g clip-path="url(#clip1_4_278)">
<path d="M29.7346 0.257145L32.1188 5.60536L37.9414 6.22035C38.3162 6.25996 38.4668 6.72436 38.1869 6.97636L33.8376 10.8957L35.0523 16.6239C35.1307 16.9925 34.7355 17.2793 34.409 17.0913L29.3372 14.1652L24.2654 17.0909C23.9389 17.2789 23.5442 16.9921 23.6221 16.6234L24.8368 10.8953L20.4875 6.97593C20.2076 6.72393 20.3587 6.25953 20.733 6.21992L26.5556 5.60493L28.9398 0.25671C29.093 -0.0871278 29.5814 -0.0871277 29.7346 0.257145H29.7346Z" fill="url(#paint1_linear_4_278)"/>
</g>
<g clip-path="url(#clip2_4_278)">
<path d="M92.5543 3.6581L93.8165 6.22601L94.2082 7.05297L95.1222 7.18354L97.9512 7.57525L95.9056 9.57735L95.2527 10.2302L95.4268 11.1442L95.9056 13.9733L93.3812 12.624L92.5543 12.1888L91.7273 12.624L89.2029 13.9733L89.6817 11.1442L89.8558 10.2302L89.2029 9.57735L87.1573 7.57525L89.9864 7.18354L90.9004 7.05297L91.2921 6.22601L92.5543 3.6581M92.5543 -0.259048L89.7252 5.48611L83.4142 6.40011L87.9843 10.8395L86.8962 17.1505L92.5543 14.1909L98.2124 17.1505L97.1243 10.8395L101.694 6.40011L95.3833 5.48611L92.5543 -0.259048V-0.259048Z" fill="#FFCA28"/>
</g>
<g clip-path="url(#clip3_4_278)">
<path d="M72.2054 3.6581L73.4676 6.22601L73.8593 7.05297L74.7733 7.18354L77.6024 7.57525L75.5568 9.57735L74.9039 10.2302L75.078 11.1442L75.5568 13.9733L73.0324 12.624L72.2054 12.1888L71.3785 12.624L68.8541 13.9733L69.3328 11.1442L69.5069 10.2302L68.8541 9.57735L66.8085 7.57525L69.6375 7.18354L70.5515 7.05297L70.9432 6.22601L72.2054 3.6581M72.2054 -0.259048L69.3764 5.48611L63.0654 6.40011L67.6354 10.8395L66.5473 17.1505L72.2054 14.1909L77.8635 17.1505L76.7754 10.8395L81.3454 6.40011L75.0345 5.48611L72.2054 -0.259048V-0.259048Z" fill="#FFCA28"/>
</g>
<g clip-path="url(#clip4_4_278)">
<path d="M51.8566 3.6581L53.1188 6.22601L53.5105 7.05297L54.4245 7.18354L57.2535 7.57525L55.2079 9.57735L54.5551 10.2302L54.7292 11.1442L55.2079 13.9733L52.6835 12.624L51.8566 12.1888L51.0296 12.624L48.5052 13.9733L48.984 11.1442L49.1581 10.2302L48.5052 9.57735L46.4596 7.57525L49.2887 7.18354L50.2027 7.05297L50.5944 6.22601L51.8566 3.6581M51.8566 -0.259048L49.0275 5.48611L42.7166 6.40011L47.2866 10.8395L46.1985 17.1505L51.8566 14.1909L57.5147 17.1505L56.4266 10.8395L60.9966 6.40011L54.6856 5.48611L51.8566 -0.259048V-0.259048Z" fill="#FFCA28"/>
</g>
<defs>
<linearGradient id="paint0_linear_4_278" x1="1.92107" y1="0.768117" x2="14.5791" y2="17.7015" gradientUnits="userSpaceOnUse">
<stop stop-color="#FFDA1C"/>
<stop offset="1" stop-color="#FEB705"/>
</linearGradient>
<linearGradient id="paint1_linear_4_278" x1="22.8125" y1="0.768117" x2="35.4706" y2="17.7015" gradientUnits="userSpaceOnUse">
<stop stop-color="#FFDA1C"/>
<stop offset="1" stop-color="#FEB705"/>
</linearGradient>
<clipPath id="clip0_4_278">
<rect width="20.0956" height="18" fill="white"/>
</clipPath>
<clipPath id="clip1_4_278">
<rect width="20.0956" height="18" fill="white" transform="translate(20.0956)"/>
</clipPath>
<clipPath id="clip2_4_278">
<rect width="20.0956" height="18" fill="white" transform="translate(80.9044)"/>
</clipPath>
<clipPath id="clip3_4_278">
<rect width="20.0956" height="18" fill="white" transform="translate(61.3307)"/>
</clipPath>
<clipPath id="clip4_4_278">
<rect width="20.0956" height="18" fill="white" transform="translate(41.7571)"/>
</clipPath>
</defs>
</svg>
