<svg version="1.1" xmlns="http://www.w3.org/2000/svg" xmlns:xlink="http://www.w3.org/1999/xlink" viewBox="0 0 171 171"><g fill="none" fill-rule="nonzero" stroke="none" stroke-width="1" stroke-linecap="butt" stroke-linejoin="miter" stroke-miterlimit="10" stroke-dasharray="" stroke-dashoffset="0" font-family="none" font-weight="none" font-size="none" text-anchor="none" style="mix-blend-mode: normal"><path d="M0,171.98863v-171.98863h171.98863v171.98863z" fill="none"></path><g fill="#666666"><path d="M85.5,6.84c-43.40461,0 -78.66,35.25539 -78.66,78.66c0,43.40461 35.25539,78.66 78.66,78.66c43.40461,0 78.66,-35.25539 78.66,-78.66c0,-43.40461 -35.25539,-78.66 -78.66,-78.66zM85.5,13.68c39.70406,0 71.82,32.11594 71.82,71.82c0,39.70406 -32.11594,71.82 -71.82,71.82c-39.70406,0 -71.82,-32.11594 -71.82,-71.82c0,-39.70406 32.11594,-71.82 71.82,-71.82zM88.27875,33.7725c-1.29586,0.20039 -2.36461,1.12219 -2.75203,2.36461c-0.38742,1.25578 -0.02672,2.61844 0.93515,3.51352l1.17563,1.17563c-10.26,11.99672 -13.13227,27.74742 -13.57313,30.3525l-15.39,6.94688l-0.21375,-0.21375c-0.80156,-0.81492 -1.96383,-1.18898 -3.09938,-0.96187c-1.2825,0.22711 -2.31117,1.16227 -2.67187,2.40469c-0.3607,1.25578 0.01336,2.59172 0.96187,3.47344l14.85562,14.85563l-27.46687,27.46687l4.80938,4.80938l27.46687,-27.46688l14.85563,14.85563c1.32258,1.36266 3.50016,1.37602 4.86281,0.05344c1.36266,-1.32258 1.37602,-3.50015 0.05344,-4.86281l-0.21375,-0.21375l6.94687,-15.39c2.60508,-0.44086 18.35578,-3.31312 30.3525,-13.57313l1.17563,1.17562c1.36266,1.32258 3.54023,1.30922 4.86281,-0.05344c1.32258,-1.36265 1.30922,-3.54023 -0.05344,-4.86281l-2.9925,-2.88563c-0.12023,-0.18703 -0.26719,-0.37406 -0.4275,-0.53437l-37.94063,-37.94063c-0.16031,-0.16031 -0.34734,-0.30727 -0.53437,-0.4275l-2.88563,-2.9925c-0.64125,-0.68133 -1.52297,-1.05539 -2.45812,-1.06875c-0.21375,-0.02672 -0.4275,-0.02672 -0.64125,0zM92.7675,45.95625l32.27625,32.27625c-11.12836,8.99086 -28.10812,12.3975 -28.10812,12.3975c-1.1489,0.20039 -2.11078,0.96188 -2.565,2.03063l-6.51938,14.21438l-23.72625,-23.72625l14.21438,-6.51937c1.06875,-0.45422 1.83023,-1.41609 2.03063,-2.565c0,0 3.40664,-16.97977 12.3975,-28.10812z"></path></g></g></svg>