<svg width="171" height="171" viewBox="0 0 171 171" fill="none" xmlns="http://www.w3.org/2000/svg">
<path fill-rule="evenodd" clip-rule="evenodd" d="M53.5994 10.05H34.1684C29.2724 9.75231 24.6387 12.8435 23.1798 17.7467L13.451 50.4436C11.7513 56.1558 15.0042 62.1644 20.7164 63.864C26.4287 65.5637 32.4372 62.3108 34.1369 56.5986L34.3692 55.8178C35.1899 59.5188 37.9398 62.676 41.8309 63.8338C47.5432 65.5334 53.5517 62.2806 55.2514 56.5683L55.6613 55.1905C56.297 59.1585 59.1335 62.6111 63.2428 63.8338C68.5119 65.4016 74.0331 62.7555 76.192 57.8522C77.458 62.4048 81.6337 65.7458 86.5897 65.7458C91.7827 65.7458 96.119 62.0776 97.1488 57.1909L97.229 57.4604C98.9286 63.1727 104.937 66.4256 110.649 64.7259C114.354 63.6236 117.024 60.709 117.98 57.2383L118.046 57.4604C119.746 63.1727 125.754 66.4256 131.466 64.7259C135.337 63.5742 138.079 60.4441 138.915 56.7683C140.682 62.375 146.628 65.5467 152.284 63.8639C157.996 62.1643 161.249 56.1558 159.549 50.4435L149.82 17.7466C148.361 12.8429 143.727 9.75156 138.83 10.05H86.5897H77.0783C76.3828 9.98259 75.691 9.98409 75.0112 10.05H55.6665C54.9709 9.98259 54.2791 9.98409 53.5994 10.05ZM24.0533 74.717V147.74H20.9307C16.9068 147.74 13.6448 151.002 13.6448 155.026C13.6448 159.05 16.9068 162.312 20.9307 162.312H151.781C155.805 162.312 159.067 159.05 159.067 155.026C159.067 151.002 155.805 147.74 151.781 147.74H148.658V74.7692C143.95 74.9007 139.551 71.915 138.073 67.2268C137.236 70.9026 134.495 74.0327 130.624 75.1844C129.018 75.6623 127.389 75.7486 125.838 75.499C126.175 76.8757 126.354 78.3146 126.354 79.7952V116.06C126.354 126.001 118.295 134.06 108.354 134.06H100V120.143L105.708 129.727C107.059 131.994 109.992 132.738 112.26 131.387C114.527 130.036 115.27 127.104 113.92 124.836L99.9537 101.389C99.6597 99.47 98.0015 98 96 98H77C75.6857 98 74.5195 98.6338 73.7903 99.6125C73.4535 99.9206 73.1555 100.283 72.9099 100.695L58.5301 124.836C57.1795 127.103 57.9227 130.036 60.1901 131.387C62.4575 132.738 65.3905 131.994 66.7411 129.727L73 119.22V134.06H64.3573C54.4161 134.06 46.3573 126.001 46.3573 116.06V79.7952C46.3573 77.8677 46.6602 76.011 47.2211 74.2701C45.2588 74.8719 43.1034 74.9215 40.9886 74.2923C37.0976 73.1345 34.3477 69.9774 33.5269 66.2765L33.2947 67.0569C32.011 71.3714 28.269 74.2829 24.0533 74.717ZM86.3557 71.6089C79.8681 71.6089 74.6089 76.8681 74.6089 83.3557C74.6089 89.8432 79.8681 95.1024 86.3557 95.1024C92.8432 95.1024 98.1024 89.8432 98.1024 83.3557C98.1024 76.8681 92.8432 71.6089 86.3557 71.6089Z" fill="#59BDCB"/>
</svg>
