<svg width="312" height="227" viewBox="0 0 312 227" fill="none" xmlns="http://www.w3.org/2000/svg">
<path d="M203.996 159.662C200.658 159.674 197.351 159.024 194.265 157.748C191.179 156.471 188.377 154.595 186.019 152.228L160.051 126.194C159.132 125.314 157.911 124.823 156.64 124.823C155.369 124.823 154.147 125.314 153.228 126.194L127.173 152.299C124.816 154.67 122.014 156.55 118.929 157.83C115.843 159.11 112.535 159.764 109.195 159.756H104.111L137.017 192.724C141.952 197.658 148.639 200.429 155.611 200.429C162.583 200.429 169.271 197.658 174.206 192.724L207.177 159.684L203.996 159.662Z" fill="#32BCAD"/>
<path d="M109.201 67.6593C112.54 67.6504 115.849 68.3047 118.934 69.5846C122.02 70.8644 124.822 72.7443 127.178 75.1156L153.234 101.226C154.14 102.131 155.366 102.639 156.645 102.639C157.924 102.639 159.151 102.131 160.056 101.226L186.019 75.2145C188.373 72.8402 191.175 70.958 194.261 69.6771C197.347 68.3962 200.656 67.7421 203.996 67.7527H207.122L174.151 34.7187C171.709 32.2716 168.811 30.3305 165.62 29.0061C162.43 27.6817 159.01 27 155.557 27C152.103 27 148.683 27.6817 145.493 29.0061C142.302 30.3305 139.404 32.2716 136.962 34.7187L104.111 67.6593H109.201Z" fill="#32BCAD"/>
<path d="M234.396 95.0828L214.472 75.1206C214.023 75.3046 213.542 75.4016 213.057 75.4064H203.997C199.282 75.4182 194.763 77.2941 191.422 80.6263L165.459 106.622C163.121 108.96 159.952 110.273 156.648 110.273C153.345 110.273 150.176 108.96 147.838 106.622L121.777 80.5274C118.436 77.1932 113.917 75.3152 109.201 75.302H98.0792C97.6208 75.2916 97.1678 75.2005 96.741 75.0327L76.6905 95.0828C71.7658 100.027 69 106.727 69 113.713C69 120.698 71.7658 127.398 76.6905 132.342L96.6971 152.387C97.123 152.216 97.5766 152.125 98.0353 152.118H109.201C113.917 152.104 118.436 150.226 121.777 146.892L147.832 120.787C152.543 116.072 160.753 116.072 165.459 120.787L191.422 146.793C194.763 150.125 199.282 152.001 203.997 152.013H213.057C213.543 152.017 214.023 152.114 214.472 152.299L234.396 132.337C236.839 129.891 238.776 126.986 240.098 123.79C241.42 120.593 242.1 117.167 242.1 113.707C242.1 110.247 241.42 106.821 240.098 103.624C238.776 100.428 236.839 97.5235 234.396 95.0773" fill="#32BCAD"/>
</svg>
