<svg version="1.1" xmlns="http://www.w3.org/2000/svg" xmlns:xlink="http://www.w3.org/1999/xlink" viewBox="0 0 171 171"><g fill="none" fill-rule="nonzero" stroke="none" stroke-width="1" stroke-linecap="butt" stroke-linejoin="miter" stroke-miterlimit="10" stroke-dasharray="" stroke-dashoffset="0" font-family="none" font-weight="none" font-size="none" text-anchor="none" style="mix-blend-mode: normal"><path d="M0,171.98863v-171.98863h171.98863v171.98863z" fill="none"></path><g fill="#59bdcb"><path d="M85.5,6.84c-43.37789,0 -78.66,35.28211 -78.66,78.66c0,43.37789 35.28211,78.66 78.66,78.66c43.37789,0 78.66,-35.28211 78.66,-78.66c0,-43.37789 -35.28211,-78.66 -78.66,-78.66zM133.83422,82.18688c-0.66797,0.66797 -1.54969,1.00195 -2.41805,1.00195c-0.88172,0 -1.75008,-0.33398 -2.41805,-1.00195l-1.22906,-1.22906c-12.15703,10.11305 -30.29906,13.09219 -30.29906,13.09219l-7.04039,15.48352l0.90844,0.90844c1.33594,1.33594 1.33594,3.50015 0,4.83609c-0.66797,0.66797 -1.53633,1.00195 -2.41805,1.00195c-0.88172,0 -1.75008,-0.33398 -2.41805,-1.00195l-12.97195,-12.97195l-27.68062,27.68062l-4.83609,-4.8361l27.68062,-27.68062l-12.97195,-12.97195c-1.33594,-1.33594 -1.33594,-3.50015 0,-4.83609c1.33594,-1.33594 3.50015,-1.33594 4.83609,0l0.90844,0.90844l15.48352,-7.04039c0,0 2.97914,-18.14203 13.09219,-30.29906l-1.06875,-1.06875c-1.33594,-1.33594 -1.33594,-3.50015 0,-4.83609c1.33594,-1.33594 3.50016,-1.33594 4.8361,0l40.02469,40.02469c1.33594,1.33594 1.33594,3.50015 0,4.83609z"></path></g></g></svg>