<svg version="1.1" xmlns="http://www.w3.org/2000/svg" xmlns:xlink="http://www.w3.org/1999/xlink" viewBox="0 0 171 171"><g fill="none" fill-rule="nonzero" stroke="none" stroke-width="1" stroke-linecap="butt" stroke-linejoin="miter" stroke-miterlimit="10" stroke-dasharray="" stroke-dashoffset="0" font-family="none" font-weight="none" font-size="none" text-anchor="none" style="mix-blend-mode: normal"><path d="M0,171.98863v-171.98863h171.98863v171.98863z" fill="none"></path><g fill="#333333"><path d="M126.21938,-0.21375c-3.58031,0 -7.10719,1.33594 -9.8325,4.06125l-1.06875,1.06875c-0.16031,0.1336 -0.2939,0.26719 -0.4275,0.4275l-0.855,0.96188l-53.01,52.90313c-0.41414,0.41414 -0.70805,0.93516 -0.855,1.49625l-5.5575,20.52c-0.32062,1.20235 0.02672,2.47148 0.90844,3.33985c0.89508,0.86836 2.17758,1.17562 3.36656,0.82828l20.41312,-5.5575c0.60117,-0.13359 1.16227,-0.4275 1.60313,-0.855l52.90313,-52.90312c0,0 0.46758,-0.46758 0.855,-0.855c0.16031,-0.16031 0.30727,-0.34734 0.4275,-0.53438c0.52102,-0.52102 1.06875,-1.06875 1.06875,-1.06875c5.46398,-5.46398 5.45063,-14.32125 0,-19.77187c-2.72531,-2.72531 -6.35906,-4.06125 -9.93937,-4.06125zM118.845,11.115l10.04625,10.04625l-52.36875,52.47563l-10.04625,-9.93938l0.10688,-0.4275zM10.26,30.78c-5.65102,0 -10.26,4.60898 -10.26,10.26v88.92c0,5.65102 4.60898,10.26 10.26,10.26h150.48c5.65102,0 10.26,-4.60898 10.26,-10.26v-88.92c0,-5.65102 -4.60898,-10.26 -10.26,-10.26h-24.90188l-6.84,6.84h31.74188c1.88367,0 3.42,1.53633 3.42,3.42v88.92c0,1.88367 -1.53633,3.42 -3.42,3.42h-150.48c-1.88367,0 -3.42,-1.53633 -3.42,-3.42v-88.92c0,-1.88367 1.53633,-3.42 3.42,-3.42h65.4075l6.84,-6.84z"></path></g></g></svg>