<svg version="1.1" xmlns="http://www.w3.org/2000/svg" xmlns:xlink="http://www.w3.org/1999/xlink" viewBox="0 0 171 171"><g fill="none" fill-rule="nonzero" stroke="none" stroke-width="1" stroke-linecap="butt" stroke-linejoin="miter" stroke-miterlimit="10" stroke-dasharray="" stroke-dashoffset="0" font-family="none" font-weight="none" font-size="none" text-anchor="none" style="mix-blend-mode: normal"><path d="M0,171.98863v-171.98863h171.98863v171.98863z" fill="none"></path><g fill="#cccccc"><path d="M13.14563,13.68c-1.60312,0 -3.27305,0.60117 -4.48875,1.81687c-2.44477,2.44477 -2.44477,6.42586 0,8.87063l45.63563,45.63563c1.22906,1.2157 2.88563,1.81687 4.48875,1.81687c1.60312,0 3.16617,-0.60117 4.38188,-1.81687c2.44477,-2.44477 2.44477,-6.42586 0,-8.87062l-45.63562,-45.63562c-1.2157,-1.2157 -2.77875,-1.81687 -4.38188,-1.81687zM157.85438,13.68c-1.60313,0 -3.16617,0.60117 -4.38188,1.81687l-45.63562,45.63563c-2.44477,2.44477 -2.44477,6.42586 0,8.87062c1.2157,1.2157 2.77875,1.81687 4.38188,1.81687c1.60312,0 3.25969,-0.60117 4.48875,-1.81687l45.63562,-45.63562c2.44477,-2.44477 2.44477,-6.42586 0,-8.87062c-1.2157,-1.2157 -2.88562,-1.81687 -4.48875,-1.81687zM6.84,54.72c-3.76734,0 -6.84,3.07266 -6.84,6.84v20.52c0,3.76735 3.07266,6.84 6.84,6.84h157.32c3.76735,0 6.84,-3.07265 6.84,-6.84v-20.52c0,-3.76734 -3.07265,-6.84 -6.84,-6.84h-22.55062l-20.0925,20.0925c-2.47148,2.47148 -5.81133,3.8475 -9.29812,3.8475c-3.4868,0 -6.7064,-1.36265 -9.19125,-3.8475c-5.08992,-5.10328 -5.10328,-13.38609 0,-18.48938l1.60312,-1.60312h-38.26125l1.60312,1.60312c5.08992,5.10328 5.08992,13.3861 0,18.48938c-2.47148,2.47148 -5.69109,3.8475 -9.19125,3.8475c-3.4868,0 -6.81328,-1.37602 -9.29812,-3.8475l-20.0925,-20.0925zM9.51188,92.34l17.20688,59.95688c0.82828,2.88563 4.00781,5.02312 7.48125,5.02312h102.6c3.47344,0 6.63961,-2.1375 7.48125,-5.02312l17.20687,-59.95687zM60.2775,97.57688c3.47344,0 6.30562,2.83219 6.30562,6.30562v31.10063c0,3.47344 -2.83219,6.30562 -6.30562,6.30562c-3.47344,0 -6.30562,-2.83219 -6.30562,-6.30562v-31.10063c0,-3.47344 2.83219,-6.30562 6.30562,-6.30562zM85.5,97.57688c3.4868,0 6.30562,2.83219 6.30562,6.30562v31.10063c0,3.47344 -2.81883,6.30562 -6.30562,6.30562c-3.47344,0 -6.30563,-2.83219 -6.30563,-6.30562v-31.10063c0,-3.47344 2.83219,-6.30562 6.30563,-6.30562zM110.7225,97.57688c3.4868,0 6.30563,2.83219 6.30563,6.30562v31.10063c0,3.47344 -2.81883,6.30562 -6.30563,6.30562c-3.47344,0 -6.30562,-2.83219 -6.30562,-6.30562v-31.10063c0,-3.47344 2.83219,-6.30562 6.30562,-6.30562z"></path></g></g></svg>