<svg version="1.1" xmlns="http://www.w3.org/2000/svg" xmlns:xlink="http://www.w3.org/1999/xlink" viewBox="0 0 171 171"><g fill="none" fill-rule="nonzero" stroke="none" stroke-width="1" stroke-linecap="butt" stroke-linejoin="miter" stroke-miterlimit="10" stroke-dasharray="" stroke-dashoffset="0" font-family="none" font-weight="none" font-size="none" text-anchor="none" style="mix-blend-mode: normal"><path d="M0,171.98863v-171.98863h171.98863v171.98863z" fill="none"></path><g fill="#59bdcb"><path d="M56.32313,20.52c-0.74813,0 -1.53633,0.29391 -2.1375,0.74813l-34.84125,26.61187h51.19312l31.10063,-27.36zM112.005,20.52l-31.10062,27.36h40.82625l27.46687,-27.36zM153.9,25.54313l-27.36,27.14625v95.54625l26.61188,-33.23812c0.48094,-0.61453 0.74813,-1.36265 0.74813,-2.1375zM17.1,54.72v92.34c0,1.89703 1.53633,3.42 3.42,3.42h99.18v-95.76zM54.72,68.4h34.2c1.89703,0 3.42,1.53633 3.42,3.42c0,1.88367 -1.52297,3.42 -3.42,3.42h-34.2c-1.88367,0 -3.42,-1.53633 -3.42,-3.42c0,-1.88367 1.53633,-3.42 3.42,-3.42z"></path></g></g></svg>