<svg version="1.1" xmlns="http://www.w3.org/2000/svg" xmlns:xlink="http://www.w3.org/1999/xlink" viewBox="0 0 171 171"><g fill="none" fill-rule="nonzero" stroke="none" stroke-width="1" stroke-linecap="butt" stroke-linejoin="miter" stroke-miterlimit="10" stroke-dasharray="" stroke-dashoffset="0" font-family="none" font-weight="none" font-size="none" text-anchor="none" style="mix-blend-mode: normal"><path d="M0,171.98863v-171.98863h171.98863v171.98863z" fill="none"></path><g fill="#59bdcb"><path d="M147.06,30.78h-123.12c-9.43172,0 -17.1,7.66828 -17.1,17.1v75.24c0,9.43172 7.66828,17.1 17.1,17.1h123.12c9.43172,0 17.1,-7.66828 17.1,-17.1v-75.24c0,-9.43172 -7.66828,-17.1 -17.1,-17.1zM27.36,61.56c0,-1.88367 1.53633,-3.42 3.42,-3.42h13.68c1.88367,0 3.42,1.53633 3.42,3.42v10.26c0,1.88367 -1.53633,3.42 -3.42,3.42h-13.68c-1.88367,0 -3.42,-1.53633 -3.42,-3.42zM30.78,95.76h17.1c1.88367,0 3.42,1.52297 3.42,3.42c0,1.89703 -1.53633,3.42 -3.42,3.42h-17.1c-1.88367,0 -3.42,-1.52297 -3.42,-3.42c0,-1.89703 1.53633,-3.42 3.42,-3.42zM75.24,119.7h-44.46c-1.88367,0 -3.42,-1.52297 -3.42,-3.42c0,-1.89703 1.53633,-3.42 3.42,-3.42h44.46c1.88367,0 3.42,1.52297 3.42,3.42c0,1.89703 -1.53633,3.42 -3.42,3.42zM78.66,102.6h-17.1c-1.88367,0 -3.42,-1.52297 -3.42,-3.42c0,-1.89703 1.53633,-3.42 3.42,-3.42h17.1c1.88367,0 3.42,1.52297 3.42,3.42c0,1.89703 -1.53633,3.42 -3.42,3.42zM109.44,102.6h-17.1c-1.89703,0 -3.42,-1.52297 -3.42,-3.42c0,-1.89703 1.52297,-3.42 3.42,-3.42h17.1c1.89703,0 3.42,1.52297 3.42,3.42c0,1.89703 -1.52297,3.42 -3.42,3.42zM140.22,102.6h-17.1c-1.89703,0 -3.42,-1.52297 -3.42,-3.42c0,-1.89703 1.52297,-3.42 3.42,-3.42h17.1c1.89703,0 3.42,1.52297 3.42,3.42c0,1.89703 -1.52297,3.42 -3.42,3.42zM140.22,68.4h-44.46c-1.89703,0 -3.42,-1.53633 -3.42,-3.42c0,-1.88367 1.52297,-3.42 3.42,-3.42h44.46c1.89703,0 3.42,1.53633 3.42,3.42c0,1.88367 -1.52297,3.42 -3.42,3.42z"></path></g></g></svg>