<svg width="171" height="171" viewBox="0 0 171 171" fill="none" xmlns="http://www.w3.org/2000/svg">
<path d="M140.48 31.5862C110.429 1.49745 61.6754 1.46753 31.5863 31.519C1.49754 61.5712 1.46725 110.325 31.5194 140.414C61.5709 170.503 110.325 170.533 140.414 140.481C170.502 110.429 170.533 61.6749 140.48 31.5862ZM96.7512 134.86C96.7512 136.048 95.7883 137.01 94.601 137.01H77.3994C76.212 137.01 75.2492 136.048 75.2492 134.86V71.0037C75.2492 69.8155 76.212 68.8535 77.3994 68.8535H94.601C95.7883 68.8535 96.7512 69.8152 96.7512 71.0037V134.86ZM86.0002 59.9299C79.1241 59.9299 73.5296 54.3361 73.5296 47.4597C73.5296 40.584 79.1237 34.9891 86.0002 34.9891C92.8766 34.9891 98.4707 40.5836 98.4707 47.4597C98.4707 54.3361 92.8758 59.9299 86.0002 59.9299Z" fill="#59BDCB"/>
</svg>
