<svg version="1.1" xmlns="http://www.w3.org/2000/svg" xmlns:xlink="http://www.w3.org/1999/xlink" viewBox="0 0 171 171"><g fill="none" fill-rule="nonzero" stroke="none" stroke-width="1" stroke-linecap="butt" stroke-linejoin="miter" stroke-miterlimit="10" stroke-dasharray="" stroke-dashoffset="0" font-family="none" font-weight="none" font-size="none" text-anchor="none" style="mix-blend-mode: normal"><path d="M0,171.98863v-171.98863h171.98863v171.98863z" fill="none"></path><g fill="#59bdcb"><path d="M34.884,166.212c-0.684,0 -1.368,-0.342 -2.052,-0.684c-1.026,-0.684 -1.71,-2.394 -1.368,-3.762l15.048,-56.088l-45.144,-36.594c-1.368,-0.684 -1.71,-2.394 -1.368,-3.762c0.342,-1.368 1.71,-2.394 3.078,-2.394l58.14,-3.078l20.862,-54.378c0.684,-1.026 2.052,-2.052 3.42,-2.052c1.368,0 2.736,1.026 3.078,2.052l20.862,54.378l58.14,3.078c1.368,0 2.736,1.026 3.078,2.394c0.342,1.368 0,2.736 -1.026,3.762l-45.144,36.594l15.048,56.088c0.342,1.368 0,2.736 -1.368,3.762c-1.026,0.684 -2.736,1.026 -3.762,0l-48.906,-31.464l-48.906,31.464c-0.684,0.684 -1.026,0.684 -1.71,0.684z"></path></g></g></svg>