<svg version="1.1" xmlns="http://www.w3.org/2000/svg" xmlns:xlink="http://www.w3.org/1999/xlink" viewBox="0 0 171 171"><g fill="none" fill-rule="nonzero" stroke="none" stroke-width="1" stroke-linecap="butt" stroke-linejoin="miter" stroke-miterlimit="10" stroke-dasharray="" stroke-dashoffset="0" font-family="none" font-weight="none" font-size="none" text-anchor="none" style="mix-blend-mode: normal"><path d="M0,171.98863v-171.98863h171.98863v171.98863z" fill="none"></path><g fill="#f8b62d"><path d="M85.53479,17.8125c-2.03746,-0.01272 -3.90489,1.13418 -4.81494,2.95715l-18.35523,36.71045l-43.58496,6.70752c-1.98936,0.3074 -3.63723,1.70654 -4.2632,3.61971c-0.62597,1.91316 -0.12382,4.01577 1.29908,5.43962l30.14905,30.14905l-6.71448,43.63366c-0.30631,1.99067 0.53257,3.98448 2.16992,5.15738c1.63735,1.17289 3.79505,1.32564 5.5813,0.39511l38.49866,-20.08777l38.49866,20.08777c1.78625,0.93053 3.94396,0.77778 5.5813,-0.39511c1.63735,-1.17289 2.47623,-3.16671 2.16992,-5.15738l-6.71448,-43.63366l30.14905,-30.14905c1.42291,-1.42385 1.92505,-3.52646 1.29908,-5.43962c-0.62597,-1.91316 -2.27384,-3.31231 -4.2632,-3.61971l-43.58496,-6.70752l-18.35523,-36.71045c-0.89885,-1.80055 -2.73297,-2.94351 -4.74536,-2.95715z"></path></g></g></svg>