<svg version="1.1" xmlns="http://www.w3.org/2000/svg" xmlns:xlink="http://www.w3.org/1999/xlink" viewBox="0 0 171 171"><g fill="none" fill-rule="nonzero" stroke="none" stroke-width="1" stroke-linecap="butt" stroke-linejoin="miter" stroke-miterlimit="10" stroke-dasharray="" stroke-dashoffset="0" font-family="none" font-weight="none" font-size="none" text-anchor="none" style="mix-blend-mode: normal"><path d="M0,171.98863v-171.98863h171.98863v171.98863z" fill="none"></path><g fill="#dbc500"><path d="M170.23852,155.08898l-81.77273,-141.64945c-1.22906,-2.11078 -4.7025,-2.11078 -5.93156,0l-82.08,142.17047c-0.60117,1.05539 -0.60117,2.36461 0,3.42c0.61453,1.05539 1.75008,1.71 2.96578,1.71h164.16c0.02672,0 0.05344,0 0.0668,0c1.89703,0 3.42,-1.52297 3.42,-3.42c0,-0.855 -0.30726,-1.62984 -0.82828,-2.23102zM80.34328,65.88844c0,-0.73477 0.4943,-1.22906 1.22906,-1.22906h7.85531c0.73476,0 1.2157,0.4943 1.2157,1.22906v49.45641c0,0.73476 -0.48094,1.22906 -1.2157,1.22906h-7.85531c-0.73477,0 -1.22906,-0.4943 -1.22906,-1.22906zM90.89719,136.58625c0,0.73477 -0.4943,1.2157 -1.2157,1.2157h-8.34961c-0.73477,0 -1.2157,-0.4943 -1.2157,-1.2157v-8.96414c0,-0.73476 0.4943,-1.2157 1.2157,-1.2157h8.34961c0.73477,0 1.2157,0.48094 1.2157,1.2157z"></path></g></g></svg>