<svg version="1.1" xmlns="http://www.w3.org/2000/svg" xmlns:xlink="http://www.w3.org/1999/xlink" viewBox="0 0 171 171"><g fill="none" fill-rule="nonzero" stroke="none" stroke-width="1" stroke-linecap="butt" stroke-linejoin="miter" stroke-miterlimit="10" stroke-dasharray="" stroke-dashoffset="0" font-family="none" font-weight="none" font-size="none" text-anchor="none" style="mix-blend-mode: normal"><path d="M0,171.98863v-171.98863h171.98863v171.98863z" fill="none"></path><g fill="#333333"><path d="M85.5,6.84c-43.44426,0 -78.66,35.21574 -78.66,78.66c0,43.44426 35.21574,78.66 78.66,78.66c43.44426,0 78.66,-35.21574 78.66,-78.66c0,-43.44426 -35.21574,-78.66 -78.66,-78.66zM85.5,157.32c-39.60018,0 -71.82,-32.2164 -71.82,-71.82c0,-18.90234 7.30512,-36.75816 20.5713,-50.274c1.32354,-1.35432 3.4884,-1.368 4.83588,-0.04788c1.3509,1.32354 1.368,3.4884 0.04788,4.83588c-12.0042,12.23334 -18.61506,28.386 -18.61506,45.486c0,35.83134 29.14866,64.98 64.98,64.98c35.83134,0 64.98,-29.14866 64.98,-64.98c0,-34.67538 -27.32238,-63.01008 -61.56,-64.80558v20.34558c0,1.88784 -1.52874,3.42 -3.42,3.42c-1.89126,0 -3.42,-1.53216 -3.42,-3.42v-23.94c0,-1.88784 1.52874,-3.42 3.42,-3.42c39.60018,0 71.82,32.2164 71.82,71.82c0,39.6036 -32.21982,71.82 -71.82,71.82zM51.3,51.3c0,0 37.44558,22.93794 41.45382,26.94618c4.00824,4.00824 4.00824,10.50624 0,14.51106c-4.00482,4.00482 -10.4994,4.00824 -14.50764,0c-4.00824,-4.00824 -26.94618,-41.45724 -26.94618,-41.45724z"></path></g></g></svg>