<svg version="1.1" xmlns="http://www.w3.org/2000/svg" xmlns:xlink="http://www.w3.org/1999/xlink" viewBox="0 0 171 171"><g fill="none" fill-rule="nonzero" stroke="none" stroke-width="1" stroke-linecap="butt" stroke-linejoin="miter" stroke-miterlimit="10" stroke-dasharray="" stroke-dashoffset="0" font-family="none" font-weight="none" font-size="none" text-anchor="none" style="mix-blend-mode: normal"><path d="M0,171.98863v-171.98863h171.98863v171.98863z" fill="none"></path><g fill="#333333"><path d="M85.5,6.84c-43.44426,0 -78.66,35.21574 -78.66,78.66c0,43.44426 35.21574,78.66 78.66,78.66c43.44426,0 78.66,-35.21574 78.66,-78.66c0,-43.44426 -35.21574,-78.66 -78.66,-78.66zM85.5,37.62c5.66694,0 10.26,4.59306 10.26,10.26c0,5.66694 -4.59306,10.26 -10.26,10.26c-5.66694,0 -10.26,-4.59306 -10.26,-10.26c0,-5.66694 4.59306,-10.26 10.26,-10.26zM99.18,129.96h-6.84h-13.68h-6.84v-6.84h6.84v-44.46h-6.84v-6.84h6.84h13.68v6.84v44.46h6.84z"></path></g></g></svg>