<svg version="1.1" xmlns="http://www.w3.org/2000/svg" xmlns:xlink="http://www.w3.org/1999/xlink" viewBox="0 0 171 171"><g fill="none" fill-rule="nonzero" stroke="none" stroke-width="1" stroke-linecap="butt" stroke-linejoin="miter" stroke-miterlimit="10" stroke-dasharray="" stroke-dashoffset="0" font-family="none" font-weight="none" font-size="none" text-anchor="none" style="mix-blend-mode: normal"><path d="M0,171.98863v-171.98863h171.98863v171.98863z" fill="none"></path><g fill="#f1c40f"><path d="M45.63563,41.04c-24.44765,0 -43.88555,17.83477 -45.63562,41.14688v1.17562c-0.04008,0.74813 -0.10687,1.48289 -0.10687,2.24438c0,0.5611 0.09352,1.08211 0.21375,1.60312c0.80156,24.48773 19.89211,42.75 45.10125,42.75c18.5161,0 28.02797,-11.8364 34.84125,-24.47438c-2.91234,-4.68914 -5.54414,-9.405 -8.01562,-14.00062c-6.74648,14.81555 -13.02539,25.11562 -26.82562,25.11562c-17.92828,0 -31.06055,-12.3975 -31.74187,-29.60437c0.09352,-0.44086 0.10687,-0.9218 0.10687,-1.38938c0,-17.5943 13.78688,-30.88688 32.0625,-30.88688c13.47961,0 20.93414,12.1036 31.635,32.0625c10.80773,20.17266 23.07164,43.07063 49.80375,43.07063c22.75102,0 42.0286,-18.35578 43.81875,-40.82625c0.02672,-0.38742 0.08016,-0.7882 0.10688,-1.17563c0.04008,-0.74813 0.10688,-1.49625 0.10688,-2.24437c0,-0.56109 -0.09352,-1.08211 -0.21375,-1.60313c-0.84164,-24.20719 -20.1593,-42.96375 -44.78062,-42.96375c-18.78328,0 -28.96313,12.55781 -36.23063,25.97063c1.92375,3.36656 3.66047,6.81328 5.45063,10.15312c0.80156,1.49625 1.58977,2.87227 2.35125,4.275c6.7732,-14.80219 13.66664,-27.03937 28.42875,-27.03937c17.91492,0 30.95367,12.70477 31.42125,30.24562c-0.04008,0.30727 -0.10688,0.64125 -0.10688,0.96188c0,16.28508 -14.16094,30.56625 -30.3525,30.56625c-18.54281,0 -27.8543,-17.38055 -37.72688,-35.80312c-10.35352,-19.33102 -21.06773,-39.33 -43.71187,-39.33z"></path></g></g></svg>