<svg version="1.1" xmlns="http://www.w3.org/2000/svg" xmlns:xlink="http://www.w3.org/1999/xlink" viewBox="0 0 171 171"><g fill="none" fill-rule="nonzero" stroke="none" stroke-width="1" stroke-linecap="butt" stroke-linejoin="miter" stroke-miterlimit="10" stroke-dasharray="" stroke-dashoffset="0" font-family="none" font-weight="none" font-size="none" text-anchor="none" style="mix-blend-mode: normal"><path d="M0,171.98863v-171.98863h171.98863v171.98863z" fill="none"></path><g fill="#333333"><path d="M13.68,13.68v136.8c0.00038,3.77747 3.06253,6.83962 6.84,6.84h129.96c3.77747,-0.00038 6.83962,-3.06253 6.84,-6.84v-41.04h-13.68v34.2h-116.28v-129.96zM123.04652,17.0332c-2.78214,0.00345 -5.28505,1.69151 -6.33069,4.26968c-1.04564,2.57817 -0.42568,5.53279 1.56807,7.47321l8.8439,8.84391h-3.84082c-34.44597,-0.85726 -56.19136,4.49888 -68.7273,19.58484c-12.53594,15.08596 -14.09655,36.88858 -13.51969,66.04875c0.07378,3.77763 3.19596,6.78019 6.97359,6.70641c3.77763,-0.07378 6.78019,-3.19596 6.70641,-6.97359c-0.562,-28.40871 1.82552,-46.77376 10.3602,-57.04453c8.53468,-10.27077 24.98241,-15.46042 57.87281,-14.64187h0.08015h4.09465l-8.8439,8.84391c-1.78689,1.71559 -2.50669,4.26315 -1.88181,6.66017c0.62488,2.39702 2.4968,4.26895 4.89383,4.89383c2.39702,0.62488 4.94458,-0.09493 6.66017,-1.88181l19.91215,-19.91215c0.49372,-0.37506 0.93416,-0.8155 1.30922,-1.30922l4.13473,-4.13473l-4.13473,-4.13473c-0.38138,-0.50496 -0.83098,-0.95456 -1.33594,-1.33594l-19.88543,-19.88543c-1.28939,-1.32543 -3.06044,-2.0724 -4.90957,-2.0707z"></path></g></g></svg>