<svg version="1.1" xmlns="http://www.w3.org/2000/svg" xmlns:xlink="http://www.w3.org/1999/xlink" viewBox="0 0 171 171"><g fill="none" fill-rule="nonzero" stroke="none" stroke-width="1" stroke-linecap="butt" stroke-linejoin="miter" stroke-miterlimit="10" stroke-dasharray="" stroke-dashoffset="0" font-family="none" font-weight="none" font-size="none" text-anchor="none" style="mix-blend-mode: normal"><path d="M0,171.98863v-171.98863h171.98863v171.98863z" fill="none"></path><g fill="#333333"><path d="M85.5,17.1c-3.76734,0 -6.84,3.07266 -6.84,6.84c0,3.76735 3.07266,6.84 6.84,6.84c3.76735,0 6.84,-3.07265 6.84,-6.84c0,-3.76734 -3.07265,-6.84 -6.84,-6.84zM73.31625,30.13875l-43.28437,28.00125h12.61125l35.26875,-22.87125c-1.95047,-1.29586 -3.52687,-3.04594 -4.59562,-5.13zM97.68375,30.13875c-1.06875,2.08406 -2.65852,3.83414 -4.59562,5.13l35.26875,22.87125h12.50437zM10.26,64.98c-1.88367,0 -3.42,1.53633 -3.42,3.42v82.08c0,1.89703 1.53633,3.42 3.42,3.42h150.48c1.89703,0 3.42,-1.52297 3.42,-3.42v-82.08c0,-1.88367 -1.52297,-3.42 -3.42,-3.42zM30.78,88.92c5.65102,0 10.26,4.60898 10.26,10.26v3.42h-6.84v-3.42c0,-1.88367 -1.53633,-3.42 -3.42,-3.42c-1.88367,0 -3.42,1.53633 -3.42,3.42v20.52c0,1.88367 1.53633,3.42 3.42,3.42c1.88367,0 3.42,-1.53633 3.42,-3.42v-3.42h6.84v3.42c0,5.65102 -4.60898,10.26 -10.26,10.26c-5.65102,0 -10.26,-4.60898 -10.26,-10.26v-20.52c0,-5.65102 4.60898,-10.26 10.26,-10.26zM44.46,88.92h6.84v34.2h10.26v6.84h-17.1zM71.82,88.92c5.65102,0 10.26,4.60898 10.26,10.26v20.52c0,5.65102 -4.60898,10.26 -10.26,10.26c-5.65102,0 -10.26,-4.60898 -10.26,-10.26v-20.52c0,-5.65102 4.60898,-10.26 10.26,-10.26zM95.76,88.92c5.65102,0 10.26,4.60898 10.26,10.26v3.42h-6.84v-3.42c0,-1.88367 -1.53633,-3.42 -3.42,-3.42c-1.88367,0 -3.42,1.53633 -3.42,3.42v4.7025l13.68,6.84v8.9775c0,5.65102 -4.60898,10.26 -10.26,10.26c-5.65102,0 -10.26,-4.60898 -10.26,-10.26v-3.42h6.84v3.42c0,1.88367 1.53633,3.42 3.42,3.42c1.88367,0 3.42,-1.53633 3.42,-3.42v-4.7025l-13.68,-6.84v-8.9775c0,-5.65102 4.60898,-10.26 10.26,-10.26zM109.44,88.92h17.1v6.84h-10.26v10.26h10.26v6.84h-10.26v10.26h10.26v6.84h-17.1zM129.96,88.92h10.26c5.65102,0 10.26,4.60898 10.26,10.26v20.52c0,5.65102 -4.60898,10.26 -10.26,10.26h-10.26zM71.82,95.76c-1.88367,0 -3.42,1.53633 -3.42,3.42v20.52c0,1.88367 1.53633,3.42 3.42,3.42c1.88367,0 3.42,-1.53633 3.42,-3.42v-20.52c0,-1.88367 -1.53633,-3.42 -3.42,-3.42zM136.8,95.76v27.36h3.42c1.88367,0 3.42,-1.53633 3.42,-3.42v-20.52c0,-1.88367 -1.53633,-3.42 -3.42,-3.42z"></path></g></g></svg>