<svg version="1.1" xmlns="http://www.w3.org/2000/svg" xmlns:xlink="http://www.w3.org/1999/xlink" viewBox="0 0 171 171"><g fill="none" fill-rule="nonzero" stroke="none" stroke-width="1" stroke-linecap="butt" stroke-linejoin="miter" stroke-miterlimit="10" stroke-dasharray="" stroke-dashoffset="0" font-family="none" font-weight="none" font-size="none" text-anchor="none" style="mix-blend-mode: normal"><path d="M0,171.98863v-171.98863h171.98863v171.98863z" fill="none"></path><g fill="#333333"><path d="M169.33008,7.32094c-1.04203,-0.61453 -2.32453,-0.64125 -3.37992,-0.0668l-36.11039,19.70508l-42.91031,-19.81195c-0.93516,-0.4275 -2.03063,-0.41414 -2.95242,0.05344l-39.51703,19.75852l-39.51703,-19.75852c-1.05539,-0.52102 -2.31117,-0.46758 -3.32649,0.14695c-1.00195,0.62789 -1.61648,1.72336 -1.61648,2.91234v129.96c0,1.29586 0.73477,2.48485 1.89703,3.0593l41.04,20.52c0.96187,0.48094 2.08406,0.48094 3.0593,0l39.57047,-19.78523l42.96375,19.83867c0.45422,0.20039 0.93516,0.30727 1.42945,0.30727c0.5611,0 1.12219,-0.13359 1.6432,-0.41414l37.62,-20.52c1.09547,-0.60117 1.7768,-1.75008 1.7768,-3.00586v-129.96c0,-1.20234 -0.64125,-2.32453 -1.66992,-2.93906zM146.16492,56.20289c1.60312,-0.9886 3.71391,-0.50766 4.7025,1.10883c0.65461,1.04203 1.25578,2.1375 1.81688,3.29976c0.82828,1.69664 0.12024,3.74063 -1.5764,4.56891c-0.4943,0.22711 -0.9886,0.33398 -1.49625,0.33398c-1.26914,0 -2.48485,-0.70805 -3.07266,-1.92375c-0.46758,-0.93515 -0.94851,-1.83023 -1.48289,-2.68523c-0.9886,-1.60312 -0.4943,-3.70055 1.10883,-4.7025zM132.67195,45.88945c0.90844,-1.65656 2.9925,-2.25773 4.64906,-1.3493c1.08211,0.60117 2.15086,1.25578 3.19289,1.96383c1.54969,1.06875 1.95047,3.19289 0.89508,4.75594c-0.66797,0.97524 -1.73672,1.49625 -2.83219,1.49625c-0.66797,0 -1.33594,-0.20039 -1.92375,-0.60117c-0.855,-0.58781 -1.73672,-1.12219 -2.6318,-1.61648c-1.65656,-0.9218 -2.25773,-3.00586 -1.3493,-4.64906zM22.45711,44.12602c-0.60117,0.38742 -1.26914,0.57445 -1.92375,0.57445c-1.06875,0 -2.08406,-0.50766 -2.69859,-1.49625l-0.24047,-0.40078c-0.97523,-1.61648 -0.45422,-3.7139 1.16227,-4.68914c1.60312,-0.97523 3.71391,-0.45422 4.68914,1.16227c1.00195,1.60312 0.61453,3.8475 -0.9886,4.84945zM26.47828,49.87055c1.44281,-1.2157 3.60703,-1.04203 4.82273,0.40078c0.7214,0.855 1.44281,1.66992 2.15086,2.41805c1.29586,1.37602 1.22906,3.54023 -0.14695,4.8361c-0.65461,0.62789 -1.49625,0.93515 -2.33789,0.93515c-0.9218,0 -1.83024,-0.3607 -2.4982,-1.08211c-0.7882,-0.84164 -1.58977,-1.73672 -2.39133,-2.68523c-1.2157,-1.44281 -1.04203,-3.60703 0.40078,-4.82274zM37.62,140.22c-5.66437,0 -10.26,-4.59563 -10.26,-10.26c0,-5.66438 4.59562,-10.26 10.26,-10.26c5.66438,0 10.26,4.59562 10.26,10.26c0,5.66437 -4.59562,10.26 -10.26,10.26zM47.97352,66.04875c-0.50766,1.37602 -1.81687,2.23102 -3.20625,2.23102c-0.40078,0 -0.80156,-0.0668 -1.18898,-0.21375c-1.17563,-0.4275 -2.35125,-0.96188 -3.51352,-1.56305c-1.68328,-0.86836 -2.32453,-2.93906 -1.45617,-4.60899c0.88172,-1.68328 2.93906,-2.33789 4.60898,-1.45617c0.9218,0.46758 1.83023,0.88172 2.72531,1.20235c1.7768,0.66797 2.68523,2.6318 2.03062,4.40859zM57.23156,125.09719c-1.00195,0.26719 -2.03062,0.5611 -3.08602,0.90844c-0.34734,0.12023 -0.70805,0.17367 -1.05539,0.17367c-1.44281,0 -2.77875,-0.9218 -3.25969,-2.36461c-0.58781,-1.79015 0.40078,-3.72727 2.19094,-4.31508c1.18898,-0.38742 2.33789,-0.7214 3.47344,-1.01531c1.83023,-0.45422 3.70055,0.61453 4.18148,2.44477c0.48094,1.81687 -0.61453,3.68719 -2.44477,4.16813zM62.61539,68.0393c-1.2157,0.41414 -2.43141,0.76149 -3.67383,1.02867c-0.24047,0.05344 -0.4943,0.08015 -0.73477,0.08015c-1.56305,0 -2.97914,-1.08211 -3.33984,-2.68523c-0.40078,-1.8436 0.76148,-3.67383 2.60508,-4.07461c0.98859,-0.21375 1.95047,-0.4943 2.91234,-0.81492c1.79016,-0.61453 3.74063,0.33399 4.35516,2.11078c0.60117,1.79015 -0.34735,3.74063 -2.12414,4.35515zM73.31625,123.86813c-0.12023,0 -0.24047,0 -0.34734,-0.01336c-1.04203,-0.10688 -2.09742,-0.18703 -3.17953,-0.21375c-1.88367,-0.0668 -3.36656,-1.6432 -3.29977,-3.52687c0.05344,-1.89703 1.61649,-3.50016 3.52687,-3.31312c1.22906,0.04008 2.44477,0.12023 3.63375,0.24047c1.88367,0.20039 3.25969,1.87031 3.0593,3.75399c-0.17367,1.76344 -1.65656,3.07265 -3.39328,3.07265zM75.24,68.4c-5.66437,0 -10.26,-4.59563 -10.26,-10.26c0,-5.66437 4.59562,-10.26 10.26,-10.26c5.66438,0 10.26,4.59563 10.26,10.26c0,5.66438 -4.59562,10.26 -10.26,10.26zM93.16828,125.44453c-0.46758,1.44281 -1.81688,2.36461 -3.25969,2.36461c-0.34735,0 -0.69469,-0.05344 -1.05539,-0.17367c-1.05539,-0.33399 -2.12414,-0.68133 -3.19289,-1.00195c-1.81688,-0.54773 -2.83219,-2.45812 -2.28445,-4.26164c0.54774,-1.80352 2.45813,-2.83219 4.26164,-2.28445c1.10883,0.34735 2.21766,0.69469 3.32648,1.05539c1.79016,0.57445 2.77875,2.4982 2.2043,4.30172zM91.93922,48.93539c-0.89508,0.60117 -1.7768,1.25578 -2.68524,1.92375c-0.61453,0.45422 -1.32258,0.66797 -2.03063,0.66797c-1.04203,0 -2.08406,-0.48094 -2.75203,-1.37601c-1.12219,-1.52297 -0.80156,-3.66047 0.70805,-4.78266c0.97523,-0.7214 1.93711,-1.41609 2.89898,-2.0707c1.54969,-1.06875 3.67383,-0.66797 4.75594,0.88172c1.05539,1.56305 0.65461,3.68719 -0.89508,4.75594zM102.45305,37.53985c1.17562,0 2.32453,0.01336 3.50016,0.04008c1.88367,0.04008 3.37992,1.60312 3.33984,3.4868c-0.04008,1.87031 -1.56305,3.3532 -3.42,3.3532c-0.02672,0 -0.05344,0 -0.0668,0c-1.13555,-0.02672 -2.23102,-0.04008 -3.2864,-0.04008c-1.89703,0 -3.46008,-1.53633 -3.46008,-3.42c0,-1.88367 1.49625,-3.42 3.39328,-3.42zM106.35398,132.44485c-0.21375,0 -0.41414,-0.01336 -0.64125,-0.05344c-1.18898,-0.22711 -2.35125,-0.48094 -3.50015,-0.76149c-1.83023,-0.44086 -2.96578,-2.28445 -2.52492,-4.11469c0.44086,-1.84359 2.29781,-2.95242 4.12805,-2.52492c1.04203,0.24047 2.09742,0.48094 3.17953,0.68133c1.85695,0.34734 3.07266,2.1375 2.72531,3.99445c-0.32063,1.6432 -1.75008,2.77875 -3.36656,2.77875zM120.07406,38.82235c1.17562,0.20039 2.35125,0.4275 3.52688,0.69469c1.8436,0.41414 3.00586,2.23101 2.60508,4.07461c-0.3607,1.60312 -1.7768,2.68523 -3.33985,2.68523c-0.25383,0 -0.4943,-0.02672 -0.74813,-0.08015c-1.06875,-0.24047 -2.12414,-0.44086 -3.19289,-0.62789c-1.85695,-0.32062 -3.11274,-2.08406 -2.79211,-3.94102c0.32063,-1.87031 2.08406,-3.11273 3.94102,-2.80547zM124.01508,132.68531c-1.24242,0.24047 -2.48485,0.4275 -3.71391,0.54773c-0.10688,0.01336 -0.22711,0.02672 -0.34734,0.02672c-1.73672,0 -3.21961,-1.32258 -3.39328,-3.08602c-0.20039,-1.87031 1.17562,-3.55359 3.0593,-3.74062c1.01531,-0.10688 2.04398,-0.25383 3.0593,-0.45422c1.87031,-0.40078 3.64711,0.82828 4.02117,2.68523c0.3607,1.84359 -0.84164,3.64711 -2.68523,4.02117zM136.8,133.38c-5.66438,0 -10.26,-4.59562 -10.26,-10.26c0,-5.66438 4.59563,-10.26 10.26,-10.26c5.66437,0 10.26,4.59562 10.26,10.26c0,5.66438 -4.59563,10.26 -10.26,10.26zM152.01633,110.05453c-0.53438,1.1489 -1.09547,2.24438 -1.69664,3.2864c-0.62789,1.10883 -1.79015,1.72336 -2.97914,1.72336c-0.57445,0 -1.1489,-0.13359 -1.68328,-0.44086c-1.6432,-0.93515 -2.21766,-3.01922 -1.2825,-4.66242c0.50765,-0.89508 0.98859,-1.81687 1.44281,-2.79211c0.7882,-1.71 2.81883,-2.44477 4.54219,-1.65656c1.71,0.80156 2.45812,2.83219 1.65656,4.54219zM156.27797,96.16078c-0.29391,1.66992 -1.73672,2.84555 -3.36656,2.84555c-0.20039,0 -0.38742,-0.02672 -0.58781,-0.05344c-1.87031,-0.32062 -3.11274,-2.09742 -2.79211,-3.95437c0.18703,-1.04203 0.33399,-2.11078 0.46758,-3.19289c0.22711,-1.88367 1.89703,-3.21961 3.80742,-3.00586c1.87031,0.22711 3.20625,1.92375 2.9925,3.79406c-0.14695,1.22906 -0.32063,2.41805 -0.52101,3.56695zM153.9668,81.97313c-0.08015,0 -0.16031,0 -0.24047,0c-1.7768,0 -3.28641,-1.37602 -3.40664,-3.17953c-0.08015,-1.09547 -0.18703,-2.15086 -0.33398,-3.17953c-0.24047,-1.87031 1.06875,-3.59367 2.93906,-3.8475c1.87031,-0.24047 3.59367,1.06875 3.8475,2.93906c0.16031,1.16227 0.28055,2.36461 0.3607,3.60703c0.14695,1.88367 -1.2825,3.52688 -3.16617,3.66047z"></path></g></g></svg>