<svg version="1.1" xmlns="http://www.w3.org/2000/svg" xmlns:xlink="http://www.w3.org/1999/xlink" viewBox="0 0 171 171"><g fill="none" fill-rule="nonzero" stroke="none" stroke-width="1" stroke-linecap="butt" stroke-linejoin="miter" stroke-miterlimit="10" stroke-dasharray="" stroke-dashoffset="0" font-family="none" font-weight="none" font-size="none" text-anchor="none" style="mix-blend-mode: normal"><path d="M0,171.98863v-171.98863h171.98863v171.98863z" fill="none"></path><g fill="#f1c40f"><path d="M41.04,10.26c-16.95305,0 -30.78,13.82695 -30.78,30.78c0,16.95305 13.82695,30.78 30.78,30.78c16.95305,0 30.78,-13.82695 30.78,-30.78c0,-16.95305 -13.82695,-30.78 -30.78,-30.78zM106.02,13.68c-1.88367,0 -3.42,1.53633 -3.42,3.42v47.88c0,1.88367 1.53633,3.42 3.42,3.42h47.88c1.88367,0 3.42,-1.53633 3.42,-3.42v-47.88c0,-1.88367 -1.53633,-3.42 -3.42,-3.42zM113.06039,95.76c-1.50961,0 -2.83219,0.97523 -3.28641,2.40469l-10.43367,33.82594c-0.4275,1.36266 0.04008,2.85891 1.17562,3.72727l27.36,20.90742c1.22906,0.93516 2.93906,0.93516 4.16813,0l27.36,-20.90742c1.13555,-0.86836 1.60312,-2.36461 1.17562,-3.72727l-10.43367,-33.82594c-0.45422,-1.42945 -1.7768,-2.40469 -3.28641,-2.40469zM40.87969,99.18c-1.17562,0.0668 -2.23102,0.70805 -2.81883,1.72336l-27.34664,47.88c-0.61453,1.05539 -0.60117,2.36461 0,3.42c0.61453,1.05539 1.75008,1.69664 2.96578,1.69664h54.72c1.2157,0 2.35125,-0.64125 2.96578,-1.69664c0.60117,-1.05539 0.61453,-2.36461 0.01336,-3.42l-27.36,-47.88c-0.64125,-1.12219 -1.85695,-1.7768 -3.13945,-1.72336z"></path></g></g></svg>