<svg version="1.1" xmlns="http://www.w3.org/2000/svg" xmlns:xlink="http://www.w3.org/1999/xlink" viewBox="0 0 171 171"><g fill="none" fill-rule="nonzero" stroke="none" stroke-width="1" stroke-linecap="butt" stroke-linejoin="miter" stroke-miterlimit="10" stroke-dasharray="" stroke-dashoffset="0" font-family="none" font-weight="none" font-size="none" text-anchor="none" style="mix-blend-mode: normal"><path d="M0,171.98863v-171.98863h171.98863v171.98863z" fill="none"></path><g fill="#f8b62d"><path d="M67.81219,7.06043c-2.24772,0.15363 -4.41527,1.27582 -5.91152,3.19957l-8.89066,11.97l-15.39,0.68133c-3.762,0 -7.17933,3.078 -7.52133,6.84l-2.39801,14.70867l-12.99199,7.52133c-3.42,2.052 -4.79334,5.81667 -3.76734,9.57867l4.78934,14.36133l-7.86199,12.99867c-2.052,3.078 -1.37334,7.524 1.36266,10.26l10.60734,10.26l-1.36934,15.04934c-0.342,3.762 2.04933,7.524 5.81133,8.55l14.36801,4.10133l5.81133,14.02067c1.368,3.42 5.46933,5.47333 9.23133,4.78933l14.70867,-3.07933l11.62934,9.57867c1.368,1.026 3.42,1.71 5.13,1.71c1.71,0 3.762,-0.684 5.13,-1.71l11.62933,-9.57867l14.70199,3.07933c3.762,0.684 7.52801,-1.36933 9.23801,-4.78933l5.81133,-14.02067l14.36133,-4.10133c3.762,-1.026 6.16001,-4.446 5.81801,-8.55l-0.68801,-15.04934l10.94801,-10.60066c2.736,-2.736 3.42133,-6.84134 1.36933,-9.91934l-8.20933,-12.65133l4.78933,-14.36801c1.368,-3.762 -0.34734,-7.51999 -3.76734,-9.57199l-12.99199,-7.86867l-2.39801,-15.04934c-0.684,-3.762 -3.75933,-6.498 -7.52133,-6.84l-15.04934,-0.68133l-9.23133,-11.62934c-2.394,-3.078 -6.49934,-4.10133 -9.91934,-2.39133l-13.68,6.49266l-13.68,-6.49266c-1.2825,-0.64125 -2.65918,-0.90042 -4.00781,-0.80824zM66.69,47.88c5.472,0 9.57867,3.07934 11.28867,8.20934c0.684,2.052 0.68133,3.07666 0.68133,10.60066c0,7.524 -0.33933,8.89066 -0.68133,10.60066c-1.71,4.788 -5.81667,8.20934 -11.28867,8.20934c-5.472,0 -9.57867,-3.07934 -11.28867,-8.20934c-0.684,-2.052 -0.68133,-3.07666 -0.68133,-10.60066c0,-7.524 0.33933,-8.89066 0.68133,-10.60066c1.71,-4.788 5.81667,-8.20934 11.28867,-8.20934zM104.31,47.88h4.78934c0.684,0 0.68133,0.68667 0.68133,1.02867l-41.04,73.18266c-0.342,0.684 -0.68533,1.02867 -1.36933,1.02867h-4.78266c-0.684,0 -1.03001,-0.68667 -0.68801,-1.02867l40.69934,-73.18266c0.342,-0.684 0.684,-1.02867 1.71,-1.02867zM66.69,55.06066c-2.394,0 -4.10534,1.368 -4.78934,3.42c-0.342,1.026 -0.34066,2.052 -0.34066,8.55c0,6.498 0.34066,7.18334 0.34066,8.20934c0.684,2.394 2.39534,3.42 4.78934,3.42c2.394,0 4.10534,-1.368 4.78934,-3.42c0.342,-1.026 0.34066,-2.05334 0.34066,-8.20934c0,-6.498 -0.34066,-7.524 -0.34066,-8.55c-0.684,-2.394 -2.39534,-3.42 -4.78934,-3.42zM104.31,85.5c5.472,0 9.57867,3.07934 11.28867,8.20934c0.684,2.052 0.68133,3.07666 0.68133,10.60066c0,7.524 -0.33933,8.89066 -0.68133,10.60066c-1.71,4.788 -5.81667,8.20934 -11.28867,8.20934c-5.472,0 -9.57867,-3.07934 -11.28867,-8.20934c-0.684,-2.052 -0.68133,-3.07666 -0.68133,-10.60066c0,-7.524 0.33933,-8.89066 0.68133,-10.60066c1.71,-4.788 5.81667,-8.20934 11.28867,-8.20934zM104.31,92.34c-2.394,0 -4.10534,1.368 -4.78934,3.42c-0.342,1.026 -0.34066,2.052 -0.34066,8.55c0,6.498 0.34066,7.18334 0.34066,8.20934c0.684,2.394 2.39534,3.42 4.78934,3.42c2.394,0 4.10534,-1.368 4.78934,-3.42c0.342,-1.026 0.34066,-2.05334 0.34066,-8.20934c0,-6.498 -0.34066,-7.524 -0.34066,-8.55c-0.684,-2.052 -2.39534,-3.42 -4.78934,-3.42z"></path></g></g></svg>