<svg version="1.1" xmlns="http://www.w3.org/2000/svg" xmlns:xlink="http://www.w3.org/1999/xlink" viewBox="0 0 171 171"><g fill="none" fill-rule="nonzero" stroke="none" stroke-width="1" stroke-linecap="butt" stroke-linejoin="miter" stroke-miterlimit="10" stroke-dasharray="" stroke-dashoffset="0" font-family="none" font-weight="none" font-size="none" text-anchor="none" style="mix-blend-mode: normal"><path d="M0,171.98863v-171.98863h171.98863v171.98863z" fill="none"></path><g fill="#333333"><path d="M85.5,17.1c-3.76734,0 -6.84,3.07266 -6.84,6.84c0,3.76735 3.07266,6.84 6.84,6.84c3.76735,0 6.84,-3.07265 6.84,-6.84c0,-3.76734 -3.07265,-6.84 -6.84,-6.84zM73.31625,30.13875l-43.28437,28.00125h12.61125l35.26875,-22.87125c-1.95047,-1.29586 -3.52687,-3.04594 -4.59562,-5.13zM97.68375,30.13875c-1.06875,2.08406 -2.65852,3.83414 -4.59562,5.13l35.26875,22.87125h12.50437zM10.26,64.98c-1.88367,0 -3.42,1.53633 -3.42,3.42v82.08c0,1.89703 1.53633,3.42 3.42,3.42h150.48c1.89703,0 3.42,-1.52297 3.42,-3.42v-82.08c0,-1.88367 -1.52297,-3.42 -3.42,-3.42zM39.33,88.92c6.59953,0 11.97,5.37047 11.97,11.97v17.1c0,6.59953 -5.37047,11.97 -11.97,11.97c-6.59953,0 -11.97,-5.37047 -11.97,-11.97v-17.1c0,-6.59953 5.37047,-11.97 11.97,-11.97zM58.14,88.92h10.26c7.54805,0 13.68,6.13195 13.68,13.68c0,7.54805 -6.13195,13.68 -13.68,13.68h-3.42v13.68h-6.84zM88.92,88.92h20.52v6.84h-13.68v10.26h10.26v6.84h-10.26v10.26h13.68v6.84h-20.52zM116.28,88.92h9.405l7.695,25.75687v-25.75687h6.84v41.04h-9.405l-7.695,-25.75688v25.75688h-6.84zM39.33,95.76c-2.83219,0 -5.13,2.29781 -5.13,5.13v17.1c0,2.83219 2.29781,5.13 5.13,5.13c2.83219,0 5.13,-2.29781 5.13,-5.13v-17.1c0,-2.83219 -2.29781,-5.13 -5.13,-5.13zM64.98,95.76v13.68h3.42c3.76735,0 6.84,-3.07265 6.84,-6.84c0,-3.76734 -3.07265,-6.84 -6.84,-6.84z"></path></g></g></svg>