<svg version="1.1" xmlns="http://www.w3.org/2000/svg" xmlns:xlink="http://www.w3.org/1999/xlink" viewBox="0 0 225 225"><g fill="none" fill-rule="nonzero" stroke="none" stroke-width="1" stroke-linecap="butt" stroke-linejoin="miter" stroke-miterlimit="10" stroke-dasharray="" stroke-dashoffset="0" font-family="none" font-weight="none" font-size="none" text-anchor="none" style="mix-blend-mode: normal"><path d="M0,225.99431v-225.99431h225.99431v225.99431z" fill="none"></path><g fill="#333333"><path d="M215.66601,110.77735c-0.70312,-1.6875 -2.35547,-2.77735 -4.16601,-2.77735h-36v-94.5c0,-2.49609 -2.0039,-4.5 -4.5,-4.5h-117c-2.49609,0 -4.5,2.00391 -4.5,4.5v94.5h-36c-1.81055,0 -3.46289,1.08985 -4.16601,2.77735c-0.68555,1.6875 -0.29883,3.62109 0.98438,4.90429l99,99c0.8789,0.87891 2.02149,1.31836 3.18164,1.31836c1.16016,0 2.30274,-0.43945 3.18164,-1.31836l99,-99c1.28321,-1.2832 1.66992,-3.21679 0.98438,-4.90429zM129.02344,89.15625l-2.91797,6.5918h-28.40625c-0.08789,0.5625 -0.10547,1.14258 -0.10547,1.72265c0,0.58008 0,1.10742 0,1.61719c0,0.43946 0,0.82617 0,1.19531c0,0.35156 0.03516,0.72071 0.10547,1.07227h26.89453l-2.8125,6.59179h-23.55469c2.37305,15.48633 9.22851,23.22071 20.53125,23.22071c3.46289,0 6.52149,-0.68555 9.17578,-2.05664c1.95117,-1.00195 4.42969,-2.91797 7.45313,-5.71289v11.33789c-4.81641,3.09375 -10.3711,4.64063 -16.62891,4.64063c-17.64844,0 -27.9668,-10.47656 -30.99024,-31.42969h-8.33203l2.91797,-6.59179h4.97461c-0.08789,-0.35156 -0.10547,-0.72071 -0.10547,-1.07227c0,-0.36914 0,-0.7207 0,-1.07226c0,-0.65039 0,-1.26562 0,-1.8457c0,-0.5625 0.03515,-1.10742 0.10547,-1.61719h-7.89258l2.8125,-6.5918h5.83594c1.72265,-8.8418 4.99219,-15.83789 9.82617,-20.95312c5.39648,-5.81836 12.33984,-8.73633 20.84765,-8.73633c6.53906,0 13.06055,2.26758 19.54688,6.80274l-4.97461,8.96484c-5.04492,-4.97461 -10.19531,-7.45312 -15.45117,-7.45312c-5.39649,0 -9.86133,2.30274 -13.39453,6.9082c-2.79492,3.67383 -4.8164,8.50781 -6.04687,14.48438h30.58594z"></path></g></g></svg>