<svg version="1.1" xmlns="http://www.w3.org/2000/svg" xmlns:xlink="http://www.w3.org/1999/xlink" viewBox="0 0 171 171"><g fill="none" fill-rule="nonzero" stroke="none" stroke-width="1" stroke-linecap="butt" stroke-linejoin="miter" stroke-miterlimit="10" stroke-dasharray="" stroke-dashoffset="0" font-family="none" font-weight="none" font-size="none" text-anchor="none" style="mix-blend-mode: normal"><path d="M0,171.98863v-171.98863h171.98863v171.98863z" fill="none"></path><g fill="#333333"><path d="M78.66,10.26c-1.88367,0 -3.42,1.53633 -3.42,3.42v26.505l-13.68,35.055v71.82c1.4161,3.9811 5.79797,6.84 10.26,6.84h64.98c7.54805,0 13.68,-6.13195 13.68,-13.68c0,-2.81883 -0.89508,-5.41055 -2.35125,-7.58812c5.33039,-1.87031 9.19125,-6.97359 9.19125,-12.93188c0,-3.3532 -1.20234,-6.38578 -3.20625,-8.76375c3.96773,-2.39133 6.62625,-6.78656 6.62625,-11.75625c0,-3.3532 -1.20234,-6.38578 -3.20625,-8.76375c3.96773,-2.39133 6.62625,-6.78656 6.62625,-11.75625c0,-7.54805 -6.13195,-13.68 -13.68,-13.68h-50.0175c2.08406,-6.59953 5.5575,-18.40922 5.5575,-23.94c0,-12.87844 -9.43172,-30.78 -18.70312,-30.78zM10.26,64.98c-0.97523,0 -1.91039,0.44086 -2.565,1.17562c-0.65461,0.73477 -0.97523,1.69664 -0.855,2.67188l10.26,82.08c0.21375,1.71 1.69664,2.9925 3.42,2.9925h30.78c1.88367,0 3.42,-1.52297 3.42,-3.42v-82.08c0,-1.88367 -1.53633,-3.42 -3.42,-3.42zM39.33,129.96c2.83219,0 5.13,2.29781 5.13,5.13c0,2.83219 -2.29781,5.13 -5.13,5.13c-2.83219,0 -5.13,-2.29781 -5.13,-5.13c0,-2.83219 2.29781,-5.13 5.13,-5.13z"></path></g></g></svg>