<svg version="1.1" xmlns="http://www.w3.org/2000/svg" xmlns:xlink="http://www.w3.org/1999/xlink" viewBox="0 0 225 225"><g fill="none" fill-rule="nonzero" stroke="none" stroke-width="1" stroke-linecap="butt" stroke-linejoin="miter" stroke-miterlimit="10" stroke-dasharray="" stroke-dashoffset="0" font-family="none" font-weight="none" font-size="none" text-anchor="none" style="mix-blend-mode: normal"><path d="M0,225.99431v-225.99431h225.99431v225.99431z" fill="none"></path><g id="original-icon" fill="#333333"><path d="M120.09375,0l-72,22.5c-1.79297,0.89649 -3.09375,2.70703 -3.09375,4.5v175.5c0,2.25 1.40625,4.04297 3.65625,4.5l72,18h0.84375c0.89649,0 1.77539,-0.38672 2.67188,-0.84375c0.89649,-0.89649 1.82813,-2.30274 1.82813,-3.65625v-216c0,-1.35351 -0.93164,-2.75976 -1.82812,-3.65625c-1.35351,-0.89648 -2.72461,-0.84375 -4.07812,-0.84375zM135,18v9h36v171h-36v9h40.5c2.47851,0 4.5,-2.02149 4.5,-4.5v-180c0,-2.47851 -2.02149,-4.5 -4.5,-4.5zM108,108c2.70703,0 4.5,3.14649 4.5,6.75c0,3.60351 -1.79297,6.75 -4.5,6.75c-2.70703,0 -4.5,-3.14649 -4.5,-6.75c0,-3.60351 1.79297,-6.75 4.5,-6.75z"></path></g></g></svg>