<svg width="188" height="55" viewBox="0 0 188 55" fill="none" xmlns="http://www.w3.org/2000/svg">
<path d="M55.7109 19H53.3359L53.3516 17.7734H55.7109C56.5234 17.7734 57.2005 17.6042 57.7422 17.2656C58.2839 16.9219 58.6901 16.4427 58.9609 15.8281C59.237 15.2083 59.375 14.4844 59.375 13.6562V12.9609C59.375 12.3099 59.2969 11.7318 59.1406 11.2266C58.9844 10.7161 58.7552 10.2865 58.4531 9.9375C58.151 9.58333 57.7812 9.3151 57.3438 9.13281C56.9115 8.95052 56.4141 8.85938 55.8516 8.85938H53.2891V7.625H55.8516C56.5964 7.625 57.276 7.75 57.8906 8C58.5052 8.24479 59.0339 8.60156 59.4766 9.07031C59.9245 9.53385 60.2682 10.0964 60.5078 10.7578C60.7474 11.4141 60.8672 12.1536 60.8672 12.9766V13.6562C60.8672 14.4792 60.7474 15.2214 60.5078 15.8828C60.2682 16.5391 59.9219 17.099 59.4688 17.5625C59.0208 18.026 58.4792 18.3828 57.8438 18.6328C57.2135 18.8776 56.5026 19 55.7109 19ZM54.1406 7.625V19H52.6328V7.625H54.1406ZM64.4844 10.5469V19H63.0312V10.5469H64.4844ZM62.9219 8.30469C62.9219 8.07031 62.9922 7.8724 63.1328 7.71094C63.2786 7.54948 63.4922 7.46875 63.7734 7.46875C64.0495 7.46875 64.2604 7.54948 64.4062 7.71094C64.5573 7.8724 64.6328 8.07031 64.6328 8.30469C64.6328 8.52865 64.5573 8.72135 64.4062 8.88281C64.2604 9.03906 64.0495 9.11719 63.7734 9.11719C63.4922 9.11719 63.2786 9.03906 63.1328 8.88281C62.9922 8.72135 62.9219 8.52865 62.9219 8.30469ZM71.7266 16.7578C71.7266 16.5495 71.6797 16.3568 71.5859 16.1797C71.4974 15.9974 71.3125 15.8333 71.0312 15.6875C70.7552 15.5365 70.3385 15.4062 69.7812 15.2969C69.3125 15.1979 68.888 15.0807 68.5078 14.9453C68.1328 14.8099 67.8125 14.6458 67.5469 14.4531C67.2865 14.2604 67.0859 14.0339 66.9453 13.7734C66.8047 13.513 66.7344 13.2083 66.7344 12.8594C66.7344 12.526 66.8073 12.2109 66.9531 11.9141C67.1042 11.6172 67.3151 11.3542 67.5859 11.125C67.862 10.8958 68.1927 10.7161 68.5781 10.5859C68.9635 10.4557 69.3932 10.3906 69.8672 10.3906C70.5443 10.3906 71.1224 10.5104 71.6016 10.75C72.0807 10.9896 72.4479 11.3099 72.7031 11.7109C72.9583 12.1068 73.0859 12.5469 73.0859 13.0312H71.6406C71.6406 12.7969 71.5703 12.5703 71.4297 12.3516C71.2943 12.1276 71.0938 11.9427 70.8281 11.7969C70.5677 11.651 70.2474 11.5781 69.8672 11.5781C69.4661 11.5781 69.1406 11.6406 68.8906 11.7656C68.6458 11.8854 68.4661 12.0391 68.3516 12.2266C68.2422 12.4141 68.1875 12.612 68.1875 12.8203C68.1875 12.9766 68.2135 13.1172 68.2656 13.2422C68.3229 13.362 68.4219 13.474 68.5625 13.5781C68.7031 13.6771 68.901 13.7708 69.1562 13.8594C69.4115 13.9479 69.737 14.0365 70.1328 14.125C70.8255 14.2812 71.3958 14.4688 71.8438 14.6875C72.2917 14.9062 72.625 15.1745 72.8438 15.4922C73.0625 15.8099 73.1719 16.1953 73.1719 16.6484C73.1719 17.0182 73.0938 17.3568 72.9375 17.6641C72.7865 17.9714 72.5651 18.237 72.2734 18.4609C71.987 18.6797 71.6432 18.8516 71.2422 18.9766C70.8464 19.0964 70.401 19.1562 69.9062 19.1562C69.1615 19.1562 68.5312 19.0234 68.0156 18.7578C67.5 18.4922 67.1094 18.1484 66.8438 17.7266C66.5781 17.3047 66.4453 16.8594 66.4453 16.3906H67.8984C67.9193 16.7865 68.0339 17.1016 68.2422 17.3359C68.4505 17.5651 68.7057 17.7292 69.0078 17.8281C69.3099 17.9219 69.6094 17.9688 69.9062 17.9688C70.3021 17.9688 70.6328 17.9167 70.8984 17.8125C71.1693 17.7083 71.375 17.5651 71.5156 17.3828C71.6562 17.2005 71.7266 16.9922 71.7266 16.7578ZM76.5156 12.1719V22.25H75.0625V10.5469H76.3906L76.5156 12.1719ZM82.2109 14.7031V14.8672C82.2109 15.4818 82.138 16.0521 81.9922 16.5781C81.8464 17.099 81.6328 17.5521 81.3516 17.9375C81.0755 18.3229 80.7344 18.6224 80.3281 18.8359C79.9219 19.0495 79.4557 19.1562 78.9297 19.1562C78.3932 19.1562 77.9193 19.0677 77.5078 18.8906C77.0964 18.7135 76.7474 18.4557 76.4609 18.1172C76.1745 17.7786 75.9453 17.3724 75.7734 16.8984C75.6068 16.4245 75.4922 15.8906 75.4297 15.2969V14.4219C75.4922 13.7969 75.6094 13.237 75.7812 12.7422C75.9531 12.2474 76.1797 11.8255 76.4609 11.4766C76.7474 11.1224 77.0938 10.8542 77.5 10.6719C77.9062 10.4844 78.375 10.3906 78.9062 10.3906C79.4375 10.3906 79.9089 10.4948 80.3203 10.7031C80.7318 10.9062 81.0781 11.1979 81.3594 11.5781C81.6406 11.9583 81.8516 12.4141 81.9922 12.9453C82.138 13.4714 82.2109 14.0573 82.2109 14.7031ZM80.7578 14.8672V14.7031C80.7578 14.2812 80.7135 13.8854 80.625 13.5156C80.5365 13.1406 80.3984 12.8125 80.2109 12.5312C80.0286 12.2448 79.7943 12.0208 79.5078 11.8594C79.2214 11.6927 78.8802 11.6094 78.4844 11.6094C78.1198 11.6094 77.8021 11.6719 77.5312 11.7969C77.2656 11.9219 77.0391 12.0911 76.8516 12.3047C76.6641 12.513 76.5104 12.7526 76.3906 13.0234C76.276 13.2891 76.1901 13.5651 76.1328 13.8516V15.875C76.237 16.2396 76.3828 16.5833 76.5703 16.9062C76.7578 17.224 77.0078 17.4818 77.3203 17.6797C77.6328 17.8724 78.026 17.9688 78.5 17.9688C78.8906 17.9688 79.2266 17.888 79.5078 17.7266C79.7943 17.5599 80.0286 17.3333 80.2109 17.0469C80.3984 16.7604 80.5365 16.4323 80.625 16.0625C80.7135 15.6875 80.7578 15.2891 80.7578 14.8672ZM83.6719 14.8672V14.6875C83.6719 14.0781 83.7604 13.513 83.9375 12.9922C84.1146 12.4661 84.3698 12.0104 84.7031 11.625C85.0365 11.2344 85.4401 10.9323 85.9141 10.7188C86.388 10.5 86.9193 10.3906 87.5078 10.3906C88.1016 10.3906 88.6354 10.5 89.1094 10.7188C89.5885 10.9323 89.9948 11.2344 90.3281 11.625C90.6667 12.0104 90.9245 12.4661 91.1016 12.9922C91.2786 13.513 91.3672 14.0781 91.3672 14.6875V14.8672C91.3672 15.4766 91.2786 16.0417 91.1016 16.5625C90.9245 17.0833 90.6667 17.5391 90.3281 17.9297C89.9948 18.3151 89.5911 18.6172 89.1172 18.8359C88.6484 19.0495 88.1172 19.1562 87.5234 19.1562C86.9297 19.1562 86.3958 19.0495 85.9219 18.8359C85.4479 18.6172 85.0417 18.3151 84.7031 17.9297C84.3698 17.5391 84.1146 17.0833 83.9375 16.5625C83.7604 16.0417 83.6719 15.4766 83.6719 14.8672ZM85.1172 14.6875V14.8672C85.1172 15.2891 85.1667 15.6875 85.2656 16.0625C85.3646 16.4323 85.513 16.7604 85.7109 17.0469C85.9141 17.3333 86.1667 17.5599 86.4688 17.7266C86.7708 17.888 87.1224 17.9688 87.5234 17.9688C87.9193 17.9688 88.2656 17.888 88.5625 17.7266C88.8646 17.5599 89.1146 17.3333 89.3125 17.0469C89.5104 16.7604 89.6589 16.4323 89.7578 16.0625C89.862 15.6875 89.9141 15.2891 89.9141 14.8672V14.6875C89.9141 14.2708 89.862 13.8776 89.7578 13.5078C89.6589 13.1328 89.5078 12.8021 89.3047 12.5156C89.1068 12.224 88.8568 11.9948 88.5547 11.8281C88.2578 11.6615 87.9089 11.5781 87.5078 11.5781C87.112 11.5781 86.763 11.6615 86.4609 11.8281C86.1641 11.9948 85.9141 12.224 85.7109 12.5156C85.513 12.8021 85.3646 13.1328 85.2656 13.5078C85.1667 13.8776 85.1172 14.2708 85.1172 14.6875ZM94.625 12.3516V19H93.1797V10.5469H94.5469L94.625 12.3516ZM94.2812 14.4531L93.6797 14.4297C93.6849 13.8516 93.7708 13.3177 93.9375 12.8281C94.1042 12.3333 94.3385 11.9036 94.6406 11.5391C94.9427 11.1745 95.3021 10.8932 95.7188 10.6953C96.1406 10.4922 96.6068 10.3906 97.1172 10.3906C97.5339 10.3906 97.9089 10.4479 98.2422 10.5625C98.5755 10.6719 98.8594 10.849 99.0938 11.0938C99.3333 11.3385 99.5156 11.6562 99.6406 12.0469C99.7656 12.4323 99.8281 12.9036 99.8281 13.4609V19H98.375V13.4453C98.375 13.0026 98.3099 12.6484 98.1797 12.3828C98.0495 12.112 97.8594 11.9167 97.6094 11.7969C97.3594 11.6719 97.0521 11.6094 96.6875 11.6094C96.3281 11.6094 96 11.6849 95.7031 11.8359C95.4115 11.987 95.1589 12.1953 94.9453 12.4609C94.737 12.7266 94.5729 13.0312 94.4531 13.375C94.3385 13.7135 94.2812 14.0729 94.2812 14.4531ZM103.594 10.5469V19H102.141V10.5469H103.594ZM102.031 8.30469C102.031 8.07031 102.102 7.8724 102.242 7.71094C102.388 7.54948 102.602 7.46875 102.883 7.46875C103.159 7.46875 103.37 7.54948 103.516 7.71094C103.667 7.8724 103.742 8.07031 103.742 8.30469C103.742 8.52865 103.667 8.72135 103.516 8.88281C103.37 9.03906 103.159 9.11719 102.883 9.11719C102.602 9.11719 102.388 9.03906 102.242 8.88281C102.102 8.72135 102.031 8.52865 102.031 8.30469ZM108.484 17.6953L110.797 10.5469H112.273L109.234 19H108.266L108.484 17.6953ZM106.555 10.5469L108.938 17.7344L109.102 19H108.133L105.07 10.5469H106.555ZM117.062 19.1562C116.474 19.1562 115.94 19.0573 115.461 18.8594C114.987 18.6562 114.578 18.3724 114.234 18.0078C113.896 17.6432 113.635 17.2109 113.453 16.7109C113.271 16.2109 113.18 15.6641 113.18 15.0703V14.7422C113.18 14.0547 113.281 13.4427 113.484 12.9062C113.688 12.3646 113.964 11.9062 114.312 11.5312C114.661 11.1562 115.057 10.8724 115.5 10.6797C115.943 10.487 116.401 10.3906 116.875 10.3906C117.479 10.3906 118 10.4948 118.438 10.7031C118.88 10.9115 119.242 11.2031 119.523 11.5781C119.805 11.9479 120.013 12.3854 120.148 12.8906C120.284 13.3906 120.352 13.9375 120.352 14.5312V15.1797H114.039V14H118.906V13.8906C118.885 13.5156 118.807 13.151 118.672 12.7969C118.542 12.4427 118.333 12.151 118.047 11.9219C117.76 11.6927 117.37 11.5781 116.875 11.5781C116.547 11.5781 116.245 11.6484 115.969 11.7891C115.693 11.9245 115.456 12.1276 115.258 12.3984C115.06 12.6693 114.906 13 114.797 13.3906C114.688 13.7812 114.633 14.2318 114.633 14.7422V15.0703C114.633 15.4714 114.688 15.849 114.797 16.2031C114.911 16.5521 115.076 16.8594 115.289 17.125C115.508 17.3906 115.771 17.599 116.078 17.75C116.391 17.901 116.745 17.9766 117.141 17.9766C117.651 17.9766 118.083 17.8724 118.438 17.6641C118.792 17.4557 119.102 17.1771 119.367 16.8281L120.242 17.5234C120.06 17.7995 119.828 18.0625 119.547 18.3125C119.266 18.5625 118.919 18.7656 118.508 18.9219C118.102 19.0781 117.62 19.1562 117.062 19.1562ZM123.609 7V19H122.156V7H123.609ZM131.344 12.3516V19H129.898V10.5469H131.266L131.344 12.3516ZM131 14.4531L130.398 14.4297C130.404 13.8516 130.49 13.3177 130.656 12.8281C130.823 12.3333 131.057 11.9036 131.359 11.5391C131.661 11.1745 132.021 10.8932 132.438 10.6953C132.859 10.4922 133.326 10.3906 133.836 10.3906C134.253 10.3906 134.628 10.4479 134.961 10.5625C135.294 10.6719 135.578 10.849 135.812 11.0938C136.052 11.3385 136.234 11.6562 136.359 12.0469C136.484 12.4323 136.547 12.9036 136.547 13.4609V19H135.094V13.4453C135.094 13.0026 135.029 12.6484 134.898 12.3828C134.768 12.112 134.578 11.9167 134.328 11.7969C134.078 11.6719 133.771 11.6094 133.406 11.6094C133.047 11.6094 132.719 11.6849 132.422 11.8359C132.13 11.987 131.878 12.1953 131.664 12.4609C131.456 12.7266 131.292 13.0312 131.172 13.375C131.057 13.7135 131 14.0729 131 14.4531ZM143.727 17.5547V13.2031C143.727 12.8698 143.659 12.5807 143.523 12.3359C143.393 12.0859 143.195 11.8932 142.93 11.7578C142.664 11.6224 142.336 11.5547 141.945 11.5547C141.581 11.5547 141.26 11.6172 140.984 11.7422C140.714 11.8672 140.5 12.0312 140.344 12.2344C140.193 12.4375 140.117 12.6562 140.117 12.8906H138.672C138.672 12.5885 138.75 12.2891 138.906 11.9922C139.062 11.6953 139.286 11.4271 139.578 11.1875C139.875 10.9427 140.229 10.75 140.641 10.6094C141.057 10.4635 141.521 10.3906 142.031 10.3906C142.646 10.3906 143.188 10.4948 143.656 10.7031C144.13 10.9115 144.5 11.2266 144.766 11.6484C145.036 12.0651 145.172 12.5885 145.172 13.2188V17.1562C145.172 17.4375 145.195 17.737 145.242 18.0547C145.294 18.3724 145.37 18.6458 145.469 18.875V19H143.961C143.888 18.8333 143.831 18.612 143.789 18.3359C143.747 18.0547 143.727 17.7943 143.727 17.5547ZM143.977 13.875L143.992 14.8906H142.531C142.12 14.8906 141.753 14.9245 141.43 14.9922C141.107 15.0547 140.836 15.151 140.617 15.2812C140.398 15.4115 140.232 15.5755 140.117 15.7734C140.003 15.9661 139.945 16.1927 139.945 16.4531C139.945 16.7188 140.005 16.9609 140.125 17.1797C140.245 17.3984 140.424 17.5729 140.664 17.7031C140.909 17.8281 141.208 17.8906 141.562 17.8906C142.005 17.8906 142.396 17.7969 142.734 17.6094C143.073 17.4219 143.341 17.1927 143.539 16.9219C143.742 16.651 143.852 16.388 143.867 16.1328L144.484 16.8281C144.448 17.0469 144.349 17.2891 144.188 17.5547C144.026 17.8203 143.81 18.0755 143.539 18.3203C143.273 18.5599 142.956 18.7604 142.586 18.9219C142.221 19.0781 141.81 19.1562 141.352 19.1562C140.779 19.1562 140.276 19.0443 139.844 18.8203C139.417 18.5964 139.083 18.2969 138.844 17.9219C138.609 17.5417 138.492 17.1172 138.492 16.6484C138.492 16.1953 138.581 15.7969 138.758 15.4531C138.935 15.1042 139.19 14.8151 139.523 14.5859C139.857 14.3516 140.258 14.1745 140.727 14.0547C141.195 13.9349 141.719 13.875 142.297 13.875H143.977Z" fill="#333333"/>
<path d="M66.3594 36.082V42.8438C66.0938 43.1641 65.6836 43.5117 65.1289 43.8867C64.5742 44.2539 63.8594 44.5703 62.9844 44.8359C62.1094 45.1016 61.0508 45.2344 59.8086 45.2344C58.707 45.2344 57.7031 45.0547 56.7969 44.6953C55.8906 44.3281 55.1094 43.793 54.4531 43.0898C53.8047 42.3867 53.3047 41.5273 52.9531 40.5117C52.6016 39.4883 52.4258 38.3203 52.4258 37.0078V35.9414C52.4258 34.6289 52.5938 33.4609 52.9297 32.4375C53.2734 31.4141 53.7617 30.5508 54.3945 29.8477C55.0273 29.1445 55.7812 28.6094 56.6562 28.2422C57.5312 27.875 58.5039 27.6914 59.5742 27.6914C61.0586 27.6914 62.2773 27.9336 63.2305 28.418C64.1836 28.8945 64.9102 29.5586 65.4102 30.4102C65.918 31.2539 66.2305 32.2227 66.3477 33.3164H62.9375C62.8516 32.7383 62.6875 32.2344 62.4453 31.8047C62.2031 31.375 61.8555 31.0391 61.4023 30.7969C60.957 30.5547 60.3789 30.4336 59.668 30.4336C59.082 30.4336 58.5586 30.5547 58.0977 30.7969C57.6445 31.0312 57.2617 31.3789 56.9492 31.8398C56.6367 32.3008 56.3984 32.8711 56.2344 33.5508C56.0703 34.2305 55.9883 35.0195 55.9883 35.918V37.0078C55.9883 37.8984 56.0742 38.6875 56.2461 39.375C56.418 40.0547 56.6719 40.6289 57.0078 41.0977C57.3516 41.5586 57.7734 41.9062 58.2734 42.1406C58.7734 42.375 59.3555 42.4922 60.0195 42.4922C60.5742 42.4922 61.0352 42.4453 61.4023 42.3516C61.7773 42.2578 62.0781 42.1445 62.3047 42.0117C62.5391 41.8711 62.7188 41.7383 62.8438 41.6133V38.5898H59.6328V36.082H66.3594ZM68.4453 38.7891V38.543C68.4453 37.6133 68.5781 36.7578 68.8438 35.9766C69.1094 35.1875 69.4961 34.5039 70.0039 33.9258C70.5117 33.3477 71.1367 32.8984 71.8789 32.5781C72.6211 32.25 73.4727 32.0859 74.4336 32.0859C75.3945 32.0859 76.25 32.25 77 32.5781C77.75 32.8984 78.3789 33.3477 78.8867 33.9258C79.4023 34.5039 79.793 35.1875 80.0586 35.9766C80.3242 36.7578 80.457 37.6133 80.457 38.543V38.7891C80.457 39.7109 80.3242 40.5664 80.0586 41.3555C79.793 42.1367 79.4023 42.8203 78.8867 43.4062C78.3789 43.9844 77.7539 44.4336 77.0117 44.7539C76.2695 45.0742 75.418 45.2344 74.457 45.2344C73.4961 45.2344 72.6406 45.0742 71.8906 44.7539C71.1484 44.4336 70.5195 43.9844 70.0039 43.4062C69.4961 42.8203 69.1094 42.1367 68.8438 41.3555C68.5781 40.5664 68.4453 39.7109 68.4453 38.7891ZM71.8203 38.543V38.7891C71.8203 39.3203 71.8672 39.8164 71.9609 40.2773C72.0547 40.7383 72.2031 41.1445 72.4062 41.4961C72.6172 41.8398 72.8906 42.1094 73.2266 42.3047C73.5625 42.5 73.9727 42.5977 74.457 42.5977C74.9258 42.5977 75.3281 42.5 75.6641 42.3047C76 42.1094 76.2695 41.8398 76.4727 41.4961C76.6758 41.1445 76.8242 40.7383 76.918 40.2773C77.0195 39.8164 77.0703 39.3203 77.0703 38.7891V38.543C77.0703 38.0273 77.0195 37.543 76.918 37.0898C76.8242 36.6289 76.6719 36.2227 76.4609 35.8711C76.2578 35.5117 75.9883 35.2305 75.6523 35.0273C75.3164 34.8242 74.9102 34.7227 74.4336 34.7227C73.957 34.7227 73.5508 34.8242 73.2148 35.0273C72.8867 35.2305 72.6172 35.5117 72.4062 35.8711C72.2031 36.2227 72.0547 36.6289 71.9609 37.0898C71.8672 37.543 71.8203 38.0273 71.8203 38.543ZM81.9922 38.7891V38.543C81.9922 37.6133 82.125 36.7578 82.3906 35.9766C82.6562 35.1875 83.043 34.5039 83.5508 33.9258C84.0586 33.3477 84.6836 32.8984 85.4258 32.5781C86.168 32.25 87.0195 32.0859 87.9805 32.0859C88.9414 32.0859 89.7969 32.25 90.5469 32.5781C91.2969 32.8984 91.9258 33.3477 92.4336 33.9258C92.9492 34.5039 93.3398 35.1875 93.6055 35.9766C93.8711 36.7578 94.0039 37.6133 94.0039 38.543V38.7891C94.0039 39.7109 93.8711 40.5664 93.6055 41.3555C93.3398 42.1367 92.9492 42.8203 92.4336 43.4062C91.9258 43.9844 91.3008 44.4336 90.5586 44.7539C89.8164 45.0742 88.9648 45.2344 88.0039 45.2344C87.043 45.2344 86.1875 45.0742 85.4375 44.7539C84.6953 44.4336 84.0664 43.9844 83.5508 43.4062C83.043 42.8203 82.6562 42.1367 82.3906 41.3555C82.125 40.5664 81.9922 39.7109 81.9922 38.7891ZM85.3672 38.543V38.7891C85.3672 39.3203 85.4141 39.8164 85.5078 40.2773C85.6016 40.7383 85.75 41.1445 85.9531 41.4961C86.1641 41.8398 86.4375 42.1094 86.7734 42.3047C87.1094 42.5 87.5195 42.5977 88.0039 42.5977C88.4727 42.5977 88.875 42.5 89.2109 42.3047C89.5469 42.1094 89.8164 41.8398 90.0195 41.4961C90.2227 41.1445 90.3711 40.7383 90.4648 40.2773C90.5664 39.8164 90.6172 39.3203 90.6172 38.7891V38.543C90.6172 38.0273 90.5664 37.543 90.4648 37.0898C90.3711 36.6289 90.2188 36.2227 90.0078 35.8711C89.8047 35.5117 89.5352 35.2305 89.1992 35.0273C88.8633 34.8242 88.457 34.7227 87.9805 34.7227C87.5039 34.7227 87.0977 34.8242 86.7617 35.0273C86.4336 35.2305 86.1641 35.5117 85.9531 35.8711C85.75 36.2227 85.6016 36.6289 85.5078 37.0898C85.4141 37.543 85.3672 38.0273 85.3672 38.543ZM104.105 32.3203H107.164V44.5781C107.164 45.7344 106.906 46.7148 106.391 47.5195C105.883 48.332 105.172 48.9453 104.258 49.3594C103.344 49.7812 102.281 49.9922 101.07 49.9922C100.539 49.9922 99.9766 49.9219 99.3828 49.7812C98.7969 49.6406 98.2344 49.4219 97.6953 49.125C97.1641 48.8281 96.7188 48.4531 96.3594 48L97.8477 46.0078C98.2383 46.4609 98.6914 46.8125 99.207 47.0625C99.7227 47.3203 100.293 47.4492 100.918 47.4492C101.527 47.4492 102.043 47.3359 102.465 47.1094C102.887 46.8906 103.211 46.5664 103.438 46.1367C103.664 45.7148 103.777 45.2031 103.777 44.6016V35.25L104.105 32.3203ZM95.5742 38.8125V38.5664C95.5742 37.5977 95.6914 36.7188 95.9258 35.9297C96.168 35.1328 96.5078 34.4492 96.9453 33.8789C97.3906 33.3086 97.9297 32.8672 98.5625 32.5547C99.1953 32.2422 99.9102 32.0859 100.707 32.0859C101.551 32.0859 102.258 32.2422 102.828 32.5547C103.398 32.8672 103.867 33.3125 104.234 33.8906C104.602 34.4609 104.887 35.1367 105.09 35.918C105.301 36.6914 105.465 37.5391 105.582 38.4609V39C105.465 39.8828 105.289 40.7031 105.055 41.4609C104.82 42.2188 104.512 42.8828 104.129 43.4531C103.746 44.0156 103.27 44.4531 102.699 44.7656C102.137 45.0781 101.465 45.2344 100.684 45.2344C99.9023 45.2344 99.1953 45.0742 98.5625 44.7539C97.9375 44.4336 97.4023 43.9844 96.957 43.4062C96.5117 42.8281 96.168 42.1484 95.9258 41.3672C95.6914 40.5859 95.5742 39.7344 95.5742 38.8125ZM98.9492 38.5664V38.8125C98.9492 39.3359 99 39.8242 99.1016 40.2773C99.2031 40.7305 99.3594 41.1328 99.5703 41.4844C99.7891 41.8281 100.059 42.0977 100.379 42.293C100.707 42.4805 101.094 42.5742 101.539 42.5742C102.156 42.5742 102.66 42.4453 103.051 42.1875C103.441 41.9219 103.734 41.5586 103.93 41.0977C104.125 40.6367 104.238 40.1055 104.27 39.5039V37.9688C104.254 37.4766 104.188 37.0352 104.07 36.6445C103.953 36.2461 103.789 35.9062 103.578 35.625C103.367 35.3438 103.094 35.125 102.758 34.9688C102.422 34.8125 102.023 34.7344 101.562 34.7344C101.117 34.7344 100.73 34.8359 100.402 35.0391C100.082 35.2344 99.8125 35.5039 99.5938 35.8477C99.3828 36.1914 99.2227 36.5977 99.1133 37.0664C99.0039 37.5273 98.9492 38.0273 98.9492 38.5664ZM113.352 27V45H109.965V27H113.352ZM121.977 45.2344C120.992 45.2344 120.109 45.0781 119.328 44.7656C118.547 44.4453 117.883 44.0039 117.336 43.4414C116.797 42.8789 116.383 42.2266 116.094 41.4844C115.805 40.7344 115.66 39.9375 115.66 39.0938V38.625C115.66 37.6641 115.797 36.7852 116.07 35.9883C116.344 35.1914 116.734 34.5 117.242 33.9141C117.758 33.3281 118.383 32.8789 119.117 32.5664C119.852 32.2461 120.68 32.0859 121.602 32.0859C122.5 32.0859 123.297 32.2344 123.992 32.5312C124.688 32.8281 125.27 33.25 125.738 33.7969C126.215 34.3438 126.574 35 126.816 35.7656C127.059 36.5234 127.18 37.3672 127.18 38.2969V39.7031H117.102V37.4531H123.863V37.1953C123.863 36.7266 123.777 36.3086 123.605 35.9414C123.441 35.5664 123.191 35.2695 122.855 35.0508C122.52 34.832 122.09 34.7227 121.566 34.7227C121.121 34.7227 120.738 34.8203 120.418 35.0156C120.098 35.2109 119.836 35.4844 119.633 35.8359C119.438 36.1875 119.289 36.6016 119.188 37.0781C119.094 37.5469 119.047 38.0625 119.047 38.625V39.0938C119.047 39.6016 119.117 40.0703 119.258 40.5C119.406 40.9297 119.613 41.3008 119.879 41.6133C120.152 41.9258 120.48 42.168 120.863 42.3398C121.254 42.5117 121.695 42.5977 122.188 42.5977C122.797 42.5977 123.363 42.4805 123.887 42.2461C124.418 42.0039 124.875 41.6406 125.258 41.1562L126.898 42.9375C126.633 43.3203 126.27 43.6875 125.809 44.0391C125.355 44.3906 124.809 44.6797 124.168 44.9062C123.527 45.125 122.797 45.2344 121.977 45.2344ZM141.934 38.918H137.586V36.1758H141.934C142.605 36.1758 143.152 36.0664 143.574 35.8477C143.996 35.6211 144.305 35.3086 144.5 34.9102C144.695 34.5117 144.793 34.0625 144.793 33.5625C144.793 33.0547 144.695 32.582 144.5 32.1445C144.305 31.707 143.996 31.3555 143.574 31.0898C143.152 30.8242 142.605 30.6914 141.934 30.6914H138.805V45H135.289V27.9375H141.934C143.27 27.9375 144.414 28.1797 145.367 28.6641C146.328 29.1406 147.062 29.8008 147.57 30.6445C148.078 31.4883 148.332 32.4531 148.332 33.5391C148.332 34.6406 148.078 35.5938 147.57 36.3984C147.062 37.2031 146.328 37.8242 145.367 38.2617C144.414 38.6992 143.27 38.918 141.934 38.918ZM154.109 27V45H150.723V27H154.109ZM163.742 42.1406V36.4922C163.742 36.0859 163.676 35.7383 163.543 35.4492C163.41 35.1523 163.203 34.9219 162.922 34.7578C162.648 34.5938 162.293 34.5117 161.855 34.5117C161.48 34.5117 161.156 34.5781 160.883 34.7109C160.609 34.8359 160.398 35.0195 160.25 35.2617C160.102 35.4961 160.027 35.7734 160.027 36.0938H156.652C156.652 35.5547 156.777 35.043 157.027 34.5586C157.277 34.0742 157.641 33.6484 158.117 33.2812C158.594 32.9062 159.16 32.6133 159.816 32.4023C160.48 32.1914 161.223 32.0859 162.043 32.0859C163.027 32.0859 163.902 32.25 164.668 32.5781C165.434 32.9062 166.035 33.3984 166.473 34.0547C166.918 34.7109 167.141 35.5312 167.141 36.5156V41.9414C167.141 42.6367 167.184 43.207 167.27 43.6523C167.355 44.0898 167.48 44.4727 167.645 44.8008V45H164.234C164.07 44.6562 163.945 44.2266 163.859 43.7109C163.781 43.1875 163.742 42.6641 163.742 42.1406ZM164.188 37.2773L164.211 39.1875H162.324C161.879 39.1875 161.492 39.2383 161.164 39.3398C160.836 39.4414 160.566 39.5859 160.355 39.7734C160.145 39.9531 159.988 40.1641 159.887 40.4062C159.793 40.6484 159.746 40.9141 159.746 41.2031C159.746 41.4922 159.812 41.7539 159.945 41.9883C160.078 42.2148 160.27 42.3945 160.52 42.5273C160.77 42.6523 161.062 42.7148 161.398 42.7148C161.906 42.7148 162.348 42.6133 162.723 42.4102C163.098 42.207 163.387 41.957 163.59 41.6602C163.801 41.3633 163.91 41.082 163.918 40.8164L164.809 42.2461C164.684 42.5664 164.512 42.8984 164.293 43.2422C164.082 43.5859 163.812 43.9102 163.484 44.2148C163.156 44.5117 162.762 44.7578 162.301 44.9531C161.84 45.1406 161.293 45.2344 160.66 45.2344C159.855 45.2344 159.125 45.0742 158.469 44.7539C157.82 44.4258 157.305 43.9766 156.922 43.4062C156.547 42.8281 156.359 42.1719 156.359 41.4375C156.359 40.7734 156.484 40.1836 156.734 39.668C156.984 39.1523 157.352 38.7188 157.836 38.3672C158.328 38.0078 158.941 37.7383 159.676 37.5586C160.41 37.3711 161.262 37.2773 162.23 37.2773H164.188ZM173.316 43.5703L176.68 32.3203H180.301L175.203 46.9102C175.094 47.2305 174.945 47.5742 174.758 47.9414C174.578 48.3086 174.332 48.6562 174.02 48.9844C173.715 49.3203 173.328 49.5938 172.859 49.8047C172.398 50.0156 171.832 50.1211 171.16 50.1211C170.84 50.1211 170.578 50.1016 170.375 50.0625C170.172 50.0234 169.93 49.9688 169.648 49.8984V47.4258C169.734 47.4258 169.824 47.4258 169.918 47.4258C170.012 47.4336 170.102 47.4375 170.188 47.4375C170.633 47.4375 170.996 47.3867 171.277 47.2852C171.559 47.1836 171.785 47.0273 171.957 46.8164C172.129 46.6133 172.266 46.3477 172.367 46.0195L173.316 43.5703ZM171.91 32.3203L174.664 41.5078L175.145 45.082L172.848 45.3281L168.289 32.3203H171.91Z" fill="#333333"/>
<path d="M8.29492 7.90625C7.89514 7.9154 7.50146 8.02526 7.14135 8.24194C7.07116 8.28161 7.01929 8.34265 6.95215 8.38843C6.91552 8.41894 6.86975 8.4342 6.83618 8.47082C6.83313 8.47693 6.83008 8.48303 6.82397 8.48913C6.31128 8.92859 6 9.55725 6 10.2531V47.2007C6 48.0369 6.42725 48.7876 7.14136 49.2148C7.51672 49.4346 7.92871 49.5475 8.34375 49.5475C8.72217 49.5475 9.10669 49.4529 9.45764 49.2637L43.6709 30.7914C44.4277 30.3824 44.9008 29.589 44.9008 28.7284C44.9008 27.8647 44.4277 27.0743 43.6709 26.6654L9.45764 8.19311C9.09143 7.9917 8.69165 7.89709 8.29492 7.90625H8.29492ZM9.65906 10.073L33.2583 22.8202L7.57471 47.2648C7.57165 47.2434 7.5625 47.2281 7.5625 47.2007V10.253C7.5625 10.2469 7.56555 10.2469 7.56555 10.2408L21.2832 23.2993C21.4358 23.4427 21.6311 23.5129 21.8234 23.5129C22.0309 23.5129 22.2354 23.4305 22.3879 23.2718C22.687 22.9575 22.6718 22.4631 22.3605 22.1641L9.65906 10.073ZM9.90625 16.2284C9.47595 16.2284 9.125 16.5763 9.125 17.0096C9.125 17.443 9.47595 17.7909 9.90625 17.7909H11.4687C11.899 17.7909 12.25 17.443 12.25 17.0096C12.25 16.5763 11.899 16.2284 11.4687 16.2284H9.90625ZM9.90625 20.1346C9.47595 20.1346 9.125 20.4825 9.125 20.9159C9.125 21.3492 9.47595 21.6971 9.90625 21.6971H11.4687C11.899 21.6971 12.25 21.3492 12.25 20.9159C12.25 20.4825 11.899 20.1346 11.4687 20.1346H9.90625ZM34.7018 23.6014L42.9263 28.0387C43.2955 28.2401 43.3352 28.588 43.3352 28.7284C43.3352 28.8688 43.2955 29.2136 42.9263 29.415L34.6621 33.8767L30.4293 29.8484C30.118 29.5524 29.6237 29.5615 29.3276 29.8759C29.0286 30.1871 29.0408 30.6815 29.3521 30.9775L33.2186 34.658L9.80249 47.3014L34.7018 23.6014ZM9.90625 24.0409C9.47595 24.0409 9.125 24.3888 9.125 24.8221C9.125 25.2555 9.47595 25.6034 9.90625 25.6034H11.4687C11.899 25.6034 12.25 25.2555 12.25 24.8221C12.25 24.3888 11.899 24.0409 11.4687 24.0409H9.90625ZM24.3929 24.4163C24.1915 24.4224 23.9932 24.5017 23.8436 24.6573C23.5476 24.9686 23.5598 25.463 23.8711 25.7621L25.6411 27.4497C25.7937 27.5931 25.986 27.6603 26.1782 27.6603C26.3857 27.6603 26.5933 27.5809 26.7489 27.4192C27.0449 27.1079 27.0327 26.6135 26.7184 26.3144L24.9484 24.6299C24.7927 24.4803 24.5913 24.4102 24.3929 24.4163H24.3929ZM9.90625 27.9471C9.47595 27.9471 9.125 28.295 9.125 28.7284C9.125 29.1617 9.47595 29.5096 9.90625 29.5096H11.4687C11.899 29.5096 12.25 29.1617 12.25 28.7284C12.25 28.295 11.899 27.9471 11.4687 27.9471H9.90625ZM9.90625 31.8534C9.47595 31.8534 9.125 32.2013 9.125 32.6346C9.125 33.068 9.47595 33.4159 9.90625 33.4159H11.4687C11.899 33.4159 12.25 33.068 12.25 32.6346C12.25 32.2013 11.899 31.8534 11.4687 31.8534H9.90625ZM9.90625 35.7596C9.47595 35.7596 9.125 36.1075 9.125 36.5409C9.125 36.9742 9.47595 37.3221 9.90625 37.3221H11.4687C11.899 37.3221 12.25 36.9742 12.25 36.5409C12.25 36.1075 11.899 35.7596 11.4687 35.7596H9.90625ZM9.90625 39.6659C9.47595 39.6659 9.125 40.0138 9.125 40.4471C9.125 40.8805 9.47595 41.2284 9.90625 41.2284H11.4687C11.899 41.2284 12.25 40.8805 12.25 40.4471C12.25 40.0138 11.899 39.6659 11.4687 39.6659H9.90625Z" fill="#333333"/>
<rect x="0.5" y="0.5" width="186.31" height="54" rx="4.5" stroke="black"/>
</svg>
