<svg width="188" height="55" viewBox="0 0 188 55" fill="none" xmlns="http://www.w3.org/2000/svg">
<path d="M13.4687 7.6875C10.4539 7.6875 8 10.1406 8 13.1562V42.8437C8 45.8594 10.4539 48.3125 13.4687 48.3125H43.1562C46.1711 48.3125 48.625 45.8594 48.625 42.8437V13.1562C48.625 10.1406 46.1711 7.6875 43.1562 7.6875H13.4687ZM13.4687 9.25H43.1562C45.3102 9.25 47.0625 11.0023 47.0625 13.1562V42.8437C47.0625 44.9977 45.3102 46.75 43.1562 46.75H13.4687C11.3148 46.75 9.5625 44.9977 9.5625 42.8437V13.1562C9.5625 11.0023 11.3148 9.25 13.4687 9.25ZM25.9993 12.346C25.5332 12.3183 25.0693 12.43 24.658 12.6725C23.5283 13.3382 23.1464 14.8043 23.8081 15.941L25.4118 18.6982L20.056 27.91H15.8491C14.5374 27.91 13.4703 28.9749 13.4703 30.2842C13.4703 31.5936 14.5374 32.6585 15.8491 32.6585H30.1176C30.4637 32.6585 30.7692 32.429 30.8668 32.097C31.141 31.1673 31.0364 30.1735 30.5723 29.3001C30.5669 29.2907 30.561 29.2827 30.5555 29.2726L30.3526 28.9293C30.1534 28.6246 29.9482 28.3685 29.7239 28.1419C29.5771 27.9943 29.3771 27.91 29.1685 27.91H25.5659L32.5255 15.9425C33.1856 14.8074 32.806 13.3405 31.6771 12.6726C31.1271 12.3483 30.4853 12.2591 29.8704 12.4208C29.254 12.5833 28.7396 12.9778 28.4208 13.5286L28.1691 13.9604L27.9173 13.5286C27.5962 12.9762 27.0811 12.5825 26.4647 12.4208C26.3104 12.3805 26.1546 12.3552 25.9993 12.346V12.346ZM25.7505 13.9131C25.8549 13.8985 25.9632 13.9041 26.0679 13.9314C26.2789 13.9869 26.4544 14.1222 26.5654 14.3129L27.2642 15.5137L26.3151 17.1449L25.1585 15.1552C24.928 14.7591 25.0601 14.2496 25.4515 14.0184C25.5456 13.9633 25.6462 13.9276 25.7505 13.9131V13.9131ZM30.5845 13.9131C30.6889 13.9274 30.7902 13.9622 30.8836 14.0168C31.275 14.2489 31.4063 14.7606 31.1766 15.1567L23.7608 27.9084H21.8626L29.7712 14.3113C29.8806 14.1215 30.057 13.9869 30.2672 13.9314C30.3726 13.9044 30.4801 13.8987 30.5845 13.9131V13.9131ZM31.4116 20.3401C31.1437 20.3402 30.8766 20.4607 30.7371 20.7017L29.8903 22.165C29.3371 23.3572 29.2544 24.7067 29.6583 25.9645C29.6755 26.0176 29.6981 26.0702 29.727 26.1186L36.0899 37.0591C36.5149 37.7888 37.3031 38.2417 38.1453 38.2417C38.5687 38.2417 38.9859 38.1277 39.3492 37.9121C40.4781 37.2457 40.8578 35.7796 40.196 34.6421L39.041 32.657H40.7759C42.0876 32.657 43.1547 31.5921 43.1547 30.2827C43.1547 28.9733 42.0891 27.91 40.7774 27.91H36.2791L32.0875 20.7017C31.9477 20.4611 31.6794 20.34 31.4116 20.3401L31.4116 20.3401ZM31.4131 22.6503L38.8456 35.4295C39.0761 35.8256 38.9456 36.3358 38.5527 36.5678C38.1785 36.7905 37.6614 36.6522 37.4403 36.2733L31.1232 25.4106C30.8669 24.5496 30.932 23.636 31.2758 22.8868L31.4131 22.6503ZM15.8476 29.4725H28.8206C28.8933 29.5623 28.9618 29.6571 29.0251 29.7532L29.199 30.0477C29.3725 30.379 29.4593 30.739 29.4539 31.096H15.8476C15.3968 31.096 15.0313 30.7319 15.0313 30.2842C15.0313 29.8366 15.3976 29.4725 15.8476 29.4725H15.8476ZM37.1885 29.4725H40.7759C41.2267 29.4725 41.5922 29.8366 41.5922 30.2842C41.5922 30.7319 41.2274 31.096 40.7774 31.096H38.1331L37.1885 29.4725ZM18.347 33.2689C17.972 33.2618 17.5907 33.2951 17.1782 33.3787C16.9594 33.4233 16.7703 33.5573 16.6578 33.751L16.139 34.6437C15.4781 35.7804 15.8601 37.2465 16.9874 37.9121C17.3523 38.1277 17.7679 38.2432 18.1913 38.2432C19.0343 38.2432 19.8217 37.7904 20.2467 37.0591L21.1683 35.4738C21.3363 35.1855 21.3009 34.8205 21.0814 34.5689C20.3821 33.7611 19.4126 33.3009 18.347 33.2689ZM18.3058 34.8314C18.7425 34.8446 19.1544 34.9827 19.5021 35.2296L18.8963 36.2733C18.6775 36.6483 18.1598 36.7889 17.7824 36.5663C17.391 36.335 17.259 35.8256 17.4894 35.4295L17.8221 34.8558C17.99 34.8355 18.1503 34.8267 18.3058 34.8314ZM12.6875 40.5C12.2555 40.5 11.9062 40.85 11.9062 41.2812V42.8437C11.9062 43.275 12.2555 43.625 12.6875 43.625C13.1195 43.625 13.4687 43.275 13.4687 42.8437V41.2812C13.4687 40.85 13.1195 40.5 12.6875 40.5ZM16.5937 40.5C16.1617 40.5 15.8125 40.85 15.8125 41.2812V42.8437C15.8125 43.275 16.1617 43.625 16.5937 43.625C17.0258 43.625 17.375 43.275 17.375 42.8437V41.2812C17.375 40.85 17.0258 40.5 16.5937 40.5ZM20.5 40.5C20.068 40.5 19.7187 40.85 19.7187 41.2812V42.8437C19.7187 43.275 20.068 43.625 20.5 43.625C20.932 43.625 21.2812 43.275 21.2812 42.8437V41.2812C21.2812 40.85 20.932 40.5 20.5 40.5ZM24.4062 40.5C23.9742 40.5 23.625 40.85 23.625 41.2812V42.8437C23.625 43.275 23.9742 43.625 24.4062 43.625C24.8383 43.625 25.1875 43.275 25.1875 42.8437V41.2812C25.1875 40.85 24.8383 40.5 24.4062 40.5ZM28.3125 40.5C27.8805 40.5 27.5312 40.85 27.5312 41.2812V42.8437C27.5312 43.275 27.8805 43.625 28.3125 43.625C28.7445 43.625 29.0937 43.275 29.0937 42.8437V41.2812C29.0937 40.85 28.7445 40.5 28.3125 40.5ZM32.2187 40.5C31.7867 40.5 31.4375 40.85 31.4375 41.2812V42.8437C31.4375 43.275 31.7867 43.625 32.2187 43.625C32.6508 43.625 33 43.275 33 42.8437V41.2812C33 40.85 32.6508 40.5 32.2187 40.5ZM36.125 40.5C35.693 40.5 35.3437 40.85 35.3437 41.2812V42.8437C35.3437 43.275 35.693 43.625 36.125 43.625C36.557 43.625 36.9062 43.275 36.9062 42.8437V41.2812C36.9062 40.85 36.557 40.5 36.125 40.5ZM40.0312 40.5C39.5992 40.5 39.25 40.85 39.25 41.2812V42.8437C39.25 43.275 39.5992 43.625 40.0312 43.625C40.4633 43.625 40.8125 43.275 40.8125 42.8437V41.2812C40.8125 40.85 40.4633 40.5 40.0312 40.5ZM43.9375 40.5C43.5055 40.5 43.1562 40.85 43.1562 41.2812V42.8437C43.1562 43.275 43.5055 43.625 43.9375 43.625C44.3695 43.625 44.7187 43.275 44.7187 42.8437V41.2812C44.7187 40.85 44.3695 40.5 43.9375 40.5Z" fill="#333333"/>
<path d="M57.7109 19H55.3359L55.3516 17.7734H57.7109C58.5234 17.7734 59.2005 17.6042 59.7422 17.2656C60.2839 16.9219 60.6901 16.4427 60.9609 15.8281C61.237 15.2083 61.375 14.4844 61.375 13.6562V12.9609C61.375 12.3099 61.2969 11.7318 61.1406 11.2266C60.9844 10.7161 60.7552 10.2865 60.4531 9.9375C60.151 9.58333 59.7812 9.3151 59.3438 9.13281C58.9115 8.95052 58.4141 8.85938 57.8516 8.85938H55.2891V7.625H57.8516C58.5964 7.625 59.276 7.75 59.8906 8C60.5052 8.24479 61.0339 8.60156 61.4766 9.07031C61.9245 9.53385 62.2682 10.0964 62.5078 10.7578C62.7474 11.4141 62.8672 12.1536 62.8672 12.9766V13.6562C62.8672 14.4792 62.7474 15.2214 62.5078 15.8828C62.2682 16.5391 61.9219 17.099 61.4688 17.5625C61.0208 18.026 60.4792 18.3828 59.8438 18.6328C59.2135 18.8776 58.5026 19 57.7109 19ZM56.1406 7.625V19H54.6328V7.625H56.1406ZM66.4844 10.5469V19H65.0312V10.5469H66.4844ZM64.9219 8.30469C64.9219 8.07031 64.9922 7.8724 65.1328 7.71094C65.2786 7.54948 65.4922 7.46875 65.7734 7.46875C66.0495 7.46875 66.2604 7.54948 66.4062 7.71094C66.5573 7.8724 66.6328 8.07031 66.6328 8.30469C66.6328 8.52865 66.5573 8.72135 66.4062 8.88281C66.2604 9.03906 66.0495 9.11719 65.7734 9.11719C65.4922 9.11719 65.2786 9.03906 65.1328 8.88281C64.9922 8.72135 64.9219 8.52865 64.9219 8.30469ZM73.7266 16.7578C73.7266 16.5495 73.6797 16.3568 73.5859 16.1797C73.4974 15.9974 73.3125 15.8333 73.0312 15.6875C72.7552 15.5365 72.3385 15.4062 71.7812 15.2969C71.3125 15.1979 70.888 15.0807 70.5078 14.9453C70.1328 14.8099 69.8125 14.6458 69.5469 14.4531C69.2865 14.2604 69.0859 14.0339 68.9453 13.7734C68.8047 13.513 68.7344 13.2083 68.7344 12.8594C68.7344 12.526 68.8073 12.2109 68.9531 11.9141C69.1042 11.6172 69.3151 11.3542 69.5859 11.125C69.862 10.8958 70.1927 10.7161 70.5781 10.5859C70.9635 10.4557 71.3932 10.3906 71.8672 10.3906C72.5443 10.3906 73.1224 10.5104 73.6016 10.75C74.0807 10.9896 74.4479 11.3099 74.7031 11.7109C74.9583 12.1068 75.0859 12.5469 75.0859 13.0312H73.6406C73.6406 12.7969 73.5703 12.5703 73.4297 12.3516C73.2943 12.1276 73.0938 11.9427 72.8281 11.7969C72.5677 11.651 72.2474 11.5781 71.8672 11.5781C71.4661 11.5781 71.1406 11.6406 70.8906 11.7656C70.6458 11.8854 70.4661 12.0391 70.3516 12.2266C70.2422 12.4141 70.1875 12.612 70.1875 12.8203C70.1875 12.9766 70.2135 13.1172 70.2656 13.2422C70.3229 13.362 70.4219 13.474 70.5625 13.5781C70.7031 13.6771 70.901 13.7708 71.1562 13.8594C71.4115 13.9479 71.737 14.0365 72.1328 14.125C72.8255 14.2812 73.3958 14.4688 73.8438 14.6875C74.2917 14.9062 74.625 15.1745 74.8438 15.4922C75.0625 15.8099 75.1719 16.1953 75.1719 16.6484C75.1719 17.0182 75.0938 17.3568 74.9375 17.6641C74.7865 17.9714 74.5651 18.237 74.2734 18.4609C73.987 18.6797 73.6432 18.8516 73.2422 18.9766C72.8464 19.0964 72.401 19.1562 71.9062 19.1562C71.1615 19.1562 70.5312 19.0234 70.0156 18.7578C69.5 18.4922 69.1094 18.1484 68.8438 17.7266C68.5781 17.3047 68.4453 16.8594 68.4453 16.3906H69.8984C69.9193 16.7865 70.0339 17.1016 70.2422 17.3359C70.4505 17.5651 70.7057 17.7292 71.0078 17.8281C71.3099 17.9219 71.6094 17.9688 71.9062 17.9688C72.3021 17.9688 72.6328 17.9167 72.8984 17.8125C73.1693 17.7083 73.375 17.5651 73.5156 17.3828C73.6562 17.2005 73.7266 16.9922 73.7266 16.7578ZM78.5156 12.1719V22.25H77.0625V10.5469H78.3906L78.5156 12.1719ZM84.2109 14.7031V14.8672C84.2109 15.4818 84.138 16.0521 83.9922 16.5781C83.8464 17.099 83.6328 17.5521 83.3516 17.9375C83.0755 18.3229 82.7344 18.6224 82.3281 18.8359C81.9219 19.0495 81.4557 19.1562 80.9297 19.1562C80.3932 19.1562 79.9193 19.0677 79.5078 18.8906C79.0964 18.7135 78.7474 18.4557 78.4609 18.1172C78.1745 17.7786 77.9453 17.3724 77.7734 16.8984C77.6068 16.4245 77.4922 15.8906 77.4297 15.2969V14.4219C77.4922 13.7969 77.6094 13.237 77.7812 12.7422C77.9531 12.2474 78.1797 11.8255 78.4609 11.4766C78.7474 11.1224 79.0938 10.8542 79.5 10.6719C79.9062 10.4844 80.375 10.3906 80.9062 10.3906C81.4375 10.3906 81.9089 10.4948 82.3203 10.7031C82.7318 10.9062 83.0781 11.1979 83.3594 11.5781C83.6406 11.9583 83.8516 12.4141 83.9922 12.9453C84.138 13.4714 84.2109 14.0573 84.2109 14.7031ZM82.7578 14.8672V14.7031C82.7578 14.2812 82.7135 13.8854 82.625 13.5156C82.5365 13.1406 82.3984 12.8125 82.2109 12.5312C82.0286 12.2448 81.7943 12.0208 81.5078 11.8594C81.2214 11.6927 80.8802 11.6094 80.4844 11.6094C80.1198 11.6094 79.8021 11.6719 79.5312 11.7969C79.2656 11.9219 79.0391 12.0911 78.8516 12.3047C78.6641 12.513 78.5104 12.7526 78.3906 13.0234C78.276 13.2891 78.1901 13.5651 78.1328 13.8516V15.875C78.237 16.2396 78.3828 16.5833 78.5703 16.9062C78.7578 17.224 79.0078 17.4818 79.3203 17.6797C79.6328 17.8724 80.026 17.9688 80.5 17.9688C80.8906 17.9688 81.2266 17.888 81.5078 17.7266C81.7943 17.5599 82.0286 17.3333 82.2109 17.0469C82.3984 16.7604 82.5365 16.4323 82.625 16.0625C82.7135 15.6875 82.7578 15.2891 82.7578 14.8672ZM85.6719 14.8672V14.6875C85.6719 14.0781 85.7604 13.513 85.9375 12.9922C86.1146 12.4661 86.3698 12.0104 86.7031 11.625C87.0365 11.2344 87.4401 10.9323 87.9141 10.7188C88.388 10.5 88.9193 10.3906 89.5078 10.3906C90.1016 10.3906 90.6354 10.5 91.1094 10.7188C91.5885 10.9323 91.9948 11.2344 92.3281 11.625C92.6667 12.0104 92.9245 12.4661 93.1016 12.9922C93.2786 13.513 93.3672 14.0781 93.3672 14.6875V14.8672C93.3672 15.4766 93.2786 16.0417 93.1016 16.5625C92.9245 17.0833 92.6667 17.5391 92.3281 17.9297C91.9948 18.3151 91.5911 18.6172 91.1172 18.8359C90.6484 19.0495 90.1172 19.1562 89.5234 19.1562C88.9297 19.1562 88.3958 19.0495 87.9219 18.8359C87.4479 18.6172 87.0417 18.3151 86.7031 17.9297C86.3698 17.5391 86.1146 17.0833 85.9375 16.5625C85.7604 16.0417 85.6719 15.4766 85.6719 14.8672ZM87.1172 14.6875V14.8672C87.1172 15.2891 87.1667 15.6875 87.2656 16.0625C87.3646 16.4323 87.513 16.7604 87.7109 17.0469C87.9141 17.3333 88.1667 17.5599 88.4688 17.7266C88.7708 17.888 89.1224 17.9688 89.5234 17.9688C89.9193 17.9688 90.2656 17.888 90.5625 17.7266C90.8646 17.5599 91.1146 17.3333 91.3125 17.0469C91.5104 16.7604 91.6589 16.4323 91.7578 16.0625C91.862 15.6875 91.9141 15.2891 91.9141 14.8672V14.6875C91.9141 14.2708 91.862 13.8776 91.7578 13.5078C91.6589 13.1328 91.5078 12.8021 91.3047 12.5156C91.1068 12.224 90.8568 11.9948 90.5547 11.8281C90.2578 11.6615 89.9089 11.5781 89.5078 11.5781C89.112 11.5781 88.763 11.6615 88.4609 11.8281C88.1641 11.9948 87.9141 12.224 87.7109 12.5156C87.513 12.8021 87.3646 13.1328 87.2656 13.5078C87.1667 13.8776 87.1172 14.2708 87.1172 14.6875ZM96.625 12.3516V19H95.1797V10.5469H96.5469L96.625 12.3516ZM96.2812 14.4531L95.6797 14.4297C95.6849 13.8516 95.7708 13.3177 95.9375 12.8281C96.1042 12.3333 96.3385 11.9036 96.6406 11.5391C96.9427 11.1745 97.3021 10.8932 97.7188 10.6953C98.1406 10.4922 98.6068 10.3906 99.1172 10.3906C99.5339 10.3906 99.9089 10.4479 100.242 10.5625C100.576 10.6719 100.859 10.849 101.094 11.0938C101.333 11.3385 101.516 11.6562 101.641 12.0469C101.766 12.4323 101.828 12.9036 101.828 13.4609V19H100.375V13.4453C100.375 13.0026 100.31 12.6484 100.18 12.3828C100.049 12.112 99.8594 11.9167 99.6094 11.7969C99.3594 11.6719 99.0521 11.6094 98.6875 11.6094C98.3281 11.6094 98 11.6849 97.7031 11.8359C97.4115 11.987 97.1589 12.1953 96.9453 12.4609C96.737 12.7266 96.5729 13.0312 96.4531 13.375C96.3385 13.7135 96.2812 14.0729 96.2812 14.4531ZM105.594 10.5469V19H104.141V10.5469H105.594ZM104.031 8.30469C104.031 8.07031 104.102 7.8724 104.242 7.71094C104.388 7.54948 104.602 7.46875 104.883 7.46875C105.159 7.46875 105.37 7.54948 105.516 7.71094C105.667 7.8724 105.742 8.07031 105.742 8.30469C105.742 8.52865 105.667 8.72135 105.516 8.88281C105.37 9.03906 105.159 9.11719 104.883 9.11719C104.602 9.11719 104.388 9.03906 104.242 8.88281C104.102 8.72135 104.031 8.52865 104.031 8.30469ZM110.484 17.6953L112.797 10.5469H114.273L111.234 19H110.266L110.484 17.6953ZM108.555 10.5469L110.938 17.7344L111.102 19H110.133L107.07 10.5469H108.555ZM119.062 19.1562C118.474 19.1562 117.94 19.0573 117.461 18.8594C116.987 18.6562 116.578 18.3724 116.234 18.0078C115.896 17.6432 115.635 17.2109 115.453 16.7109C115.271 16.2109 115.18 15.6641 115.18 15.0703V14.7422C115.18 14.0547 115.281 13.4427 115.484 12.9062C115.688 12.3646 115.964 11.9062 116.312 11.5312C116.661 11.1562 117.057 10.8724 117.5 10.6797C117.943 10.487 118.401 10.3906 118.875 10.3906C119.479 10.3906 120 10.4948 120.438 10.7031C120.88 10.9115 121.242 11.2031 121.523 11.5781C121.805 11.9479 122.013 12.3854 122.148 12.8906C122.284 13.3906 122.352 13.9375 122.352 14.5312V15.1797H116.039V14H120.906V13.8906C120.885 13.5156 120.807 13.151 120.672 12.7969C120.542 12.4427 120.333 12.151 120.047 11.9219C119.76 11.6927 119.37 11.5781 118.875 11.5781C118.547 11.5781 118.245 11.6484 117.969 11.7891C117.693 11.9245 117.456 12.1276 117.258 12.3984C117.06 12.6693 116.906 13 116.797 13.3906C116.688 13.7812 116.633 14.2318 116.633 14.7422V15.0703C116.633 15.4714 116.688 15.849 116.797 16.2031C116.911 16.5521 117.076 16.8594 117.289 17.125C117.508 17.3906 117.771 17.599 118.078 17.75C118.391 17.901 118.745 17.9766 119.141 17.9766C119.651 17.9766 120.083 17.8724 120.438 17.6641C120.792 17.4557 121.102 17.1771 121.367 16.8281L122.242 17.5234C122.06 17.7995 121.828 18.0625 121.547 18.3125C121.266 18.5625 120.919 18.7656 120.508 18.9219C120.102 19.0781 119.62 19.1562 119.062 19.1562ZM125.609 7V19H124.156V7H125.609ZM133.344 12.3516V19H131.898V10.5469H133.266L133.344 12.3516ZM133 14.4531L132.398 14.4297C132.404 13.8516 132.49 13.3177 132.656 12.8281C132.823 12.3333 133.057 11.9036 133.359 11.5391C133.661 11.1745 134.021 10.8932 134.438 10.6953C134.859 10.4922 135.326 10.3906 135.836 10.3906C136.253 10.3906 136.628 10.4479 136.961 10.5625C137.294 10.6719 137.578 10.849 137.812 11.0938C138.052 11.3385 138.234 11.6562 138.359 12.0469C138.484 12.4323 138.547 12.9036 138.547 13.4609V19H137.094V13.4453C137.094 13.0026 137.029 12.6484 136.898 12.3828C136.768 12.112 136.578 11.9167 136.328 11.7969C136.078 11.6719 135.771 11.6094 135.406 11.6094C135.047 11.6094 134.719 11.6849 134.422 11.8359C134.13 11.987 133.878 12.1953 133.664 12.4609C133.456 12.7266 133.292 13.0312 133.172 13.375C133.057 13.7135 133 14.0729 133 14.4531ZM145.727 17.5547V13.2031C145.727 12.8698 145.659 12.5807 145.523 12.3359C145.393 12.0859 145.195 11.8932 144.93 11.7578C144.664 11.6224 144.336 11.5547 143.945 11.5547C143.581 11.5547 143.26 11.6172 142.984 11.7422C142.714 11.8672 142.5 12.0312 142.344 12.2344C142.193 12.4375 142.117 12.6562 142.117 12.8906H140.672C140.672 12.5885 140.75 12.2891 140.906 11.9922C141.062 11.6953 141.286 11.4271 141.578 11.1875C141.875 10.9427 142.229 10.75 142.641 10.6094C143.057 10.4635 143.521 10.3906 144.031 10.3906C144.646 10.3906 145.188 10.4948 145.656 10.7031C146.13 10.9115 146.5 11.2266 146.766 11.6484C147.036 12.0651 147.172 12.5885 147.172 13.2188V17.1562C147.172 17.4375 147.195 17.737 147.242 18.0547C147.294 18.3724 147.37 18.6458 147.469 18.875V19H145.961C145.888 18.8333 145.831 18.612 145.789 18.3359C145.747 18.0547 145.727 17.7943 145.727 17.5547ZM145.977 13.875L145.992 14.8906H144.531C144.12 14.8906 143.753 14.9245 143.43 14.9922C143.107 15.0547 142.836 15.151 142.617 15.2812C142.398 15.4115 142.232 15.5755 142.117 15.7734C142.003 15.9661 141.945 16.1927 141.945 16.4531C141.945 16.7188 142.005 16.9609 142.125 17.1797C142.245 17.3984 142.424 17.5729 142.664 17.7031C142.909 17.8281 143.208 17.8906 143.562 17.8906C144.005 17.8906 144.396 17.7969 144.734 17.6094C145.073 17.4219 145.341 17.1927 145.539 16.9219C145.742 16.651 145.852 16.388 145.867 16.1328L146.484 16.8281C146.448 17.0469 146.349 17.2891 146.188 17.5547C146.026 17.8203 145.81 18.0755 145.539 18.3203C145.273 18.5599 144.956 18.7604 144.586 18.9219C144.221 19.0781 143.81 19.1562 143.352 19.1562C142.779 19.1562 142.276 19.0443 141.844 18.8203C141.417 18.5964 141.083 18.2969 140.844 17.9219C140.609 17.5417 140.492 17.1172 140.492 16.6484C140.492 16.1953 140.581 15.7969 140.758 15.4531C140.935 15.1042 141.19 14.8151 141.523 14.5859C141.857 14.3516 142.258 14.1745 142.727 14.0547C143.195 13.9349 143.719 13.875 144.297 13.875H145.977Z" fill="#333333"/>
<path d="M61.7734 30.8555L57.1328 45H53.3945L59.7344 27.9375H62.1133L61.7734 30.8555ZM65.6289 45L60.9766 30.8555L60.6016 27.9375H63.0039L69.3789 45H65.6289ZM65.418 38.6484V41.4023H56.4062V38.6484H65.418ZM73.75 34.7578V49.875H70.375V32.3203H73.5039L73.75 34.7578ZM81.7773 38.5195V38.7656C81.7773 39.6875 81.668 40.543 81.4492 41.332C81.2383 42.1211 80.9258 42.8086 80.5117 43.3945C80.0977 43.9727 79.582 44.4258 78.9648 44.7539C78.3555 45.0742 77.6523 45.2344 76.8555 45.2344C76.082 45.2344 75.4102 45.0781 74.8398 44.7656C74.2695 44.4531 73.7891 44.0156 73.3984 43.4531C73.0156 42.8828 72.707 42.2227 72.4727 41.4727C72.2383 40.7227 72.0586 39.918 71.9336 39.0586V38.4141C72.0586 37.4922 72.2383 36.6484 72.4727 35.8828C72.707 35.1094 73.0156 34.4414 73.3984 33.8789C73.7891 33.3086 74.2656 32.8672 74.8281 32.5547C75.3984 32.2422 76.0664 32.0859 76.832 32.0859C77.6367 32.0859 78.3438 32.2383 78.9531 32.543C79.5703 32.8477 80.0859 33.2852 80.5 33.8555C80.9219 34.4258 81.2383 35.1055 81.4492 35.8945C81.668 36.6836 81.7773 37.5586 81.7773 38.5195ZM78.3906 38.7656V38.5195C78.3906 37.9805 78.3438 37.4844 78.25 37.0312C78.1641 36.5703 78.0234 36.168 77.8281 35.8242C77.6406 35.4805 77.3906 35.2148 77.0781 35.0273C76.7734 34.832 76.4023 34.7344 75.9648 34.7344C75.5039 34.7344 75.1094 34.8086 74.7812 34.957C74.4609 35.1055 74.1992 35.3203 73.9961 35.6016C73.793 35.8828 73.6406 36.2188 73.5391 36.6094C73.4375 37 73.375 37.4414 73.3516 37.9336V39.5625C73.3906 40.1406 73.5 40.6602 73.6797 41.1211C73.8594 41.5742 74.1367 41.9336 74.5117 42.1992C74.8867 42.4648 75.3789 42.5977 75.9883 42.5977C76.4336 42.5977 76.8086 42.5 77.1133 42.3047C77.418 42.1016 77.6641 41.8242 77.8516 41.4727C78.0469 41.1211 78.1836 40.7148 78.2617 40.2539C78.3477 39.793 78.3906 39.2969 78.3906 38.7656ZM87.25 34.7578V49.875H83.875V32.3203H87.0039L87.25 34.7578ZM95.2773 38.5195V38.7656C95.2773 39.6875 95.168 40.543 94.9492 41.332C94.7383 42.1211 94.4258 42.8086 94.0117 43.3945C93.5977 43.9727 93.082 44.4258 92.4648 44.7539C91.8555 45.0742 91.1523 45.2344 90.3555 45.2344C89.582 45.2344 88.9102 45.0781 88.3398 44.7656C87.7695 44.4531 87.2891 44.0156 86.8984 43.4531C86.5156 42.8828 86.207 42.2227 85.9727 41.4727C85.7383 40.7227 85.5586 39.918 85.4336 39.0586V38.4141C85.5586 37.4922 85.7383 36.6484 85.9727 35.8828C86.207 35.1094 86.5156 34.4414 86.8984 33.8789C87.2891 33.3086 87.7656 32.8672 88.3281 32.5547C88.8984 32.2422 89.5664 32.0859 90.332 32.0859C91.1367 32.0859 91.8438 32.2383 92.4531 32.543C93.0703 32.8477 93.5859 33.2852 94 33.8555C94.4219 34.4258 94.7383 35.1055 94.9492 35.8945C95.168 36.6836 95.2773 37.5586 95.2773 38.5195ZM91.8906 38.7656V38.5195C91.8906 37.9805 91.8438 37.4844 91.75 37.0312C91.6641 36.5703 91.5234 36.168 91.3281 35.8242C91.1406 35.4805 90.8906 35.2148 90.5781 35.0273C90.2734 34.832 89.9023 34.7344 89.4648 34.7344C89.0039 34.7344 88.6094 34.8086 88.2812 34.957C87.9609 35.1055 87.6992 35.3203 87.4961 35.6016C87.293 35.8828 87.1406 36.2188 87.0391 36.6094C86.9375 37 86.875 37.4414 86.8516 37.9336V39.5625C86.8906 40.1406 87 40.6602 87.1797 41.1211C87.3594 41.5742 87.6367 41.9336 88.0117 42.1992C88.3867 42.4648 88.8789 42.5977 89.4883 42.5977C89.9336 42.5977 90.3086 42.5 90.6133 42.3047C90.918 42.1016 91.1641 41.8242 91.3516 41.4727C91.5469 41.1211 91.6836 40.7148 91.7617 40.2539C91.8477 39.793 91.8906 39.2969 91.8906 38.7656ZM100.938 27V45H97.5508V27H100.938ZM109.562 45.2344C108.578 45.2344 107.695 45.0781 106.914 44.7656C106.133 44.4453 105.469 44.0039 104.922 43.4414C104.383 42.8789 103.969 42.2266 103.68 41.4844C103.391 40.7344 103.246 39.9375 103.246 39.0938V38.625C103.246 37.6641 103.383 36.7852 103.656 35.9883C103.93 35.1914 104.32 34.5 104.828 33.9141C105.344 33.3281 105.969 32.8789 106.703 32.5664C107.438 32.2461 108.266 32.0859 109.188 32.0859C110.086 32.0859 110.883 32.2344 111.578 32.5312C112.273 32.8281 112.855 33.25 113.324 33.7969C113.801 34.3438 114.16 35 114.402 35.7656C114.645 36.5234 114.766 37.3672 114.766 38.2969V39.7031H104.688V37.4531H111.449V37.1953C111.449 36.7266 111.363 36.3086 111.191 35.9414C111.027 35.5664 110.777 35.2695 110.441 35.0508C110.105 34.832 109.676 34.7227 109.152 34.7227C108.707 34.7227 108.324 34.8203 108.004 35.0156C107.684 35.2109 107.422 35.4844 107.219 35.8359C107.023 36.1875 106.875 36.6016 106.773 37.0781C106.68 37.5469 106.633 38.0625 106.633 38.625V39.0938C106.633 39.6016 106.703 40.0703 106.844 40.5C106.992 40.9297 107.199 41.3008 107.465 41.6133C107.738 41.9258 108.066 42.168 108.449 42.3398C108.84 42.5117 109.281 42.5977 109.773 42.5977C110.383 42.5977 110.949 42.4805 111.473 42.2461C112.004 42.0039 112.461 41.6406 112.844 41.1562L114.484 42.9375C114.219 43.3203 113.855 43.6875 113.395 44.0391C112.941 44.3906 112.395 44.6797 111.754 44.9062C111.113 45.125 110.383 45.2344 109.562 45.2344ZM131.758 40.5352C131.758 40.2305 131.711 39.957 131.617 39.7148C131.531 39.4648 131.367 39.2383 131.125 39.0352C130.883 38.8242 130.543 38.6172 130.105 38.4141C129.668 38.2109 129.102 38 128.406 37.7812C127.633 37.5312 126.898 37.25 126.203 36.9375C125.516 36.625 124.906 36.2617 124.375 35.8477C123.852 35.4258 123.438 34.9375 123.133 34.3828C122.836 33.8281 122.688 33.1836 122.688 32.4492C122.688 31.7383 122.844 31.0938 123.156 30.5156C123.469 29.9297 123.906 29.4297 124.469 29.0156C125.031 28.5938 125.695 28.2695 126.461 28.043C127.234 27.8164 128.082 27.7031 129.004 27.7031C130.262 27.7031 131.359 27.9297 132.297 28.3828C133.234 28.8359 133.961 29.457 134.477 30.2461C135 31.0352 135.262 31.9375 135.262 32.9531H131.77C131.77 32.4531 131.664 32.0156 131.453 31.6406C131.25 31.2578 130.938 30.957 130.516 30.7383C130.102 30.5195 129.578 30.4102 128.945 30.4102C128.336 30.4102 127.828 30.5039 127.422 30.6914C127.016 30.8711 126.711 31.1172 126.508 31.4297C126.305 31.7344 126.203 32.0781 126.203 32.4609C126.203 32.75 126.273 33.0117 126.414 33.2461C126.562 33.4805 126.781 33.6992 127.07 33.9023C127.359 34.1055 127.715 34.2969 128.137 34.4766C128.559 34.6562 129.047 34.832 129.602 35.0039C130.531 35.2852 131.348 35.6016 132.051 35.9531C132.762 36.3047 133.355 36.6992 133.832 37.1367C134.309 37.5742 134.668 38.0703 134.91 38.625C135.152 39.1797 135.273 39.8086 135.273 40.5117C135.273 41.2539 135.129 41.918 134.84 42.5039C134.551 43.0898 134.133 43.5859 133.586 43.9922C133.039 44.3984 132.387 44.707 131.629 44.918C130.871 45.1289 130.023 45.2344 129.086 45.2344C128.242 45.2344 127.41 45.125 126.59 44.9062C125.77 44.6797 125.023 44.3398 124.352 43.8867C123.688 43.4336 123.156 42.8555 122.758 42.1523C122.359 41.4492 122.16 40.6172 122.16 39.6562H125.688C125.688 40.1875 125.77 40.6367 125.934 41.0039C126.098 41.3711 126.328 41.668 126.625 41.8945C126.93 42.1211 127.289 42.2852 127.703 42.3867C128.125 42.4883 128.586 42.5391 129.086 42.5391C129.695 42.5391 130.195 42.4531 130.586 42.2812C130.984 42.1094 131.277 41.8711 131.465 41.5664C131.66 41.2617 131.758 40.918 131.758 40.5352ZM143.664 32.3203V34.7109H136.281V32.3203H143.664ZM138.109 29.1914H141.484V41.1797C141.484 41.5469 141.531 41.8281 141.625 42.0234C141.727 42.2188 141.875 42.3555 142.07 42.4336C142.266 42.5039 142.512 42.5391 142.809 42.5391C143.02 42.5391 143.207 42.5312 143.371 42.5156C143.543 42.4922 143.688 42.4688 143.805 42.4453L143.816 44.9297C143.527 45.0234 143.215 45.0977 142.879 45.1523C142.543 45.207 142.172 45.2344 141.766 45.2344C141.023 45.2344 140.375 45.1133 139.82 44.8711C139.273 44.6211 138.852 44.2227 138.555 43.6758C138.258 43.1289 138.109 42.4102 138.109 41.5195V29.1914ZM144.742 38.7891V38.543C144.742 37.6133 144.875 36.7578 145.141 35.9766C145.406 35.1875 145.793 34.5039 146.301 33.9258C146.809 33.3477 147.434 32.8984 148.176 32.5781C148.918 32.25 149.77 32.0859 150.73 32.0859C151.691 32.0859 152.547 32.25 153.297 32.5781C154.047 32.8984 154.676 33.3477 155.184 33.9258C155.699 34.5039 156.09 35.1875 156.355 35.9766C156.621 36.7578 156.754 37.6133 156.754 38.543V38.7891C156.754 39.7109 156.621 40.5664 156.355 41.3555C156.09 42.1367 155.699 42.8203 155.184 43.4062C154.676 43.9844 154.051 44.4336 153.309 44.7539C152.566 45.0742 151.715 45.2344 150.754 45.2344C149.793 45.2344 148.938 45.0742 148.188 44.7539C147.445 44.4336 146.816 43.9844 146.301 43.4062C145.793 42.8203 145.406 42.1367 145.141 41.3555C144.875 40.5664 144.742 39.7109 144.742 38.7891ZM148.117 38.543V38.7891C148.117 39.3203 148.164 39.8164 148.258 40.2773C148.352 40.7383 148.5 41.1445 148.703 41.4961C148.914 41.8398 149.188 42.1094 149.523 42.3047C149.859 42.5 150.27 42.5977 150.754 42.5977C151.223 42.5977 151.625 42.5 151.961 42.3047C152.297 42.1094 152.566 41.8398 152.77 41.4961C152.973 41.1445 153.121 40.7383 153.215 40.2773C153.316 39.8164 153.367 39.3203 153.367 38.7891V38.543C153.367 38.0273 153.316 37.543 153.215 37.0898C153.121 36.6289 152.969 36.2227 152.758 35.8711C152.555 35.5117 152.285 35.2305 151.949 35.0273C151.613 34.8242 151.207 34.7227 150.73 34.7227C150.254 34.7227 149.848 34.8242 149.512 35.0273C149.184 35.2305 148.914 35.5117 148.703 35.8711C148.5 36.2227 148.352 36.6289 148.258 37.0898C148.164 37.543 148.117 38.0273 148.117 38.543ZM162.203 35.0859V45H158.828V32.3203H162.004L162.203 35.0859ZM166.023 32.2383L165.965 35.3672C165.801 35.3438 165.602 35.3242 165.367 35.3086C165.141 35.2852 164.934 35.2734 164.746 35.2734C164.27 35.2734 163.855 35.3359 163.504 35.4609C163.16 35.5781 162.871 35.7539 162.637 35.9883C162.41 36.2227 162.238 36.5078 162.121 36.8438C162.012 37.1797 161.949 37.5625 161.934 37.9922L161.254 37.7812C161.254 36.9609 161.336 36.207 161.5 35.5195C161.664 34.8242 161.902 34.2188 162.215 33.7031C162.535 33.1875 162.926 32.7891 163.387 32.5078C163.848 32.2266 164.375 32.0859 164.969 32.0859C165.156 32.0859 165.348 32.1016 165.543 32.1328C165.738 32.1562 165.898 32.1914 166.023 32.2383ZM173.219 45.2344C172.234 45.2344 171.352 45.0781 170.57 44.7656C169.789 44.4453 169.125 44.0039 168.578 43.4414C168.039 42.8789 167.625 42.2266 167.336 41.4844C167.047 40.7344 166.902 39.9375 166.902 39.0938V38.625C166.902 37.6641 167.039 36.7852 167.312 35.9883C167.586 35.1914 167.977 34.5 168.484 33.9141C169 33.3281 169.625 32.8789 170.359 32.5664C171.094 32.2461 171.922 32.0859 172.844 32.0859C173.742 32.0859 174.539 32.2344 175.234 32.5312C175.93 32.8281 176.512 33.25 176.98 33.7969C177.457 34.3438 177.816 35 178.059 35.7656C178.301 36.5234 178.422 37.3672 178.422 38.2969V39.7031H168.344V37.4531H175.105V37.1953C175.105 36.7266 175.02 36.3086 174.848 35.9414C174.684 35.5664 174.434 35.2695 174.098 35.0508C173.762 34.832 173.332 34.7227 172.809 34.7227C172.363 34.7227 171.98 34.8203 171.66 35.0156C171.34 35.2109 171.078 35.4844 170.875 35.8359C170.68 36.1875 170.531 36.6016 170.43 37.0781C170.336 37.5469 170.289 38.0625 170.289 38.625V39.0938C170.289 39.6016 170.359 40.0703 170.5 40.5C170.648 40.9297 170.855 41.3008 171.121 41.6133C171.395 41.9258 171.723 42.168 172.105 42.3398C172.496 42.5117 172.938 42.5977 173.43 42.5977C174.039 42.5977 174.605 42.4805 175.129 42.2461C175.66 42.0039 176.117 41.6406 176.5 41.1562L178.141 42.9375C177.875 43.3203 177.512 43.6875 177.051 44.0391C176.598 44.3906 176.051 44.6797 175.41 44.9062C174.77 45.125 174.039 45.2344 173.219 45.2344Z" fill="#333333"/>
<rect x="0.5" y="0.5" width="186.31" height="54" rx="4.5" stroke="black"/>
</svg>
